0
SECTION
2
HEADER
9
$INSUNITS
70
4
9
$ACADVER
1
AC1014
9
$HANDSEED
5
FFFF
0
ENDSEC
0
SECTION
2
TABLES
0
TABLE
2
VPORT
5
8
100
AcDbSymbolTable
0
ENDTAB
0
TABLE
2
LTYPE
5
5
100
AcDbSymbolTable
0
LTYPE
5
14
100
AcDbSymbolTableRecord
100
AcDbLinetypeTableRecord
2
BYBLOCK
70
0
0
LTYPE
5
15
100
AcDbSymbolTableRecord
100
AcDbLinetypeTableRecord
2
BYLAYER
70
0
0
ENDTAB
0
TABLE
2
LAYER
5
2
100
AcDbSymbolTable
70
2
0
LAYER
5
50
100
AcDbSymbolTableRecord
100
AcDbLayerTableRecord
2
0
70
0
6
CONTINUOUS
0
ENDTAB
0
TABLE
2
STYLE
5
3
100
AcDbSymbolTable
70
1
0
STYLE
5
11
100
AcDbSymbolTableRecord
100
AcDbTextStyleTableRecord
2
STANDARD
70
0
0
ENDTAB
0
TABLE
2
VIEW
5
6
100
AcDbSymbolTable
70
0
0
ENDTAB
0
TABLE
2
UCS
5
7
100
AcDbSymbolTable
70
0
0
ENDTAB
0
TABLE
2
APPID
5
9
100
AcDbSymbolTable
70
2
0
APPID
5
12
100
AcDbSymbolTableRecord
100
AcDbRegAppTableRecord
2
ACAD
70
0
0
ENDTAB
0
TABLE
2
DIMSTYLE
5
A
100
AcDbSymbolTable
70
1
0
ENDTAB
0
TABLE
2
BLOCK_RECORD
5
1
100
AcDbSymbolTable
70
1
0
BLOCK_RECORD
5
1F
100
AcDbSymbolTableRecord
100
AcDbBlockTableRecord
2
*MODEL_SPACE
0
BLOCK_RECORD
5
1B
100
AcDbSymbolTableRecord
100
AcDbBlockTableRecord
2
*PAPER_SPACE
0
ENDTAB
0
ENDSEC
0
SECTION
2
BLOCKS
0
BLOCK
5
20
100
AcDbEntity
100
AcDbBlockBegin
2
*MODEL_SPACE
0
ENDBLK
5
21
100
AcDbEntity
100
AcDbBlockEnd
0
BLOCK
5
1C
100
AcDbEntity
100
AcDbBlockBegin
2
*PAPER_SPACE
0
ENDBLK
5
1D
100
AcDbEntity
100
AcDbBlockEnd
0
ENDSEC
0
SECTION
2
ENTITIES
0
LWPOLYLINE
5
100
100
AcDbEntity
8
0
100
AcDbPolyline
90
52
70
1
43
0.0
10
120
20
-30
10
116.25
20
-30
10
116.25
20
-33.000000000000007
10
108.75
20
-33.000000000000007
10
108.75
20
-30.000000000000007
10
101.25
20
-30
10
101.25
20
-33
10
93.75
20
-33
10
93.75
20
-30
10
26.25
20
-30
10
26.250000000000004
20
-33
10
18.750000000000004
20
-33
10
18.750000000000004
20
-30
10
11.250000000000002
20
-30
10
11.250000000000002
20
-33
10
3.75
20
-33
10
3.75
20
-30
10
0
20
-30
10
0
20
-26.25
10
-3.0000000000000004
20
-26.25
10
-3.0000000000000004
20
-18.749999999999996
10
0
20
-18.749999999999996
10
0
20
-11.249999999999998
10
-3
20
-11.249999999999998
10
-3
20
-3.7499999999999991
10
0
20
-3.7499999999999991
10
0
20
0
10
3.7499999999999996
20
0
10
3.7499999999999996
20
3.0000000000000049
10
11.250000000000002
20
3.0000000000000049
10
11.250000000000002
20
0
10
18.75
20
0
10
18.75
20
3.0000000000000053
10
26.25
20
3.0000000000000053
10
26.25
20
-1.6653345369377348e-15
10
93.75
20
1.89416747877436e-16
10
93.75
20
3.0000000000000071
10
101.25
20
3.0000000000000071
10
101.25
20
0
10
108.75
20
-1.7526296763861614e-16
10
108.75
20
3.0000000000000071
10
116.25
20
3.0000000000000071
10
116.25
20
0
10
120
20
0
10
120
20
-4.650870805374705
10
123
20
-4.650870805374705
10
123
20
-12.150870805374709
10
120
20
-12.150870805374709
10
120
20
-19.650870805374709
10
123
20
-19.650870805374709
10
123
20
-27.150870805374705
10
120
20
-27.150870805374705
0
LINE
5
101
100
AcDbEntity
8
0
100
AcDbLine
10
116.25
20
0
30
0
11
116.25
21
-30
31
0
0
LINE
5
102
100
AcDbEntity
8
0
100
AcDbLine
10
120
20
-27.150870805374705
30
0
11
0
21
-26.25
31
0
0
LINE
5
103
100
AcDbEntity
8
0
100
AcDbLine
10
0
20
-18.749999999999996
30
0
11
120
21
-19.650870805374709
31
0
0
LINE
5
104
100
AcDbEntity
8
0
100
AcDbLine
10
120
20
-12.150870805374709
30
0
11
0
21
-11.249999999999998
31
0
0
LINE
5
105
100
AcDbEntity
8
0
100
AcDbLine
10
0
20
-3.7499999999999991
30
0
11
120
21
-4.650870805374705
31
0
0
LINE
5
106
100
AcDbEntity
8
0
100
AcDbLine
10
108.75
20
-1.7526296763861614e-16
30
0
11
108.75
21
-30.000000000000007
31
0
0
LINE
5
107
100
AcDbEntity
8
0
100
AcDbLine
10
101.25
20
-30
30
0
11
101.25
21
0
31
0
0
LINE
5
108
100
AcDbEntity
8
0
100
AcDbLine
10
93.75
20
1.89416747877436e-16
30
0
11
93.75
21
-30
31
0
0
LINE
5
109
100
AcDbEntity
8
0
100
AcDbLine
10
26.25
20
-30
30
0
11
26.25
21
-1.6653345369377348e-15
31
0
0
LINE
5
110
100
AcDbEntity
8
0
100
AcDbLine
10
18.75
20
0
30
0
11
18.750000000000004
21
-30
31
0
0
LINE
5
111
100
AcDbEntity
8
0
100
AcDbLine
10
11.250000000000002
20
-30
30
0
11
11.250000000000002
21
0
31
0
0
LINE
5
112
100
AcDbEntity
8
0
100
AcDbLine
10
3.7499999999999996
20
0
30
0
11
3.75
21
-30
31
0
0
LWPOLYLINE
5
113
100
AcDbEntity
8
0
100
AcDbPolyline
90
4
70
1
43
0.0
10
116.25
20
-4.6227185927067458
10
113.25
20
-4.6227185927067467
10
113.25
20
-12.10019682257238
10
116.25
20
-12.10019682257238
0
LWPOLYLINE
5
114
100
AcDbEntity
8
0
100
AcDbPolyline
90
4
70
1
43
0.0
10
108.75
20
-4.5664141673708265
10
116.25
20
-4.5664141673708265
10
116.25000000000001
20
-7.5664141673708283
10
108.75000000000011
20
-7.5664141673708283
0
LWPOLYLINE
5
115
100
AcDbEntity
8
0
100
AcDbPolyline
90
4
70
1
43
0.0
10
101.25
20
-4.5101097420349072
10
93.75
20
-4.5101097420349072
10
93.75
20
-7.5101097420349463
10
101.25000000000514
20
-7.5101097420349463
0
LWPOLYLINE
5
116
100
AcDbEntity
8
0
100
AcDbPolyline
90
4
70
1
43
0.0
10
116.25
20
-19.62271859270675
10
113.25
20
-19.62271859270675
10
113.25
20
-27.100196822572382
10
116.25
20
-27.100196822572382
0
LWPOLYLINE
5
117
100
AcDbEntity
8
0
100
AcDbPolyline
90
4
70
1
43
0.0
10
108.75
20
-27.06641416737083
10
116.25
20
-27.06641416737083
10
116.25000000000001
20
-24.066414167370827
10
108.75
20
-24.066414167370827
0
LWPOLYLINE
5
118
100
AcDbEntity
8
0
100
AcDbPolyline
90
4
70
1
43
0.0
10
101.25
20
-27.01010974203491
10
93.75
20
-27.01010974203491
10
93.75
20
-24.010109742034906
10
101.25000000000003
20
-24.010109742034906
0
LWPOLYLINE
5
119
100
AcDbEntity
8
0
100
AcDbPolyline
90
4
70
1
43
0.0
10
26.25
20
-26.447065488675715
10
18.75
20
-26.447065488675715
10
18.750000000000004
20
-23.447065488675719
10
26.25
20
-23.447065488675719
0
LWPOLYLINE
5
120
100
AcDbEntity
8
0
100
AcDbPolyline
90
4
70
1
43
0.0
10
11.250000000000002
20
-26.334456638003878
10
3.75
20
-26.334456638003878
10
3.75
20
-23.334456638003878
10
11.250000000000002
20
-23.334456638003878
0
LWPOLYLINE
5
121
100
AcDbEntity
8
0
100
AcDbPolyline
90
4
70
1
43
0.0
10
3.75
20
-18.778152212667958
10
6.75
20
-18.778152212667958
10
6.75
20
-26.334456638003878
10
3.75
20
-26.334456638003878
0
LWPOLYLINE
5
122
100
AcDbEntity
8
0
100
AcDbPolyline
90
4
70
1
43
0.0
10
3.75
20
-11.278152212667958
10
6.75
20
-11.278152212667958
10
6.75
20
-3.8006739828023264
10
3.7499999999999982
20
-3.8006739828023264
0
LWPOLYLINE
5
123
100
AcDbEntity
8
0
100
AcDbPolyline
90
4
70
1
43
0.0
10
3.7499999999999982
20
-3.8006739828023264
10
11.250000000000002
20
-3.8006739828023264
10
11.250000000000002
20
-6.8006739828023255
10
3.7499999999999982
20
-6.8006739828023255
0
LWPOLYLINE
5
124
100
AcDbEntity
8
0
100
AcDbPolyline
90
4
70
1
43
0.0
10
18.75
20
-3.8907610633397964
10
26.25
20
-3.8907610633397964
10
26.25
20
-6.8907610633397969
10
18.75
20
-6.8907610633397969
0
ENDSEC
0
SECTION
2
OBJECTS
0
DICTIONARY
5
C
100
AcDbDictionary
3
ACAD_GROUP
350
D
3
ACAD_MLINESTYLE
350
17
0
DICTIONARY
5
D
100
AcDbDictionary
0
DICTIONARY
5
1A
330
C
100
AcDbDictionary
0
DICTIONARY
5
17
100
AcDbDictionary
0
ENDSEC
0
EOF
