<?xml version="1.0" standalone="no"?>
 <!DOCTYPE svg PUBLIC "-//W3C//DTD SVG 1.1//EN" 
 "http://www.w3.org/Graphics/SVG/1.1/DTD/svg11.dtd"> 
<svg
  xmlns:svg="http://www.w3.org/2000/svg"
  xmlns="http://www.w3.org/2000/svg"
  xmlns:xlink="http://www.w3.org/1999/xlink"
  version="1.1"
  width="112.9792mm" height="56.9976mm" viewBox="0.0000 0.0000 112.9792 56.9976">
<title>SVG Image created as Node V10-F_Cu.svg date 2024/03/13 11:19:52 </title>
  <desc>Image generated by PCBNEW </desc>
<g style="fill:#000000; fill-opacity:1.0000;stroke:#000000; stroke-opacity:1.0000;
stroke-linecap:round; stroke-linejoin:round;"
 transform="translate(0 0) scale(1 1)">
</g>
<g style="fill:#000000; fill-opacity:1.0000; stroke:none;">
<circle cx="41.8160" cy="42.2430" r="0.7620" /> 
</g>
<g style="fill:#000000; fill-opacity:1.0000; stroke:none;">
<circle cx="41.8160" cy="39.7030" r="0.7620" /> 
</g>
<g style="fill:#000000; fill-opacity:1.0000; stroke:none;">
<circle cx="41.8160" cy="37.1630" r="0.7620" /> 
</g>
<g style="fill:#000000; fill-opacity:1.0000; stroke:none;">
<circle cx="41.8160" cy="34.6230" r="0.7620" /> 
</g>
<g style="fill:#000000; fill-opacity:1.0000; stroke:none;">
<circle cx="41.8160" cy="32.0830" r="0.7620" /> 
</g>
<g style="fill:#000000; fill-opacity:1.0000; stroke:none;">
<circle cx="41.8160" cy="29.5430" r="0.7620" /> 
</g>
<g style="fill:#000000; fill-opacity:1.0000; stroke:none;">
<circle cx="50.3600" cy="26.0290" r="0.8000" /> 
</g>
<g style="fill:#000000; fill-opacity:1.0000; stroke:none;">
<circle cx="50.3600" cy="33.6490" r="0.8000" /> 
<path style="fill:#000000; fill-opacity:1.0000; stroke:none;fill-rule:evenodd;"
d="M 68.9900,35.0850
68.9900,36.7850
67.2900,36.7850
67.2900,35.0850
Z" /> 
<circle cx="68.1400" cy="38.4750" r="0.8500" /> 
<circle cx="68.1400" cy="41.0150" r="0.8500" /> 
<path style="fill:#000000; fill-opacity:1.0000; stroke:none;fill-rule:evenodd;"
d="M 84.2300,35.0850
84.2300,36.7850
82.5300,36.7850
82.5300,35.0850
Z" /> 
<circle cx="83.3800" cy="38.4750" r="0.8500" /> 
<circle cx="83.3800" cy="41.0150" r="0.8500" /> 
<path style="fill:#000000; fill-opacity:1.0000; stroke:none;fill-rule:evenodd;"
d="M 74.0700,35.0850
74.0700,36.7850
72.3700,36.7850
72.3700,35.0850
Z" /> 
<circle cx="73.2200" cy="38.4750" r="0.8500" /> 
<circle cx="73.2200" cy="41.0150" r="0.8500" /> 
<circle cx="83.2800" cy="10.6350" r="0.7620" /> 
</g>
<g style="fill:#000000; fill-opacity:1.0000; stroke:none;">
<circle cx="83.2800" cy="13.1750" r="0.7620" /> 
</g>
<g style="fill:#000000; fill-opacity:1.0000; stroke:none;">
<circle cx="83.2800" cy="15.7150" r="0.7620" /> 
</g>
<g style="fill:#000000; fill-opacity:1.0000; stroke:none;">
<circle cx="83.2800" cy="18.2550" r="0.7620" /> 
</g>
<g style="fill:#000000; fill-opacity:1.0000; stroke:none;">
<circle cx="83.2800" cy="20.7950" r="0.7620" /> 
</g>
<g style="fill:#000000; fill-opacity:1.0000; stroke:none;">
<circle cx="83.2800" cy="23.3350" r="0.7620" /> 
</g>
<g style="fill:#000000; fill-opacity:1.0000; stroke:none;">
<circle cx="83.2800" cy="25.8750" r="0.7620" /> 
</g>
<g style="fill:#000000; fill-opacity:1.0000; stroke:none;">
<circle cx="68.0400" cy="10.6350" r="0.7620" /> 
</g>
<g style="fill:#000000; fill-opacity:1.0000; stroke:none;">
<circle cx="68.0400" cy="13.1750" r="0.7620" /> 
</g>
<g style="fill:#000000; fill-opacity:1.0000; stroke:none;">
<circle cx="68.0400" cy="15.7150" r="0.7620" /> 
</g>
<g style="fill:#000000; fill-opacity:1.0000; stroke:none;">
<circle cx="68.0400" cy="18.2550" r="0.7620" /> 
</g>
<g style="fill:#000000; fill-opacity:1.0000; stroke:none;">
<circle cx="68.0400" cy="20.7950" r="0.7620" /> 
</g>
<g style="fill:#000000; fill-opacity:1.0000; stroke:none;">
<circle cx="68.0400" cy="23.3350" r="0.7620" /> 
</g>
<g style="fill:#000000; fill-opacity:1.0000; stroke:none;">
<circle cx="68.0400" cy="25.8750" r="0.7620" /> 
</g>
<g style="fill:#000000; fill-opacity:1.0000; stroke:none;">
<circle cx="50.3600" cy="36.9510" r="0.8000" /> 
</g>
<g style="fill:#000000; fill-opacity:1.0000; stroke:none;">
<circle cx="50.3600" cy="44.5710" r="0.8000" /> 
<path style="fill:#000000; fill-opacity:1.0000; stroke:none;fill-rule:evenodd;"
d="M 49.8600,46.6110
50.8600,46.6110
50.8600,47.6110
49.8600,47.6110
Z" /> 
<circle cx="54.4240" cy="17.4990" r="0.8000" /> 
</g>
<g style="fill:#000000; fill-opacity:1.0000; stroke:none;">
<circle cx="56.9640" cy="17.4990" r="0.8000" /> 
</g>
<g style="fill:#000000; fill-opacity:1.0000; stroke:none;">
<circle cx="59.5040" cy="17.4990" r="0.8000" /> 
</g>
<g style="fill:#000000; fill-opacity:1.0000; stroke:none;">
<circle cx="62.0440" cy="17.4990" r="0.8000" /> 
<path style="fill:#000000; fill-opacity:1.0000; stroke:none;fill-rule:evenodd;"
d="M 50.9610,19.5130
49.2610,19.5130
49.2610,17.8130
50.9610,17.8130
Z" /> 
</g>
<g style="fill:#000000; fill-opacity:1.0000; stroke:none;">
<circle cx="47.5710" cy="18.6630" r="0.8500" /> 
<path style="fill:#000000; fill-opacity:1.0000; stroke:none;fill-rule:evenodd;"
d="M 79.1500,35.0850
79.1500,36.7850
77.4500,36.7850
77.4500,35.0850
Z" /> 
<circle cx="78.3000" cy="38.4750" r="0.8500" /> 
<circle cx="78.3000" cy="41.0150" r="0.8500" /> 
<path style="fill:#000000; fill-opacity:1.0000; stroke:none;fill-rule:evenodd;"
d="M 49.8600,23.2430
50.8600,23.2430
50.8600,24.2430
49.8600,24.2430
Z" /> 
</g>
<g style="fill:none; 
stroke:#000000; stroke-width:0.4000; stroke-opacity:1; 
stroke-linecap:round; stroke-linejoin:round;">
<path d="M87.1900 35.9350
L88.4600 34.6650
" />
<path d="M88.4600 34.6650
L88.4600 11.8050
" />
<path d="M87.2900 10.6350
L83.2800 10.6350
" />
<path d="M88.4600 11.8050
L87.2900 10.6350
" />
<path d="M83.3800 35.9350
L87.1900 35.9350
" />
<path d="M69.2150 15.7150
L68.0400 15.7150
" />
<path d="M68.1400 41.0150
L66.8700 41.0150
" />
<path d="M66.8700 41.0150
L64.3300 38.4750
" />
<path d="M70.6800 17.1800
L69.2150 15.7150
" />
<path d="M64.3300 38.4750
L64.3300 34.6650
" />
<path d="M64.3300 34.6650
L70.6800 28.3150
" />
<path d="M68.1400 41.0150
L83.3800 41.0150
" />
<path d="M70.6800 28.3150
L70.6800 17.1800
" />
<path d="M50.3600 44.5710
L50.3600 47.1110
" />
<path d="M86.5550 14.5450
L86.5550 14.9800
" />
<path d="M86.5550 30.2200
L86.5550 14.9800
" />
<path d="M78.9350 32.7600
L84.0150 32.7600
" />
<path d="M78.3000 35.9350
L78.3000 33.3950
" />
<path d="M84.0150 32.7600
L86.5550 30.2200
" />
<path d="M85.1850 13.1750
L86.5550 14.5450
" />
<path d="M85.1850 13.1750
L83.2800 13.1750
" />
<path d="M78.3000 33.3950
L78.9350 32.7600
" />
<path d="M68.1400 34.6650
L74.4900 28.3150
" />
<path d="M74.4900 28.3150
L74.4900 24.5050
" />
<path d="M74.4900 24.5050
L83.2800 15.7150
" />
<path d="M68.1400 35.9350
L68.1400 34.6650
" />
<path d="M73.2200 33.3950
L79.5700 27.0450
" />
<path d="M79.5700 27.0450
L79.5700 21.9650
" />
<path d="M79.5700 21.9650
L83.2800 18.2550
" />
<path d="M73.2200 35.9350
L73.2200 33.3950
" />
<path d="M60.2600 20.7950
L56.9640 17.4990
" />
<path d="M68.0400 20.7950
L60.2600 20.7950
" />
<path d="M63.7500 15.0000
L67.0050 18.2550
" />
<path d="M54.4240 17.4990
L56.9230 15.0000
" />
<path d="M67.0050 18.2550
L68.0400 18.2550
" />
<path d="M56.9230 15.0000
L63.7500 15.0000
" />
<path d="M46.2420 19.9920
L46.7500 19.9920
" />
<path d="M46.7500 19.9920
L47.0630 19.9920
" />
<path d="M46.8670 19.3670
L47.5710 18.6630
" />
<path d="M47.5710 19.7500
L47.5710 19.5000
" />
<path d="M50.3600 26.0290
L50.3600 23.7430
" />
<path d="M41.8160 39.7030
L40.1580 39.7030
" />
<path d="M47.0000 19.5000
L47.5710 19.5000
" />
<path d="M47.5710 20.9540
L47.5710 20.5000
" />
<path d="M47.5710 20.5000
L47.5710 19.7500
" />
<path d="M46.9920 19.7500
L46.7500 19.9920
" />
<path d="M47.2500 19.7500
L46.9920 19.7500
" />
<path d="M47.2500 20.1790
L47.2500 19.7500
" />
<path d="M46.2420 19.9920
L46.8670 19.3670
" />
<path d="M47.5710 19.5000
L47.5710 18.6630
" />
<path d="M47.0630 19.9920
L47.4105 20.3395
" />
<path d="M47.2500 19.7500
L47.0000 19.5000
" />
<path d="M47.5710 19.7500
L47.2500 19.7500
" />
<path d="M38.9300 38.4750
L38.9300 27.3040
" />
<path d="M40.1580 39.7030
L38.9300 38.4750
" />
<path d="M38.9300 27.3040
L46.2420 19.9920
" />
<path d="M47.4105 20.3395
L47.2500 20.1790
" />
<path d="M47.0000 19.5000
L46.8670 19.3670
" />
<path d="M50.3600 23.7430
L47.5710 20.9540
" />
<path d="M47.4105 20.3395
L47.5710 20.5000
" />
<path d="M50.3600 33.6490
L50.3600 36.9510
" />
<path d="M68.0400 23.3350
L59.1650 23.3350
" />
<path d="M59.1650 23.3350
L52.9000 29.6000
" />
<path d="M52.9000 29.6000
L49.3790 29.6000
" />
<path d="M49.3790 29.6000
L41.8160 37.1630
" />
<path style="fill:#000000; fill-opacity:1.0000; stroke:none;fill-rule:evenodd;"
d="M 63.4341,15.8202
63.4547,15.8368
66.3832,18.7653
66.4792,18.8613
66.4947,18.8768
66.6258,18.9644
66.6258,18.9644
66.6258,18.9644
66.7537,19.0174
66.7537,19.0174
66.7537,19.0174
66.7715,19.0247
66.7715,19.0247
66.7715,19.0247
66.7715,19.0247
66.8861,19.0475
66.9480,19.0799
66.9597,19.0930
66.9611,19.0947
66.9611,19.0947
67.1140,19.2609
67.1140,19.2609
67.1140,19.2609
67.2922,19.3995
67.2922,19.3996
67.3225,19.4159
67.3721,19.4652
67.3872,19.5334
67.3631,19.5989
67.3225,19.6341
67.2922,19.6504
67.2922,19.6505
67.1140,19.7891
67.1140,19.7891
67.1140,19.7891
67.1140,19.7891
66.9764,19.9386
66.9618,19.9545
66.9019,19.9905
66.8706,19.9945
60.6429,19.9945
60.5759,19.9748
60.5553,19.9582
59.6846,19.0875
59.6511,19.0262
59.6561,18.9565
59.6979,18.9005
59.7518,18.8775
59.8490,18.8613
60.0685,18.7859
60.2726,18.6755
60.4558,18.5329
60.6130,18.3622
60.7399,18.1678
60.8332,17.9553
60.8901,17.7303
60.9006,17.6043
60.9093,17.4990
60.9093,17.4990
60.8901,17.2677
60.8901,17.2677
60.8332,17.0427
60.7399,16.8302
60.6130,16.6359
60.6130,16.6358
60.6130,16.6358
60.4558,16.4651
60.4558,16.4651
60.4558,16.4651
60.2726,16.3225
60.2726,16.3225
60.0685,16.2121
60.0685,16.2121
59.8490,16.1367
59.6773,16.1080
59.6200,16.0985
59.3880,16.0985
59.3422,16.1061
59.1590,16.1367
58.9395,16.2121
58.9395,16.2121
58.7354,16.3225
58.7354,16.3225
58.5522,16.4651
58.5522,16.4651
58.3950,16.6359
58.3378,16.7234
58.2847,16.7688
58.2154,16.7782
58.1521,16.7487
58.1302,16.7234
58.0730,16.6359
58.0730,16.6358
58.0730,16.6358
57.9158,16.4651
57.9158,16.4651
57.9158,16.4651
57.7326,16.3225
57.7326,16.3225
57.5285,16.2121
57.5285,16.2121
57.3090,16.1367
57.2324,16.1239
57.2118,16.1205
57.1490,16.0900
57.1125,16.0304
57.1141,15.9606
57.1446,15.9105
57.2183,15.8368
57.2796,15.8033
57.3059,15.8005
63.3671,15.8005
Z" /> 
<path style="fill:#000000; fill-opacity:1.0000; stroke:none;fill-rule:evenodd;"
d="M 93.0044,4.5008
93.2045,4.5151
93.2220,4.5177
93.4138,4.5594
93.4307,4.5643
93.6146,4.6329
93.6307,4.6403
93.8029,4.7343
93.8178,4.7439
93.8178,4.7439
93.9748,4.8615
93.9882,4.8730
94.1269,5.0118
94.1385,5.0251
94.2561,5.1822
94.2657,5.1971
94.3597,5.3693
94.3670,5.3854
94.4356,5.5692
94.4406,5.5862
94.4823,5.7779
94.4848,5.7954
94.4992,5.9962
94.4995,6.0051
94.4995,49.9956
94.4992,50.0044
94.4849,50.2046
94.4823,50.2221
94.4406,50.4138
94.4357,50.4308
94.3671,50.6146
94.3597,50.6307
94.2657,50.8029
94.2561,50.8178
94.1386,50.9749
94.1270,50.9883
93.9882,51.1270
93.9749,51.1386
93.8178,51.2562
93.8029,51.2657
93.6307,51.3598
93.6146,51.3671
93.4308,51.4357
93.4138,51.4407
93.2221,51.4824
93.2045,51.4849
93.0225,51.4979
93.0051,51.4992
92.9962,51.4995
31.0745,51.4995
31.0745,51.4995
31.0659,51.4995
31.0582,51.4995
31.0044,51.4995
30.9956,51.4992
30.7954,51.4849
30.7779,51.4824
30.5862,51.4406
30.5692,51.4357
30.3854,51.3671
30.3693,51.3597
30.1971,51.2657
30.1822,51.2562
30.0251,51.1386
30.0117,51.1270
29.8730,50.9882
29.8614,50.9749
29.7438,50.8178
29.7343,50.8029
29.6402,50.6307
29.6329,50.6146
29.5643,50.4308
29.5593,50.4138
29.5176,50.2221
29.5151,50.2046
29.5008,50.0051
29.5005,49.9962
29.5005,48.1475
88.7495,48.1475
88.7816,48.3911
88.7880,48.4400
88.7880,48.4400
88.8644,48.7250
88.8644,48.7250
88.9773,48.9975
88.9773,48.9975
89.1248,49.2530
89.3044,49.4870
89.3044,49.4870
89.5130,49.6956
89.5130,49.6956
89.7470,49.8752
90.0025,50.0227
90.0025,50.0227
90.0025,50.0227
90.2750,50.1356
90.5600,50.2120
90.8525,50.2505
90.8525,50.2505
91.1475,50.2505
91.1475,50.2505
91.4400,50.2120
91.7250,50.1356
91.9975,50.0227
92.2530,49.8752
92.4870,49.6956
92.6956,49.4870
92.8752,49.2530
93.0227,48.9975
93.1356,48.7250
93.2120,48.4400
93.2505,48.1475
93.2505,47.8525
93.2120,47.5600
93.1356,47.2750
93.0227,47.0025
92.8752,46.7470
92.6956,46.5130
92.6956,46.5130
92.4870,46.3044
92.4870,46.3044
92.2530,46.1248
91.9975,45.9773
91.9975,45.9773
91.7250,45.8644
91.7250,45.8644
91.7250,45.8644
91.4400,45.7880
91.3911,45.7816
91.1475,45.7495
91.1475,45.7495
90.8525,45.7495
90.8525,45.7495
90.5741,45.7862
90.5600,45.7880
90.2750,45.8644
90.2750,45.8644
90.0025,45.9773
90.0025,45.9773
89.7470,46.1248
89.5130,46.3044
89.5130,46.3044
89.3044,46.5130
89.3044,46.5130
89.1248,46.7470
88.9773,47.0025
88.9773,47.0025
88.8644,47.2750
88.8644,47.2750
88.7880,47.5600
88.7880,47.5600
88.7495,47.8525
88.7495,48.1475
29.5005,48.1475
29.5005,38.5538
38.1295,38.5538
38.1603,38.7085
38.1603,38.7085
38.2206,38.8542
38.2206,38.8542
38.3082,38.9853
38.3082,38.9853
39.5362,40.2133
39.6452,40.3223
39.6477,40.3248
39.7788,40.4124
39.7788,40.4124
39.7788,40.4124
39.9067,40.4654
39.9067,40.4654
39.9067,40.4654
39.9245,40.4727
39.9245,40.4727
39.9245,40.4727
39.9245,40.4727
40.0792,40.5035
40.0792,40.5035
40.0792,40.5035
40.6466,40.5035
40.7136,40.5232
40.7378,40.5435
40.8900,40.7089
40.8900,40.7089
40.8900,40.7089
41.0682,40.8475
41.0682,40.8475
41.0682,40.8475
41.2668,40.9550
41.4804,41.0283
41.7031,41.0655
41.9289,41.0655
42.1516,41.0283
42.3652,40.9550
42.5638,40.8475
42.7420,40.7089
42.8949,40.5427
43.0184,40.3537
43.1091,40.1469
43.1645,39.9280
43.1754,39.7965
43.1832,39.7030
43.1832,39.7030
43.1645,39.4780
43.1645,39.4780
43.1645,39.4780
43.1091,39.2591
43.0184,39.0523
42.8949,38.8633
42.7420,38.6971
42.7420,38.6971
42.7420,38.6971
42.5638,38.5585
42.5638,38.5584
42.5335,38.5421
42.4839,38.4928
42.4688,38.4246
42.4929,38.3591
42.5335,38.3239
42.5360,38.3226
42.5638,38.3075
42.7420,38.1689
42.8949,38.0027
43.0184,37.8137
43.1091,37.6069
43.1645,37.3880
43.1832,37.1630
43.1699,37.0032
43.1807,36.9510
48.9547,36.9510
48.9739,37.1823
48.9739,37.1823
49.0308,37.4073
49.1241,37.6198
49.2510,37.8141
49.2510,37.8142
49.2510,37.8142
49.4082,37.9849
49.4082,37.9849
49.4082,37.9849
49.5914,38.1275
49.5914,38.1275
49.5914,38.1275
49.7955,38.2379
49.9095,38.2771
50.0150,38.3133
50.0150,38.3133
50.0150,38.3133
50.2440,38.3515
50.2440,38.3515
50.4760,38.3515
50.4760,38.3515
50.7050,38.3133
50.9245,38.2379
51.1286,38.1275
51.3118,37.9849
51.4690,37.8142
51.5959,37.6198
51.6892,37.4073
51.7461,37.1823
51.7477,37.1630
51.7653,36.9510
51.7653,36.9510
51.7461,36.7197
51.7461,36.7197
51.6892,36.4947
51.5959,36.2822
51.4690,36.0879
51.4690,36.0878
51.4690,36.0878
51.3118,35.9171
51.3118,35.9171
51.3118,35.9171
51.2083,35.8366
51.1675,35.7799
51.1605,35.7387
51.1605,34.8613
51.1802,34.7942
51.2083,34.7634
51.3118,34.6829
51.4690,34.5122
51.5959,34.3178
51.6892,34.1053
51.7461,33.8803
51.7461,33.8803
51.7653,33.6490
51.7653,33.6490
51.7461,33.4177
51.7461,33.4177
51.6892,33.1927
51.5959,32.9802
51.4690,32.7859
51.4690,32.7858
51.4690,32.7858
51.3118,32.6151
51.3118,32.6151
51.3118,32.6151
51.1286,32.4725
51.1286,32.4725
50.9245,32.3621
50.9245,32.3621
50.7050,32.2867
50.5333,32.2580
50.4760,32.2485
50.2440,32.2485
50.1982,32.2561
50.0150,32.2867
49.7955,32.3621
49.7955,32.3621
49.5914,32.4725
49.5914,32.4725
49.4082,32.6151
49.4082,32.6151
49.2510,32.7859
49.1241,32.9802
49.0308,33.1927
48.9739,33.4177
48.9739,33.4177
48.9547,33.6490
48.9547,33.6490
48.9739,33.8803
48.9739,33.8803
49.0308,34.1053
49.1241,34.3178
49.2510,34.5121
49.2510,34.5122
49.2510,34.5122
49.4082,34.6829
49.5117,34.7634
49.5525,34.8201
49.5595,34.8613
49.5595,35.7387
49.5398,35.8058
49.5117,35.8366
49.4082,35.9171
49.4082,35.9171
49.2510,36.0879
49.1241,36.2822
49.0308,36.4947
48.9739,36.7197
48.9739,36.7197
48.9547,36.9510
48.9547,36.9510
43.1807,36.9510
43.1840,36.9347
43.2058,36.9053
49.6743,30.4368
49.7356,30.4033
49.7619,30.4005
52.9788,30.4005
52.9788,30.4005
53.1335,30.3697
53.2792,30.3094
53.4103,30.2218
59.4603,24.1718
59.5216,24.1383
59.5479,24.1355
66.8706,24.1355
66.9376,24.1552
66.9618,24.1755
67.1140,24.3409
67.1140,24.3409
67.1140,24.3409
67.2922,24.4795
67.2922,24.4796
67.3225,24.4959
67.3721,24.5452
67.3872,24.6134
67.3631,24.6789
67.3225,24.7141
67.2922,24.7304
67.2922,24.7305
67.1140,24.8691
67.1140,24.8691
67.1140,24.8691
67.1140,24.8691
67.0742,24.9124
66.9611,25.0353
66.8376,25.2243
66.7469,25.4311
66.6915,25.6500
66.6915,25.6500
66.6728,25.8750
66.6728,25.8750
66.6915,26.1000
66.6915,26.1000
66.7321,26.2603
66.7469,26.3189
66.8376,26.5257
66.9611,26.7147
67.1140,26.8809
67.1140,26.8809
67.1140,26.8809
67.2922,27.0195
67.2922,27.0195
67.2922,27.0195
67.4908,27.1270
67.7044,27.2003
67.9271,27.2375
68.1529,27.2375
68.3756,27.2003
68.5892,27.1270
68.7878,27.0195
68.9660,26.8809
69.1189,26.7147
69.2424,26.5257
69.3331,26.3189
69.3885,26.1000
69.3944,26.0290
69.4072,25.8750
69.4072,25.8750
69.3885,25.6500
69.3885,25.6500
69.3885,25.6500
69.3331,25.4311
69.2424,25.2243
69.1189,25.0353
68.9660,24.8691
68.9660,24.8691
68.9660,24.8691
68.7878,24.7305
68.7878,24.7304
68.7575,24.7141
68.7079,24.6648
68.6928,24.5966
68.7169,24.5311
68.7575,24.4959
68.7600,24.4946
68.7878,24.4795
68.9660,24.3409
69.1189,24.1747
69.2424,23.9857
69.3331,23.7789
69.3885,23.5600
69.4072,23.3350
69.4072,23.3350
69.3885,23.1100
69.3885,23.1100
69.3885,23.1100
69.3331,22.8911
69.2424,22.6843
69.1189,22.4953
68.9660,22.3291
68.9660,22.3291
68.9660,22.3291
68.7878,22.1905
68.7878,22.1904
68.7575,22.1741
68.7079,22.1248
68.6928,22.0566
68.7169,21.9911
68.7575,21.9559
68.7600,21.9546
68.7878,21.9395
68.9660,21.8009
69.1189,21.6347
69.2424,21.4457
69.3331,21.2389
69.3885,21.0200
69.3889,21.0150
69.4072,20.7950
69.4072,20.7950
69.3885,20.5700
69.3885,20.5700
69.3885,20.5700
69.3331,20.3511
69.2424,20.1443
69.1189,19.9553
68.9660,19.7891
68.9660,19.7891
68.9660,19.7891
68.7878,19.6505
68.7878,19.6504
68.7575,19.6341
68.7079,19.5848
68.6928,19.5166
68.7169,19.4511
68.7575,19.4159
68.7600,19.4146
68.7878,19.3995
68.9660,19.2609
69.1189,19.0947
69.2424,18.9057
69.3331,18.6989
69.3885,18.4800
69.3932,18.4234
69.4072,18.2550
69.4072,18.2550
69.3885,18.0300
69.3885,18.0300
69.3885,18.0300
69.3331,17.8111
69.2424,17.6043
69.1189,17.4153
68.9660,17.2491
68.9660,17.2491
68.9660,17.2491
68.7878,17.1105
68.7878,17.1104
68.7575,17.0941
68.7079,17.0448
68.6928,16.9766
68.7169,16.9111
68.7575,16.8759
68.7600,16.8746
68.7878,16.8595
68.9486,16.7344
69.0136,16.7087
69.0821,16.7223
69.1125,16.7445
69.8432,17.4753
69.8767,17.5366
69.8795,17.5629
69.8795,27.9321
69.8598,27.9991
69.8432,28.0197
63.8197,34.0432
63.7640,34.0990
63.7082,34.1547
63.6206,34.2858
63.6206,34.2858
63.5603,34.4315
63.5603,34.4315
63.5295,34.5862
63.5295,38.5538
63.5603,38.7085
63.5603,38.7085
63.6206,38.8542
63.6206,38.8542
63.7082,38.9853
63.7082,38.9853
66.2482,41.5253
66.3597,41.6368
66.3597,41.6368
66.4659,41.7077
66.4908,41.7244
66.5938,41.7671
66.6365,41.7847
66.7912,41.8155
66.7912,41.8155
66.7912,41.8155
66.7912,41.8155
66.8633,41.8155
66.9303,41.8352
66.9671,41.8717
66.9914,41.9090
67.1542,42.0858
67.1542,42.0858
67.1542,42.0858
67.3439,42.2335
67.3439,42.2335
67.3439,42.2335
67.5553,42.3479
67.5553,42.3479
67.7827,42.4259
67.7827,42.4259
67.7827,42.4259
68.0198,42.4655
68.0198,42.4655
68.2602,42.4655
68.2602,42.4655
68.4973,42.4259
68.7247,42.3479
68.9361,42.2335
69.1258,42.0858
69.2886,41.9090
69.3129,41.8717
69.3661,41.8263
69.4167,41.8155
71.9433,41.8155
72.0103,41.8352
72.0471,41.8717
72.0714,41.9090
72.2342,42.0858
72.2342,42.0858
72.2342,42.0858
72.4239,42.2335
72.4239,42.2335
72.4239,42.2335
72.6353,42.3479
72.6353,42.3479
72.8627,42.4259
72.8627,42.4259
72.8627,42.4259
73.0998,42.4655
73.0998,42.4655
73.3402,42.4655
73.3402,42.4655
73.5773,42.4259
73.8047,42.3479
74.0161,42.2335
74.2058,42.0858
74.3686,41.9090
74.3929,41.8717
74.4461,41.8263
74.4967,41.8155
77.0233,41.8155
77.0903,41.8352
77.1271,41.8717
77.1514,41.9090
77.3142,42.0858
77.3142,42.0858
77.3142,42.0858
77.5039,42.2335
77.5039,42.2335
77.5039,42.2335
77.7153,42.3479
77.7153,42.3479
77.9427,42.4259
77.9427,42.4259
77.9427,42.4259
78.1798,42.4655
78.1798,42.4655
78.4202,42.4655
78.4202,42.4655
78.6573,42.4259
78.8847,42.3479
79.0961,42.2335
79.2858,42.0858
79.4486,41.9090
79.4729,41.8717
79.5261,41.8263
79.5767,41.8155
82.1033,41.8155
82.1703,41.8352
82.2071,41.8717
82.2314,41.9090
82.3942,42.0858
82.3942,42.0858
82.3942,42.0858
82.5839,42.2335
82.5839,42.2335
82.5839,42.2335
82.7953,42.3479
82.7953,42.3479
83.0227,42.4259
83.0227,42.4259
83.0227,42.4259
83.2598,42.4655
83.2598,42.4655
83.5002,42.4655
83.5002,42.4655
83.7373,42.4259
83.9647,42.3479
84.1761,42.2335
84.3658,42.0858
84.5286,41.9090
84.6600,41.7077
84.7566,41.4876
84.8156,41.2546
84.8244,41.1481
84.8355,41.0150
84.8355,41.0150
84.8156,40.7754
84.8156,40.7754
84.7566,40.5424
84.6600,40.3223
84.5286,40.1210
84.3658,39.9442
84.3658,39.9442
84.3658,39.9442
84.1761,39.7965
84.1761,39.7965
83.9647,39.6821
83.9647,39.6821
83.7373,39.6041
83.5595,39.5744
83.5002,39.5645
83.2598,39.5645
83.2124,39.5724
83.0227,39.6041
82.7953,39.6821
82.7953,39.6821
82.5839,39.7965
82.5839,39.7965
82.3942,39.9442
82.3942,39.9442
82.3942,39.9442
82.3942,39.9442
82.2314,40.1210
82.2145,40.1469
82.2071,40.1583
82.1539,40.2037
82.1033,40.2145
79.5767,40.2145
79.5097,40.1948
79.4729,40.1583
79.4655,40.1469
79.4486,40.1210
79.2858,39.9442
79.2858,39.9442
79.2858,39.9442
79.0961,39.7965
79.0961,39.7965
78.8847,39.6821
78.8847,39.6821
78.6573,39.6041
78.4795,39.5744
78.4202,39.5645
78.1798,39.5645
78.1324,39.5724
77.9427,39.6041
77.7153,39.6821
77.7153,39.6821
77.5039,39.7965
77.5039,39.7965
77.3142,39.9442
77.3142,39.9442
77.3142,39.9442
77.3142,39.9442
77.1514,40.1210
77.1345,40.1469
77.1271,40.1583
77.0739,40.2037
77.0233,40.2145
74.4967,40.2145
74.4297,40.1948
74.3929,40.1583
74.3855,40.1469
74.3686,40.1210
74.2058,39.9442
74.2058,39.9442
74.2058,39.9442
74.0161,39.7965
74.0161,39.7965
73.8047,39.6821
73.8047,39.6821
73.5773,39.6041
73.3995,39.5744
73.3402,39.5645
73.0998,39.5645
73.0524,39.5724
72.8627,39.6041
72.6353,39.6821
72.6353,39.6821
72.4239,39.7965
72.4239,39.7965
72.2342,39.9442
72.2342,39.9442
72.2342,39.9442
72.2342,39.9442
72.0714,40.1210
72.0545,40.1469
72.0471,40.1583
71.9939,40.2037
71.9433,40.2145
69.4167,40.2145
69.3497,40.1948
69.3129,40.1583
69.3055,40.1469
69.2886,40.1210
69.1258,39.9442
69.1258,39.9442
69.1258,39.9442
68.9361,39.7965
68.9361,39.7965
68.7247,39.6821
68.7247,39.6821
68.4973,39.6041
68.3195,39.5744
68.2602,39.5645
68.0198,39.5645
67.9724,39.5724
67.7827,39.6041
67.5553,39.6821
67.5553,39.6821
67.3439,39.7965
67.1542,39.9442
67.1542,39.9442
67.1349,39.9652
67.0750,40.0012
67.0052,39.9991
66.9560,39.9689
65.1668,38.1797
65.1333,38.1184
65.1305,38.0921
65.1305,36.8244
66.6895,36.8244
66.7050,36.9418
66.7050,36.9418
66.7050,36.9418
66.7655,37.0878
66.8617,37.2133
66.9872,37.3095
67.1332,37.3700
67.2506,37.3855
69.0294,37.3855
69.0294,37.3855
69.1468,37.3700
69.1468,37.3700
69.1468,37.3700
69.2928,37.3095
69.4183,37.2133
69.5145,37.0878
69.5750,36.9418
69.5905,36.8244
69.5905,35.0456
69.5905,35.0456
69.5905,35.0456
69.5750,34.9282
69.5750,34.9282
69.5750,34.9282
69.5145,34.7822
69.4246,34.6649
69.3994,34.5998
69.4134,34.5313
69.4353,34.5018
75.1118,28.8253
75.1994,28.6942
75.2597,28.5485
75.2905,28.3938
75.2905,24.8879
75.3102,24.8209
75.3268,24.8003
78.6456,21.4815
78.7069,21.4480
78.7766,21.4530
78.8326,21.4948
78.8570,21.5603
78.8479,21.6166
78.8003,21.7315
78.8003,21.7315
78.7695,21.8862
78.7695,26.6621
78.7498,26.7291
78.7332,26.7497
72.7097,32.7732
72.6540,32.8290
72.5982,32.8847
72.5106,33.0158
72.5106,33.0158
72.4503,33.1615
72.4503,33.1615
72.4195,33.3162
72.4195,34.3641
72.3998,34.4311
72.3470,34.4769
72.3117,34.4870
72.2132,34.5000
72.2132,34.5000
72.0672,34.5605
71.9417,34.6567
71.8455,34.7822
71.7850,34.9282
71.7850,34.9282
71.7720,35.0267
71.7695,35.0456
71.7695,35.0456
71.7695,36.8244
71.7850,36.9418
71.7850,36.9418
71.7850,36.9418
71.8455,37.0878
71.9417,37.2133
72.0672,37.3095
72.2132,37.3700
72.3306,37.3855
74.1094,37.3855
74.1094,37.3855
74.2268,37.3700
74.2268,37.3700
74.2268,37.3700
74.3728,37.3095
74.4983,37.2133
74.5945,37.0878
74.6550,36.9418
74.6705,36.8244
74.6705,35.0456
74.6705,35.0456
74.6705,35.0456
74.6550,34.9282
74.6550,34.9282
74.6550,34.9282
74.5945,34.7822
74.4983,34.6567
74.3728,34.5605
74.2268,34.5000
74.1862,34.4946
74.1283,34.4870
74.0644,34.4587
74.0259,34.4004
74.0205,34.3641
74.0205,33.7779
74.0402,33.7109
74.0568,33.6903
80.1918,27.5553
80.1918,27.5553
80.2190,27.5145
80.2794,27.4242
80.3397,27.2785
80.3705,27.1238
80.3705,22.3479
80.3902,22.2809
80.4068,22.2603
81.7205,20.9465
81.7819,20.9130
81.8516,20.9180
81.9075,20.9599
81.9285,21.0153
81.9306,21.0150
81.9315,21.0200
81.9869,21.2389
82.0649,21.4168
82.0776,21.4457
82.1160,21.5044
82.1893,21.6166
82.2011,21.6347
82.3540,21.8009
82.3540,21.8009
82.3540,21.8009
82.5322,21.9395
82.5322,21.9396
82.5625,21.9559
82.6121,22.0052
82.6272,22.0734
82.6031,22.1389
82.5625,22.1741
82.5322,22.1904
82.5322,22.1905
82.3540,22.3291
82.3540,22.3291
82.2011,22.4953
82.0776,22.6843
81.9869,22.8911
81.9315,23.1100
81.9315,23.1100
81.9128,23.3350
81.9128,23.3350
81.9315,23.5600
81.9315,23.5600
81.9869,23.7789
82.0327,23.8832
82.0776,23.9857
82.1534,24.1016
82.1883,24.1552
82.2011,24.1747
82.3540,24.3409
82.3540,24.3409
82.3540,24.3409
82.5322,24.4795
82.5322,24.4796
82.5625,24.4959
82.6121,24.5452
82.6272,24.6134
82.6031,24.6789
82.5625,24.7141
82.5322,24.7304
82.5322,24.7305
82.3540,24.8691
82.3540,24.8691
82.3540,24.8691
82.3540,24.8691
82.3142,24.9124
82.2011,25.0353
82.0776,25.2243
81.9869,25.4311
81.9315,25.6500
81.9315,25.6500
81.9128,25.8750
81.9128,25.8750
81.9315,26.1000
81.9315,26.1000
81.9721,26.2603
81.9869,26.3189
82.0776,26.5257
82.2011,26.7147
82.3540,26.8809
82.3540,26.8809
82.3540,26.8809
82.5322,27.0195
82.5322,27.0195
82.5322,27.0195
82.7308,27.1270
82.9444,27.2003
83.1671,27.2375
83.3929,27.2375
83.6156,27.2003
83.8292,27.1270
84.0278,27.0195
84.2060,26.8809
84.3589,26.7147
84.4824,26.5257
84.5731,26.3189
84.6285,26.1000
84.6344,26.0290
84.6472,25.8750
84.6472,25.8750
84.6285,25.6500
84.6285,25.6500
84.6285,25.6500
84.5731,25.4311
84.4824,25.2243
84.3589,25.0353
84.2060,24.8691
84.2060,24.8691
84.2060,24.8691
84.0278,24.7305
84.0278,24.7304
83.9975,24.7141
83.9479,24.6648
83.9328,24.5966
83.9569,24.5311
83.9975,24.4959
84.0000,24.4946
84.0278,24.4795
84.2060,24.3409
84.3589,24.1747
84.4824,23.9857
84.5731,23.7789
84.6285,23.5600
84.6472,23.3350
84.6472,23.3350
84.6285,23.1100
84.6285,23.1100
84.6285,23.1100
84.5731,22.8911
84.4824,22.6843
84.3589,22.4953
84.2060,22.3291
84.2060,22.3291
84.2060,22.3291
84.0278,22.1905
84.0278,22.1904
83.9975,22.1741
83.9479,22.1248
83.9328,22.0566
83.9569,21.9911
83.9975,21.9559
84.0000,21.9546
84.0278,21.9395
84.2060,21.8009
84.3589,21.6347
84.4824,21.4457
84.5731,21.2389
84.6285,21.0200
84.6289,21.0150
84.6472,20.7950
84.6472,20.7950
84.6285,20.5700
84.6285,20.5700
84.6285,20.5700
84.5731,20.3511
84.4824,20.1443
84.3589,19.9553
84.2060,19.7891
84.2060,19.7891
84.2060,19.7891
84.0278,19.6505
84.0278,19.6504
83.9975,19.6341
83.9479,19.5848
83.9328,19.5166
83.9569,19.4511
83.9975,19.4159
84.0000,19.4146
84.0278,19.3995
84.2060,19.2609
84.3589,19.0947
84.4824,18.9057
84.5731,18.6989
84.6285,18.4800
84.6332,18.4234
84.6472,18.2550
84.6472,18.2550
84.6285,18.0300
84.6285,18.0300
84.6285,18.0300
84.5731,17.8111
84.4824,17.6043
84.3589,17.4153
84.2060,17.2491
84.2060,17.2491
84.2060,17.2491
84.0278,17.1105
84.0278,17.1104
83.9975,17.0941
83.9479,17.0448
83.9328,16.9766
83.9569,16.9111
83.9975,16.8759
84.0000,16.8746
84.0278,16.8595
84.2060,16.7209
84.3589,16.5547
84.4824,16.3657
84.5731,16.1589
84.6285,15.9400
84.6371,15.8368
84.6472,15.7150
84.6472,15.7150
84.6285,15.4900
84.6285,15.4900
84.6285,15.4900
84.5731,15.2711
84.4824,15.0643
84.3589,14.8753
84.2060,14.7091
84.2060,14.7091
84.2060,14.7091
84.0278,14.5705
84.0278,14.5704
83.9975,14.5541
83.9479,14.5048
83.9328,14.4366
83.9569,14.3711
83.9975,14.3359
84.0000,14.3346
84.0278,14.3195
84.2060,14.1809
84.3582,14.0155
84.4181,13.9795
84.4494,13.9755
84.8021,13.9755
84.8691,13.9952
84.8897,14.0118
85.7182,14.8403
85.7517,14.9016
85.7545,14.9279
85.7545,29.8371
85.7348,29.9041
85.7182,29.9247
83.7197,31.9232
83.6584,31.9567
83.6321,31.9595
78.8562,31.9595
78.7015,31.9903
78.7015,31.9903
78.5558,32.0506
78.5558,32.0506
78.4247,32.1382
78.4247,32.1382
77.9478,32.6151
77.7897,32.7732
77.7340,32.8290
77.6782,32.8847
77.5906,33.0158
77.5906,33.0158
77.5303,33.1615
77.5303,33.1615
77.4995,33.3162
77.4995,34.3641
77.4798,34.4311
77.4270,34.4769
77.3917,34.4870
77.2932,34.5000
77.2932,34.5000
77.1472,34.5605
77.0217,34.6567
76.9255,34.7822
76.8650,34.9282
76.8650,34.9282
76.8520,35.0267
76.8495,35.0456
76.8495,35.0456
76.8495,36.8244
76.8650,36.9418
76.8650,36.9418
76.8650,36.9418
76.9255,37.0878
77.0217,37.2133
77.1472,37.3095
77.2932,37.3700
77.4106,37.3855
79.1894,37.3855
79.1894,37.3855
79.3068,37.3700
79.3068,37.3700
79.3068,37.3700
79.4528,37.3095
79.5783,37.2133
79.6745,37.0878
79.7350,36.9418
79.7505,36.8244
79.7505,35.0456
79.7505,35.0456
79.7505,35.0456
79.7350,34.9282
79.7350,34.9282
79.7350,34.9282
79.6745,34.7822
79.5783,34.6567
79.4528,34.5605
79.3068,34.5000
79.2662,34.4946
79.2083,34.4870
79.1444,34.4587
79.1059,34.4004
79.1005,34.3641
79.1005,33.7779
79.1202,33.7109
79.1368,33.6903
79.2303,33.5968
79.2916,33.5633
79.3179,33.5605
84.0938,33.5605
84.0938,33.5605
84.2485,33.5297
84.3942,33.4694
84.5253,33.3818
87.1768,30.7303
87.1768,30.7303
87.2644,30.5992
87.2852,30.5489
87.3071,30.4962
87.3071,30.4962
87.3247,30.4535
87.3247,30.4535
87.3555,30.2988
87.3555,30.2988
87.3555,14.4662
87.3477,14.4270
87.3477,14.4270
87.3263,14.3196
87.3247,14.3115
87.2644,14.1658
87.2644,14.1658
87.2644,14.1658
87.1768,14.0347
87.1768,14.0347
85.6953,12.5532
85.6953,12.5532
85.5642,12.4656
85.5642,12.4656
85.4185,12.4053
85.4185,12.4053
85.2638,12.3745
85.2638,12.3745
84.4494,12.3745
84.3824,12.3548
84.3582,12.3345
84.2060,12.1691
84.2060,12.1691
84.2060,12.1691
84.0278,12.0305
84.0278,12.0304
83.9975,12.0141
83.9479,11.9648
83.9328,11.8966
83.9569,11.8311
83.9975,11.7959
84.0000,11.7946
84.0278,11.7795
84.2060,11.6409
84.3582,11.4755
84.4181,11.4395
84.4494,11.4355
86.9071,11.4355
86.9741,11.4552
86.9947,11.4718
87.6232,12.1003
87.6567,12.1616
87.6595,12.1879
87.6595,34.2821
87.6398,34.3491
87.6232,34.3697
86.8947,35.0982
86.8334,35.1317
86.8071,35.1345
84.9509,35.1345
84.8839,35.1148
84.8381,35.0620
84.8280,35.0267
84.8150,34.9282
84.8150,34.9282
84.8150,34.9282
84.7545,34.7822
84.6583,34.6567
84.5328,34.5605
84.4625,34.5313
84.3868,34.5000
84.3868,34.5000
84.2694,34.4845
84.2694,34.4845
84.2694,34.4845
84.2694,34.4845
82.4906,34.4845
82.3732,34.5000
82.3732,34.5000
82.2272,34.5605
82.1017,34.6567
82.0055,34.7822
81.9450,34.9282
81.9450,34.9282
81.9320,35.0267
81.9295,35.0456
81.9295,35.0456
81.9295,36.8244
81.9450,36.9418
81.9450,36.9418
81.9450,36.9418
82.0055,37.0878
82.1017,37.2133
82.2272,37.3095
82.3732,37.3700
82.4906,37.3855
84.2694,37.3855
84.2694,37.3855
84.3868,37.3700
84.3868,37.3700
84.3868,37.3700
84.5328,37.3095
84.6583,37.2133
84.7545,37.0878
84.8150,36.9418
84.8280,36.8433
84.8563,36.7794
84.9146,36.7409
84.9509,36.7355
87.2688,36.7355
87.2688,36.7355
87.4235,36.7047
87.5692,36.6444
87.7003,36.5568
89.0818,35.1753
89.1090,35.1345
89.1694,35.0442
89.2297,34.8985
89.2605,34.7438
89.2605,11.7262
89.2605,11.7262
89.2605,11.7262
89.2297,11.5715
89.2297,11.5715
89.1897,11.4747
89.1694,11.4258
89.1694,11.4258
89.0818,11.2947
89.0728,11.2857
88.9703,11.1832
88.4221,10.6350
87.8003,10.0132
87.8003,10.0132
87.6692,9.9256
87.6692,9.9256
87.5235,9.8653
87.5235,9.8653
87.3688,9.8345
87.3688,9.8345
84.4494,9.8345
84.3824,9.8148
84.3582,9.7945
84.2060,9.6291
84.2060,9.6291
84.2060,9.6291
84.0278,9.4905
84.0278,9.4905
83.8292,9.3830
83.8292,9.3830
83.6156,9.3097
83.3929,9.2725
83.1671,9.2725
82.9444,9.3097
82.7308,9.3830
82.7308,9.3830
82.5322,9.4905
82.5322,9.4905
82.3540,9.6291
82.3540,9.6291
82.2011,9.7953
82.0776,9.9843
81.9869,10.1911
81.9315,10.4100
81.9315,10.4100
81.9128,10.6350
81.9128,10.6350
81.9315,10.8600
81.9315,10.8600
81.9869,11.0789
82.0327,11.1832
82.0776,11.2857
82.1534,11.4016
82.1883,11.4552
82.2011,11.4747
82.3540,11.6409
82.3540,11.6409
82.3540,11.6409
82.5322,11.7795
82.5322,11.7796
82.5625,11.7959
82.6121,11.8452
82.6272,11.9134
82.6031,11.9789
82.5625,12.0141
82.5322,12.0304
82.5322,12.0305
82.3540,12.1691
82.3540,12.1691
82.3540,12.1691
82.3540,12.1691
82.2776,12.2522
82.2011,12.3353
82.0776,12.5243
81.9869,12.7311
81.9315,12.9500
81.9315,12.9500
81.9128,13.1750
81.9128,13.1750
81.9315,13.4000
81.9315,13.4000
81.9869,13.6189
82.0776,13.8257
82.1534,13.9416
82.1883,13.9952
82.2011,14.0147
82.3540,14.1809
82.3540,14.1809
82.3540,14.1809
82.5322,14.3195
82.5322,14.3196
82.5625,14.3359
82.6121,14.3852
82.6272,14.4534
82.6031,14.5189
82.5625,14.5541
82.5322,14.5704
82.5322,14.5705
82.3540,14.7091
82.3540,14.7091
82.2011,14.8753
82.0776,15.0643
81.9869,15.2711
81.9315,15.4900
81.9315,15.4900
81.9128,15.7150
81.9128,15.7150
81.9128,15.7150
81.9215,15.8202
81.9261,15.8748
81.9120,15.9433
81.8902,15.9727
75.9234,21.9395
73.9797,23.8832
73.9240,23.9390
73.8682,23.9947
73.7806,24.1258
73.7806,24.1258
73.7203,24.2715
73.7203,24.2715
73.6895,24.4262
73.6895,27.9321
73.6698,27.9991
73.6532,28.0197
67.6297,34.0432
67.5740,34.0990
67.5182,34.1547
67.4306,34.2858
67.4306,34.2858
67.3800,34.4080
67.3362,34.4624
67.2699,34.4844
67.2655,34.4845
67.2506,34.4845
67.1332,34.5000
67.1332,34.5000
66.9872,34.5605
66.8617,34.6567
66.7655,34.7822
66.7050,34.9282
66.7050,34.9282
66.6920,35.0267
66.6895,35.0456
66.6895,35.0456
66.6895,36.8244
65.1305,36.8244
65.1305,35.0479
65.1502,34.9809
65.1668,34.9603
71.3018,28.8253
71.3018,28.8253
71.3018,28.8253
71.3894,28.6942
71.4497,28.5485
71.4805,28.3938
71.4805,17.1012
71.4805,17.1012
71.4805,17.1012
71.4591,16.9934
71.4497,16.9465
71.4409,16.9252
71.3894,16.8008
71.3894,16.8008
71.3018,16.6697
71.2679,16.6358
71.1903,16.5582
70.4689,15.8368
69.7253,15.0932
69.7253,15.0932
69.5942,15.0056
69.5942,15.0056
69.4485,14.9453
69.4485,14.9453
69.2938,14.9145
69.2938,14.9145
69.2094,14.9145
69.1424,14.8948
69.1182,14.8745
69.0867,14.8403
68.9660,14.7091
68.9660,14.7091
68.9660,14.7091
68.7878,14.5705
68.7878,14.5705
68.5892,14.4630
68.5892,14.4630
68.3756,14.3897
68.1529,14.3525
67.9271,14.3525
67.7044,14.3897
67.4908,14.4630
67.4908,14.4630
67.2922,14.5705
67.2922,14.5705
67.1140,14.7091
67.1140,14.7091
66.9611,14.8753
66.8376,15.0643
66.7469,15.2711
66.6915,15.4900
66.6915,15.4900
66.6728,15.7150
66.6728,15.7150
66.6915,15.9400
66.6915,15.9400
66.7469,16.1589
66.8376,16.3657
66.8376,16.3657
66.9611,16.5547
67.1140,16.7209
67.1140,16.7209
67.1140,16.7209
67.2922,16.8595
67.2922,16.8596
67.3225,16.8759
67.3721,16.9252
67.3872,16.9934
67.3631,17.0589
67.3225,17.0941
67.2922,17.1104
67.2922,17.1105
67.2101,17.1744
67.1451,17.2000
67.0766,17.1864
67.0463,17.1642
64.2603,14.3782
64.2603,14.3782
64.1292,14.2906
64.1292,14.2906
63.9835,14.2303
63.9835,14.2303
63.8288,14.1995
63.8288,14.1995
57.0018,14.1995
56.8442,14.1995
56.8442,14.1995
56.6895,14.2303
56.6895,14.2303
56.5438,14.2906
56.5438,14.2906
56.4127,14.3782
56.4127,14.3782
54.7158,16.0752
54.6544,16.1086
54.6077,16.1098
54.5400,16.0985
54.3080,16.0985
54.2622,16.1061
54.0790,16.1367
53.8595,16.2121
53.8595,16.2121
53.6554,16.3225
53.6554,16.3225
53.4722,16.4651
53.4722,16.4651
53.3150,16.6359
53.1881,16.8302
53.0948,17.0427
53.0379,17.2677
53.0379,17.2677
53.0187,17.4990
53.0187,17.4990
53.0379,17.7303
53.0379,17.7303
53.0948,17.9553
53.1881,18.1678
53.3150,18.3621
53.3150,18.3622
53.3150,18.3622
53.4722,18.5329
53.4722,18.5329
53.4722,18.5329
53.6554,18.6755
53.6554,18.6755
53.6554,18.6755
53.8595,18.7859
53.9735,18.8251
54.0790,18.8613
54.0790,18.8613
54.0790,18.8613
54.3080,18.8995
54.3080,18.8995
54.5400,18.8995
54.5400,18.8995
54.7690,18.8613
54.9885,18.7859
55.1926,18.6755
55.3758,18.5329
55.5330,18.3622
55.5902,18.2746
55.6433,18.2292
55.7126,18.2198
55.7759,18.2493
55.7978,18.2746
55.8550,18.3621
55.8550,18.3622
55.8550,18.3622
56.0122,18.5329
56.0122,18.5329
56.0122,18.5329
56.1954,18.6755
56.1954,18.6755
56.1954,18.6755
56.3995,18.7859
56.5135,18.8251
56.6190,18.8613
56.6190,18.8613
56.6190,18.8613
56.8480,18.8995
56.8480,18.8995
57.0801,18.8995
57.1067,18.8950
57.1477,18.8882
57.2170,18.8966
57.2558,18.9228
59.6382,21.3053
59.7497,21.4168
59.7497,21.4168
59.8808,21.5044
59.8808,21.5044
60.0158,21.5603
60.0265,21.5647
60.1325,21.5858
60.1812,21.5955
60.1812,21.5955
60.1812,21.5955
66.8706,21.5955
66.9376,21.6152
66.9618,21.6355
67.1140,21.8009
67.1140,21.8009
67.1140,21.8009
67.2922,21.9395
67.2922,21.9396
67.3225,21.9559
67.3721,22.0052
67.3872,22.0734
67.3631,22.1389
67.3225,22.1741
67.2922,22.1904
67.2922,22.1905
67.1140,22.3291
67.1140,22.3291
67.1140,22.3291
67.1140,22.3291
67.0967,22.3479
66.9618,22.4945
66.9019,22.5305
66.8706,22.5345
59.0862,22.5345
58.9315,22.5653
58.9315,22.5653
58.7858,22.6256
58.7858,22.6256
58.6547,22.7132
58.6547,22.7132
52.6047,28.7632
52.5434,28.7967
52.5171,28.7995
49.3002,28.7995
49.1705,28.8253
49.1705,28.8253
49.1517,28.8290
49.1455,28.8303
49.1455,28.8303
48.9998,28.8906
48.9998,28.8906
48.8687,28.9782
48.8687,28.9782
43.3755,34.4715
43.3141,34.5050
43.2444,34.5000
43.1885,34.4581
43.1675,34.4027
43.1654,34.4030
43.1645,34.3980
43.1645,34.3980
43.1091,34.1791
43.0184,33.9723
42.8949,33.7833
42.7420,33.6171
42.7420,33.6171
42.7420,33.6171
42.5638,33.4785
42.5638,33.4784
42.5335,33.4621
42.4839,33.4128
42.4688,33.3446
42.4929,33.2791
42.5335,33.2439
42.5360,33.2426
42.5638,33.2275
42.7420,33.0889
42.8949,32.9227
43.0184,32.7337
43.1091,32.5269
43.1645,32.3080
43.1645,32.3080
43.1832,32.0830
43.1832,32.0830
43.1645,31.8580
43.1645,31.8580
43.1645,31.8580
43.1091,31.6391
43.0184,31.4323
42.8949,31.2433
42.7420,31.0771
42.7420,31.0771
42.7420,31.0771
42.5638,30.9385
42.5638,30.9384
42.5335,30.9221
42.4839,30.8728
42.4688,30.8046
42.4929,30.7391
42.5335,30.7039
42.5360,30.7026
42.5638,30.6875
42.7420,30.5489
42.8949,30.3827
43.0184,30.1937
43.1091,29.9869
43.1645,29.7680
43.1832,29.5430
43.1832,29.5430
43.1645,29.3180
43.1645,29.3180
43.1645,29.3180
43.1091,29.0991
43.0184,28.8923
42.8949,28.7033
42.7420,28.5371
42.7420,28.5371
42.7420,28.5371
42.5638,28.3985
42.5638,28.3985
42.3652,28.2910
42.3652,28.2910
42.1516,28.2177
41.9289,28.1805
41.7031,28.1805
41.4804,28.2177
41.2668,28.2910
41.2668,28.2910
41.0682,28.3985
41.0682,28.3985
40.8900,28.5371
40.8900,28.5371
40.7371,28.7033
40.6136,28.8923
40.5229,29.0991
40.4675,29.3180
40.4675,29.3180
40.4488,29.5430
40.4488,29.5430
40.4675,29.7680
40.4675,29.7680
40.5229,29.9869
40.6136,30.1937
40.6136,30.1937
40.7371,30.3827
40.8900,30.5489
40.8900,30.5489
40.8900,30.5489
41.0682,30.6875
41.0682,30.6876
41.0985,30.7039
41.1481,30.7532
41.1632,30.8214
41.1391,30.8869
41.0985,30.9221
41.0682,30.9384
41.0682,30.9385
40.8900,31.0771
40.8900,31.0771
40.7371,31.2433
40.6136,31.4323
40.5229,31.6391
40.4675,31.8580
40.4675,31.8580
40.4488,32.0830
40.4488,32.0830
40.4675,32.3080
40.4675,32.3080
40.5229,32.5269
40.5616,32.6151
40.6136,32.7337
40.6394,32.7732
40.7123,32.8847
40.7371,32.9227
40.8900,33.0889
40.8900,33.0889
40.8900,33.0889
41.0682,33.2275
41.0682,33.2276
41.0985,33.2439
41.1481,33.2932
41.1632,33.3614
41.1391,33.4269
41.0985,33.4621
41.0682,33.4784
41.0682,33.4785
40.8900,33.6171
40.8900,33.6171
40.8900,33.6171
40.8900,33.6171
40.8227,33.6903
40.7371,33.7833
40.6136,33.9723
40.5229,34.1791
40.4675,34.3980
40.4675,34.3980
40.4488,34.6230
40.4488,34.6230
40.4675,34.8480
40.4675,34.8480
40.5229,35.0669
40.5526,35.1345
40.6136,35.2737
40.7371,35.4627
40.8900,35.6289
40.8900,35.6289
40.8900,35.6289
41.0682,35.7675
41.0682,35.7676
41.0985,35.7839
41.1481,35.8332
41.1632,35.9014
41.1391,35.9669
41.0985,36.0021
41.0682,36.0184
41.0682,36.0185
40.8900,36.1571
40.8900,36.1571
40.7371,36.3233
40.6136,36.5123
40.5229,36.7191
40.4675,36.9380
40.4675,36.9380
40.4488,37.1630
40.4488,37.1630
40.4675,37.3880
40.4675,37.3880
40.5229,37.6069
40.6136,37.8137
40.6136,37.8137
40.6894,37.9296
40.7255,37.9849
40.7371,38.0027
40.8900,38.1689
40.8900,38.1689
40.8900,38.1689
41.0682,38.3075
41.0682,38.3076
41.0985,38.3239
41.1481,38.3732
41.1632,38.4414
41.1391,38.5069
41.0985,38.5421
41.0682,38.5584
41.0682,38.5585
40.8900,38.6971
40.8900,38.6971
40.7378,38.8625
40.6779,38.8985
40.6466,38.9025
40.5409,38.9025
40.4739,38.8828
40.4533,38.8662
39.7668,38.1797
39.7333,38.1184
39.7305,38.0921
39.7305,27.6869
39.7502,27.6199
39.7668,27.5993
46.5373,20.8288
46.5986,20.7953
46.6249,20.7925
46.6465,20.7925
46.7135,20.8122
46.7593,20.8650
46.7705,20.9165
46.7705,21.0328
46.8013,21.1875
46.8013,21.1875
46.8616,21.3332
46.8616,21.3332
46.9492,21.4643
46.9492,21.4643
49.2232,23.7383
49.2567,23.7996
49.2595,23.8259
49.2595,24.2824
49.2750,24.3998
49.2750,24.3998
49.3080,24.4796
49.3355,24.5458
49.4268,24.6648
49.4317,24.6713
49.5021,24.7253
49.5433,24.7817
49.5474,24.8514
49.5132,24.9124
49.5028,24.9215
49.4082,24.9951
49.4082,24.9951
49.2510,25.1659
49.1241,25.3602
49.0308,25.5727
48.9739,25.7977
48.9739,25.7977
48.9547,26.0290
48.9547,26.0290
48.9739,26.2603
48.9739,26.2603
49.0308,26.4853
49.1241,26.6978
49.2510,26.8921
49.2510,26.8922
49.2510,26.8922
49.4082,27.0629
49.4082,27.0629
49.4082,27.0629
49.5914,27.2055
49.5914,27.2055
49.5914,27.2055
49.7955,27.3159
49.9095,27.3551
50.0150,27.3913
50.0150,27.3913
50.0150,27.3913
50.2440,27.4295
50.2440,27.4295
50.4760,27.4295
50.4760,27.4295
50.7050,27.3913
50.9245,27.3159
51.1286,27.2055
51.1352,27.2003
51.2294,27.1270
51.3118,27.0629
51.4690,26.8922
51.5959,26.6978
51.6892,26.4853
51.7461,26.2603
51.7594,26.1000
51.7653,26.0290
51.7653,26.0290
51.7461,25.7977
51.7461,25.7977
51.6892,25.5727
51.5959,25.3602
51.4690,25.1659
51.4690,25.1658
51.4690,25.1658
51.3118,24.9951
51.2172,24.9215
51.1764,24.8648
51.1728,24.7950
51.2074,24.7343
51.2179,24.7253
51.2883,24.6713
51.3845,24.5458
51.4450,24.3998
51.4605,24.2824
51.4605,23.2036
51.4605,23.2036
51.4450,23.0862
51.4450,23.0862
51.4450,23.0862
51.3845,22.9402
51.2883,22.8147
51.1628,22.7185
51.1502,22.7132
51.0168,22.6580
51.0168,22.6580
50.8994,22.6425
50.8994,22.6425
50.8994,22.6425
50.8994,22.6425
50.4429,22.6425
50.3759,22.6228
50.3553,22.6062
48.4078,20.6587
48.3743,20.5974
48.3715,20.5711
48.3715,19.9386
48.3912,19.8716
48.4193,19.8408
48.4857,19.7891
48.5568,19.7338
48.7196,19.5570
48.8510,19.3557
48.9476,19.1356
49.0066,18.9026
49.0254,18.6755
49.0265,18.6630
49.0265,18.6630
49.0066,18.4234
49.0066,18.4234
48.9476,18.1904
48.8510,17.9703
48.8413,17.9553
48.7196,17.7690
48.7196,17.7690
48.5568,17.5922
48.5568,17.5922
48.5568,17.5922
48.3671,17.4445
48.3671,17.4445
48.1557,17.3301
48.1557,17.3301
47.9283,17.2521
47.7505,17.2224
47.6912,17.2125
47.4508,17.2125
47.4034,17.2204
47.2137,17.2521
46.9863,17.3301
46.9863,17.3301
46.7749,17.4445
46.7749,17.4445
46.5852,17.5922
46.5852,17.5922
46.5852,17.5922
46.5852,17.5922
46.5493,17.6312
46.4224,17.7690
46.4224,17.7690
46.2910,17.9703
46.1944,18.1904
46.1354,18.4234
46.1155,18.6630
46.1155,18.6630
46.1240,18.7653
46.1355,18.9044
46.1214,18.9728
46.0996,19.0023
45.7462,19.3557
45.7317,19.3702
38.4197,26.6822
38.3885,26.7134
38.3082,26.7937
38.2206,26.9248
38.2206,26.9248
38.1603,27.0705
38.1603,27.0705
38.1295,27.2252
38.1295,38.5538
29.5005,38.5538
29.5005,10.6350
66.6728,10.6350
66.6915,10.8600
66.6915,10.8600
66.7469,11.0789
66.7927,11.1832
66.8376,11.2857
66.9134,11.4016
66.9483,11.4552
66.9611,11.4747
67.1140,11.6409
67.1140,11.6409
67.1140,11.6409
67.2922,11.7795
67.2922,11.7795
67.2922,11.7795
67.4908,11.8870
67.7044,11.9603
67.9271,11.9975
68.1529,11.9975
68.3756,11.9603
68.5892,11.8870
68.7878,11.7795
68.9660,11.6409
69.1189,11.4747
69.2424,11.2857
69.3331,11.0789
69.3885,10.8600
69.4072,10.6350
69.4072,10.6350
69.3885,10.4100
69.3885,10.4100
69.3885,10.4100
69.3331,10.1911
69.2424,9.9843
69.1189,9.7953
68.9660,9.6291
68.9660,9.6291
68.9660,9.6291
68.7878,9.4905
68.7878,9.4905
68.5892,9.3830
68.5892,9.3830
68.3756,9.3097
68.1529,9.2725
67.9271,9.2725
67.7044,9.3097
67.4908,9.3830
67.4908,9.3830
67.2922,9.4905
67.2922,9.4905
67.1140,9.6291
67.1140,9.6291
66.9611,9.7953
66.8376,9.9843
66.7469,10.1911
66.6915,10.4100
66.6915,10.4100
66.6728,10.6350
66.6728,10.6350
29.5005,10.6350
29.5005,8.1475
30.7495,8.1475
30.7816,8.3911
30.7880,8.4400
30.7880,8.4400
30.8644,8.7250
30.8644,8.7250
30.9773,8.9975
30.9773,8.9975
31.1248,9.2530
31.3044,9.4870
31.3044,9.4870
31.5130,9.6956
31.5130,9.6956
31.7470,9.8752
32.0025,10.0227
32.0025,10.0227
32.0025,10.0227
32.2750,10.1356
32.5600,10.2120
32.8525,10.2505
32.8525,10.2505
33.1475,10.2505
33.1475,10.2505
33.4400,10.2120
33.7250,10.1356
33.9975,10.0227
34.2530,9.8752
34.4870,9.6956
34.6956,9.4870
34.8752,9.2530
35.0227,8.9975
35.1356,8.7250
35.2120,8.4400
35.2505,8.1475
35.2505,7.8525
35.2120,7.5600
35.1356,7.2750
35.0227,7.0025
34.8752,6.7470
34.6956,6.5130
34.6956,6.5130
34.4870,6.3044
34.4870,6.3044
34.2530,6.1248
33.9975,5.9773
33.9975,5.9773
33.7250,5.8644
33.7250,5.8644
33.7250,5.8644
33.4400,5.7880
33.3911,5.7816
33.1475,5.7495
33.1475,5.7495
32.8525,5.7495
32.8525,5.7495
32.5741,5.7862
32.5600,5.7880
32.2750,5.8644
32.2750,5.8644
32.0025,5.9773
32.0025,5.9773
31.7470,6.1248
31.5130,6.3044
31.5130,6.3044
31.3044,6.5130
31.3044,6.5130
31.1248,6.7470
30.9773,7.0025
30.9773,7.0025
30.8644,7.2750
30.8644,7.2750
30.7880,7.5600
30.7880,7.5600
30.7495,7.8525
30.7495,8.1475
29.5005,8.1475
29.5005,6.0044
29.5008,5.9956
29.5151,5.7954
29.5176,5.7779
29.5594,5.5862
29.5643,5.5692
29.6329,5.3854
29.6402,5.3693
29.7343,5.1971
29.7438,5.1822
29.8614,5.0251
29.8730,5.0118
30.0118,4.8730
30.0251,4.8615
30.1822,4.7439
30.1971,4.7343
30.3693,4.6403
30.3854,4.6329
30.5692,4.5644
30.5862,4.5594
30.7779,4.5177
30.7954,4.5152
30.8944,4.5081
30.9962,4.5008
31.0051,4.5005
31.0659,4.5005
31.0659,4.5005
31.0745,4.5005
31.0745,4.5005
92.9956,4.5005
Z" /> 
</g>
<g style="fill:#FFFFFF; fill-opacity:1.0000; stroke:none;">
<circle cx="41.8160" cy="42.2430" r="0.3810" /> 
</g>
<g style="fill:#FFFFFF; fill-opacity:1.0000; stroke:none;">
<circle cx="41.8160" cy="39.7030" r="0.3810" /> 
</g>
<g style="fill:#FFFFFF; fill-opacity:1.0000; stroke:none;">
<circle cx="41.8160" cy="37.1630" r="0.3810" /> 
</g>
<g style="fill:#FFFFFF; fill-opacity:1.0000; stroke:none;">
<circle cx="41.8160" cy="34.6230" r="0.3810" /> 
</g>
<g style="fill:#FFFFFF; fill-opacity:1.0000; stroke:none;">
<circle cx="41.8160" cy="32.0830" r="0.3810" /> 
</g>
<g style="fill:#FFFFFF; fill-opacity:1.0000; stroke:none;">
<circle cx="41.8160" cy="29.5430" r="0.3810" /> 
</g>
<g style="fill:#FFFFFF; fill-opacity:1.0000; stroke:none;">
<circle cx="50.3600" cy="26.0290" r="0.4000" /> 
</g>
<g style="fill:#FFFFFF; fill-opacity:1.0000; stroke:none;">
<circle cx="50.3600" cy="33.6490" r="0.4000" /> 
</g>
<g style="fill:#FFFFFF; fill-opacity:1.0000; stroke:none;">
<circle cx="68.1400" cy="35.9350" r="0.5000" /> 
</g>
<g style="fill:#FFFFFF; fill-opacity:1.0000; stroke:none;">
<circle cx="68.1400" cy="38.4750" r="0.5000" /> 
</g>
<g style="fill:#FFFFFF; fill-opacity:1.0000; stroke:none;">
<circle cx="68.1400" cy="41.0150" r="0.5000" /> 
</g>
<g style="fill:#FFFFFF; fill-opacity:1.0000; stroke:none;">
<circle cx="91.0000" cy="48.0000" r="2.0000" /> 
</g>
<g style="fill:#FFFFFF; fill-opacity:1.0000; stroke:none;">
<circle cx="83.3800" cy="35.9350" r="0.5000" /> 
</g>
<g style="fill:#FFFFFF; fill-opacity:1.0000; stroke:none;">
<circle cx="83.3800" cy="38.4750" r="0.5000" /> 
</g>
<g style="fill:#FFFFFF; fill-opacity:1.0000; stroke:none;">
<circle cx="83.3800" cy="41.0150" r="0.5000" /> 
</g>
<g style="fill:#FFFFFF; fill-opacity:1.0000; stroke:none;">
<circle cx="73.2200" cy="35.9350" r="0.5000" /> 
</g>
<g style="fill:#FFFFFF; fill-opacity:1.0000; stroke:none;">
<circle cx="73.2200" cy="38.4750" r="0.5000" /> 
</g>
<g style="fill:#FFFFFF; fill-opacity:1.0000; stroke:none;">
<circle cx="73.2200" cy="41.0150" r="0.5000" /> 
</g>
<g style="fill:#FFFFFF; fill-opacity:1.0000; stroke:none;">
<circle cx="83.2800" cy="10.6350" r="0.3810" /> 
</g>
<g style="fill:#FFFFFF; fill-opacity:1.0000; stroke:none;">
<circle cx="83.2800" cy="13.1750" r="0.3810" /> 
</g>
<g style="fill:#FFFFFF; fill-opacity:1.0000; stroke:none;">
<circle cx="83.2800" cy="15.7150" r="0.3810" /> 
</g>
<g style="fill:#FFFFFF; fill-opacity:1.0000; stroke:none;">
<circle cx="83.2800" cy="18.2550" r="0.3810" /> 
</g>
<g style="fill:#FFFFFF; fill-opacity:1.0000; stroke:none;">
<circle cx="83.2800" cy="20.7950" r="0.3810" /> 
</g>
<g style="fill:#FFFFFF; fill-opacity:1.0000; stroke:none;">
<circle cx="83.2800" cy="23.3350" r="0.3810" /> 
</g>
<g style="fill:#FFFFFF; fill-opacity:1.0000; stroke:none;">
<circle cx="83.2800" cy="25.8750" r="0.3810" /> 
</g>
<g style="fill:#FFFFFF; fill-opacity:1.0000; stroke:none;">
<circle cx="68.0400" cy="10.6350" r="0.3810" /> 
</g>
<g style="fill:#FFFFFF; fill-opacity:1.0000; stroke:none;">
<circle cx="68.0400" cy="13.1750" r="0.3810" /> 
</g>
<g style="fill:#FFFFFF; fill-opacity:1.0000; stroke:none;">
<circle cx="68.0400" cy="15.7150" r="0.3810" /> 
</g>
<g style="fill:#FFFFFF; fill-opacity:1.0000; stroke:none;">
<circle cx="68.0400" cy="18.2550" r="0.3810" /> 
</g>
<g style="fill:#FFFFFF; fill-opacity:1.0000; stroke:none;">
<circle cx="68.0400" cy="20.7950" r="0.3810" /> 
</g>
<g style="fill:#FFFFFF; fill-opacity:1.0000; stroke:none;">
<circle cx="68.0400" cy="23.3350" r="0.3810" /> 
</g>
<g style="fill:#FFFFFF; fill-opacity:1.0000; stroke:none;">
<circle cx="68.0400" cy="25.8750" r="0.3810" /> 
</g>
<g style="fill:#FFFFFF; fill-opacity:1.0000; stroke:none;">
<circle cx="50.3600" cy="36.9510" r="0.4000" /> 
</g>
<g style="fill:#FFFFFF; fill-opacity:1.0000; stroke:none;">
<circle cx="50.3600" cy="44.5710" r="0.4000" /> 
</g>
<g style="fill:#FFFFFF; fill-opacity:1.0000; stroke:none;">
<circle cx="50.3600" cy="47.1110" r="0.2500" /> 
</g>
<g style="fill:#FFFFFF; fill-opacity:1.0000; stroke:none;">
<circle cx="54.4240" cy="17.4990" r="0.4000" /> 
</g>
<g style="fill:#FFFFFF; fill-opacity:1.0000; stroke:none;">
<circle cx="56.9640" cy="17.4990" r="0.4000" /> 
</g>
<g style="fill:#FFFFFF; fill-opacity:1.0000; stroke:none;">
<circle cx="59.5040" cy="17.4990" r="0.4000" /> 
</g>
<g style="fill:#FFFFFF; fill-opacity:1.0000; stroke:none;">
<circle cx="62.0440" cy="17.4990" r="0.4000" /> 
</g>
<g style="fill:#FFFFFF; fill-opacity:1.0000; stroke:none;">
<circle cx="50.1110" cy="18.6630" r="0.5000" /> 
</g>
<g style="fill:#FFFFFF; fill-opacity:1.0000; stroke:none;">
<circle cx="47.5710" cy="18.6630" r="0.5000" /> 
</g>
<g style="fill:#FFFFFF; fill-opacity:1.0000; stroke:none;">
<circle cx="78.3000" cy="35.9350" r="0.5000" /> 
</g>
<g style="fill:#FFFFFF; fill-opacity:1.0000; stroke:none;">
<circle cx="78.3000" cy="38.4750" r="0.5000" /> 
</g>
<g style="fill:#FFFFFF; fill-opacity:1.0000; stroke:none;">
<circle cx="78.3000" cy="41.0150" r="0.5000" /> 
</g>
<g style="fill:#FFFFFF; fill-opacity:1.0000; stroke:none;">
<circle cx="33.0000" cy="8.0000" r="2.0000" /> 
</g>
<g style="fill:#FFFFFF; fill-opacity:1.0000; stroke:none;">
<circle cx="50.3600" cy="23.7430" r="0.2500" /> 
</g> 
</svg>
