M48
; DRILL file {KiCad 8.0.0} date 2024-05-08T00:58:01+1000
; FORMAT={-:-/ absolute / inch / decimal}
; #@! TF.CreationDate,2024-05-08T00:58:01+10:00
; #@! TF.GenerationSoftware,Kicad,Pcbnew,8.0.0
; #@! TF.FileFunction,Plated,1,2,PTH
FMAT,2
INCH
; #@! TA.AperFunction,Plated,PTH,ViaDrill
T1C0.0118
; #@! TA.AperFunction,Plated,PTH,ComponentDrill
T2C0.0276
; #@! TA.AperFunction,Plated,PTH,ComponentDrill
T3C0.0315
; #@! TA.AperFunction,Plated,PTH,ComponentDrill
T4C0.0394
%
G90
G05
T1
X1.3878Y-2.7402
X1.3878Y-3.189
X1.687Y-2.8189
X1.687Y-3.4961
X1.8209Y-3.5433
X1.8839Y-2.6142
X1.9154Y-3.4803
X2.0571Y-2.9134
X2.065Y-2.6142
X2.0846Y-2.9417
X2.2067Y-3.3228
X2.5768Y-3.4094
X2.7106Y-2.7244
T2
X1.4075Y-2.9134
X1.4961Y-3.4449
X1.5246Y-3.3317
X2.6646Y-3.4617
X2.7346Y-3.7667
X2.9346Y-3.7667
T3
X1.6035Y-2.5091
X1.6035Y-2.6091
X1.6035Y-2.7091
X1.6035Y-2.8091
X1.6035Y-2.9091
X1.6035Y-3.0091
X1.6035Y-3.1091
X2.2035Y-2.5091
X2.2035Y-2.6091
X2.2035Y-2.7091
X2.2035Y-2.8091
X2.2035Y-2.9091
X2.2035Y-3.0091
X2.2035Y-3.1091
X2.8209Y-2.9134
X2.8209Y-3.0134
X2.8209Y-3.1134
X2.8209Y-3.2134
X2.8209Y-3.3134
X2.8209Y-3.4134
X2.9921Y-2.6059
X2.9921Y-2.9059
X2.9921Y-3.0315
X2.9921Y-3.3315
T4
X1.5846Y-3.6417
X1.5846Y-3.7417
X1.5846Y-3.8417
X1.7846Y-3.6417
X1.7846Y-3.7417
X1.7846Y-3.8417
X1.9846Y-3.6417
X1.9846Y-3.7417
X1.9846Y-3.8417
X2.1846Y-3.6417
X2.1846Y-3.7417
X2.1846Y-3.8417
X2.3996Y-3.5417
X2.3996Y-3.6417
X2.3996Y-3.7417
X2.3996Y-3.8417
X2.439Y-2.5417
X2.539Y-2.5417
M30
