%TF.GenerationSoftware,KiCad,Pcbnew,8.0.0*%
%TF.CreationDate,2024-05-08T00:57:59+10:00*%
%TF.ProjectId,PlantPulse_Node,506c616e-7450-4756-9c73-655f4e6f6465,rev?*%
%TF.SameCoordinates,Original*%
%TF.FileFunction,Legend,Top*%
%TF.FilePolarity,Positive*%
%FSLAX46Y46*%
G04 Gerber Fmt 4.6, Leading zero omitted, Abs format (unit mm)*
G04 Created by KiCad (PCBNEW 8.0.0) date 2024-05-08 00:57:59*
%MOMM*%
%LPD*%
G01*
G04 APERTURE LIST*
%ADD10C,0.100000*%
%ADD11C,0.300000*%
%ADD12C,0.200000*%
%ADD13C,0.400000*%
%ADD14C,0.150000*%
%ADD15C,0.120000*%
G04 APERTURE END LIST*
D10*
X42155000Y-92500000D02*
X43425000Y-92500000D01*
X47235000Y-95040000D02*
X48505000Y-95040000D01*
X47235000Y-92500000D02*
X48505000Y-92500000D01*
X47235000Y-97580000D02*
X48505000Y-97580000D01*
D11*
X37710000Y-100120000D02*
X58030000Y-100120000D01*
D10*
X42155000Y-95040000D02*
X43425000Y-95040000D01*
D11*
X64634000Y-100120000D02*
X58792000Y-100120000D01*
D10*
X52315000Y-92500000D02*
X53585000Y-92500000D01*
X42155000Y-97580000D02*
X43425000Y-97580000D01*
X52315000Y-95040000D02*
X53585000Y-95040000D01*
X52315000Y-97580000D02*
X53585000Y-97580000D01*
X90280074Y-100122419D02*
X89803884Y-100122419D01*
X89803884Y-100122419D02*
X89803884Y-99122419D01*
X90613408Y-100122419D02*
X90613408Y-99455752D01*
X90613408Y-99122419D02*
X90565789Y-99170038D01*
X90565789Y-99170038D02*
X90613408Y-99217657D01*
X90613408Y-99217657D02*
X90661027Y-99170038D01*
X90661027Y-99170038D02*
X90613408Y-99122419D01*
X90613408Y-99122419D02*
X90613408Y-99217657D01*
X91518169Y-100122419D02*
X91518169Y-99598609D01*
X91518169Y-99598609D02*
X91470550Y-99503371D01*
X91470550Y-99503371D02*
X91375312Y-99455752D01*
X91375312Y-99455752D02*
X91184836Y-99455752D01*
X91184836Y-99455752D02*
X91089598Y-99503371D01*
X91518169Y-100074800D02*
X91422931Y-100122419D01*
X91422931Y-100122419D02*
X91184836Y-100122419D01*
X91184836Y-100122419D02*
X91089598Y-100074800D01*
X91089598Y-100074800D02*
X91041979Y-99979561D01*
X91041979Y-99979561D02*
X91041979Y-99884323D01*
X91041979Y-99884323D02*
X91089598Y-99789085D01*
X91089598Y-99789085D02*
X91184836Y-99741466D01*
X91184836Y-99741466D02*
X91422931Y-99741466D01*
X91422931Y-99741466D02*
X91518169Y-99693847D01*
X91994360Y-100122419D02*
X91994360Y-99455752D01*
X91994360Y-99550990D02*
X92041979Y-99503371D01*
X92041979Y-99503371D02*
X92137217Y-99455752D01*
X92137217Y-99455752D02*
X92280074Y-99455752D01*
X92280074Y-99455752D02*
X92375312Y-99503371D01*
X92375312Y-99503371D02*
X92422931Y-99598609D01*
X92422931Y-99598609D02*
X92422931Y-100122419D01*
X92422931Y-99598609D02*
X92470550Y-99503371D01*
X92470550Y-99503371D02*
X92565788Y-99455752D01*
X92565788Y-99455752D02*
X92708645Y-99455752D01*
X92708645Y-99455752D02*
X92803884Y-99503371D01*
X92803884Y-99503371D02*
X92851503Y-99598609D01*
X92851503Y-99598609D02*
X92851503Y-100122419D01*
X93327693Y-100122419D02*
X93327693Y-99122419D01*
X93327693Y-99598609D02*
X93899121Y-99598609D01*
X93899121Y-100122419D02*
X93899121Y-99122419D01*
X94518169Y-100122419D02*
X94422931Y-100074800D01*
X94422931Y-100074800D02*
X94375312Y-100027180D01*
X94375312Y-100027180D02*
X94327693Y-99931942D01*
X94327693Y-99931942D02*
X94327693Y-99646228D01*
X94327693Y-99646228D02*
X94375312Y-99550990D01*
X94375312Y-99550990D02*
X94422931Y-99503371D01*
X94422931Y-99503371D02*
X94518169Y-99455752D01*
X94518169Y-99455752D02*
X94661026Y-99455752D01*
X94661026Y-99455752D02*
X94756264Y-99503371D01*
X94756264Y-99503371D02*
X94803883Y-99550990D01*
X94803883Y-99550990D02*
X94851502Y-99646228D01*
X94851502Y-99646228D02*
X94851502Y-99931942D01*
X94851502Y-99931942D02*
X94803883Y-100027180D01*
X94803883Y-100027180D02*
X94756264Y-100074800D01*
X94756264Y-100074800D02*
X94661026Y-100122419D01*
X94661026Y-100122419D02*
X94518169Y-100122419D01*
X95184836Y-99455752D02*
X95375312Y-100122419D01*
X95375312Y-100122419D02*
X95565788Y-99646228D01*
X95565788Y-99646228D02*
X95756264Y-100122419D01*
X95756264Y-100122419D02*
X95946740Y-99455752D01*
X96708645Y-100074800D02*
X96613407Y-100122419D01*
X96613407Y-100122419D02*
X96422931Y-100122419D01*
X96422931Y-100122419D02*
X96327693Y-100074800D01*
X96327693Y-100074800D02*
X96280074Y-99979561D01*
X96280074Y-99979561D02*
X96280074Y-99598609D01*
X96280074Y-99598609D02*
X96327693Y-99503371D01*
X96327693Y-99503371D02*
X96422931Y-99455752D01*
X96422931Y-99455752D02*
X96613407Y-99455752D01*
X96613407Y-99455752D02*
X96708645Y-99503371D01*
X96708645Y-99503371D02*
X96756264Y-99598609D01*
X96756264Y-99598609D02*
X96756264Y-99693847D01*
X96756264Y-99693847D02*
X96280074Y-99789085D01*
X97327693Y-100122419D02*
X97232455Y-100074800D01*
X97232455Y-100074800D02*
X97184836Y-99979561D01*
X97184836Y-99979561D02*
X97184836Y-99122419D01*
X97851503Y-100122419D02*
X97756265Y-100074800D01*
X97756265Y-100074800D02*
X97708646Y-99979561D01*
X97708646Y-99979561D02*
X97708646Y-99122419D01*
X71170791Y-91160800D02*
X71170791Y-91727467D01*
X71170791Y-91727467D02*
X71137458Y-91794134D01*
X71137458Y-91794134D02*
X71104125Y-91827467D01*
X71104125Y-91827467D02*
X71037458Y-91860800D01*
X71037458Y-91860800D02*
X70937458Y-91860800D01*
X70937458Y-91860800D02*
X70870791Y-91827467D01*
X71170791Y-91594134D02*
X71104125Y-91627467D01*
X71104125Y-91627467D02*
X70970791Y-91627467D01*
X70970791Y-91627467D02*
X70904125Y-91594134D01*
X70904125Y-91594134D02*
X70870791Y-91560800D01*
X70870791Y-91560800D02*
X70837458Y-91494134D01*
X70837458Y-91494134D02*
X70837458Y-91294134D01*
X70837458Y-91294134D02*
X70870791Y-91227467D01*
X70870791Y-91227467D02*
X70904125Y-91194134D01*
X70904125Y-91194134D02*
X70970791Y-91160800D01*
X70970791Y-91160800D02*
X71104125Y-91160800D01*
X71104125Y-91160800D02*
X71170791Y-91194134D01*
X71504124Y-91627467D02*
X71504124Y-91160800D01*
X71504124Y-90927467D02*
X71470791Y-90960800D01*
X71470791Y-90960800D02*
X71504124Y-90994134D01*
X71504124Y-90994134D02*
X71537458Y-90960800D01*
X71537458Y-90960800D02*
X71504124Y-90927467D01*
X71504124Y-90927467D02*
X71504124Y-90994134D01*
X71737457Y-91160800D02*
X72004124Y-91160800D01*
X71837457Y-90927467D02*
X71837457Y-91527467D01*
X71837457Y-91527467D02*
X71870791Y-91594134D01*
X71870791Y-91594134D02*
X71937457Y-91627467D01*
X71937457Y-91627467D02*
X72004124Y-91627467D01*
X72237457Y-91627467D02*
X72237457Y-90927467D01*
X72537457Y-91627467D02*
X72537457Y-91260800D01*
X72537457Y-91260800D02*
X72504124Y-91194134D01*
X72504124Y-91194134D02*
X72437457Y-91160800D01*
X72437457Y-91160800D02*
X72337457Y-91160800D01*
X72337457Y-91160800D02*
X72270791Y-91194134D01*
X72270791Y-91194134D02*
X72237457Y-91227467D01*
X73170790Y-91160800D02*
X73170790Y-91627467D01*
X72870790Y-91160800D02*
X72870790Y-91527467D01*
X72870790Y-91527467D02*
X72904124Y-91594134D01*
X72904124Y-91594134D02*
X72970790Y-91627467D01*
X72970790Y-91627467D02*
X73070790Y-91627467D01*
X73070790Y-91627467D02*
X73137457Y-91594134D01*
X73137457Y-91594134D02*
X73170790Y-91560800D01*
X73504123Y-91627467D02*
X73504123Y-90927467D01*
X73504123Y-91194134D02*
X73570790Y-91160800D01*
X73570790Y-91160800D02*
X73704123Y-91160800D01*
X73704123Y-91160800D02*
X73770790Y-91194134D01*
X73770790Y-91194134D02*
X73804123Y-91227467D01*
X73804123Y-91227467D02*
X73837457Y-91294134D01*
X73837457Y-91294134D02*
X73837457Y-91494134D01*
X73837457Y-91494134D02*
X73804123Y-91560800D01*
X73804123Y-91560800D02*
X73770790Y-91594134D01*
X73770790Y-91594134D02*
X73704123Y-91627467D01*
X73704123Y-91627467D02*
X73570790Y-91627467D01*
X73570790Y-91627467D02*
X73504123Y-91594134D01*
X74137456Y-91560800D02*
X74170790Y-91594134D01*
X74170790Y-91594134D02*
X74137456Y-91627467D01*
X74137456Y-91627467D02*
X74104123Y-91594134D01*
X74104123Y-91594134D02*
X74137456Y-91560800D01*
X74137456Y-91560800D02*
X74137456Y-91627467D01*
X74770789Y-91594134D02*
X74704123Y-91627467D01*
X74704123Y-91627467D02*
X74570789Y-91627467D01*
X74570789Y-91627467D02*
X74504123Y-91594134D01*
X74504123Y-91594134D02*
X74470789Y-91560800D01*
X74470789Y-91560800D02*
X74437456Y-91494134D01*
X74437456Y-91494134D02*
X74437456Y-91294134D01*
X74437456Y-91294134D02*
X74470789Y-91227467D01*
X74470789Y-91227467D02*
X74504123Y-91194134D01*
X74504123Y-91194134D02*
X74570789Y-91160800D01*
X74570789Y-91160800D02*
X74704123Y-91160800D01*
X74704123Y-91160800D02*
X74770789Y-91194134D01*
X75170789Y-91627467D02*
X75104123Y-91594134D01*
X75104123Y-91594134D02*
X75070789Y-91560800D01*
X75070789Y-91560800D02*
X75037456Y-91494134D01*
X75037456Y-91494134D02*
X75037456Y-91294134D01*
X75037456Y-91294134D02*
X75070789Y-91227467D01*
X75070789Y-91227467D02*
X75104123Y-91194134D01*
X75104123Y-91194134D02*
X75170789Y-91160800D01*
X75170789Y-91160800D02*
X75270789Y-91160800D01*
X75270789Y-91160800D02*
X75337456Y-91194134D01*
X75337456Y-91194134D02*
X75370789Y-91227467D01*
X75370789Y-91227467D02*
X75404123Y-91294134D01*
X75404123Y-91294134D02*
X75404123Y-91494134D01*
X75404123Y-91494134D02*
X75370789Y-91560800D01*
X75370789Y-91560800D02*
X75337456Y-91594134D01*
X75337456Y-91594134D02*
X75270789Y-91627467D01*
X75270789Y-91627467D02*
X75170789Y-91627467D01*
X75704122Y-91627467D02*
X75704122Y-91160800D01*
X75704122Y-91227467D02*
X75737456Y-91194134D01*
X75737456Y-91194134D02*
X75804122Y-91160800D01*
X75804122Y-91160800D02*
X75904122Y-91160800D01*
X75904122Y-91160800D02*
X75970789Y-91194134D01*
X75970789Y-91194134D02*
X76004122Y-91260800D01*
X76004122Y-91260800D02*
X76004122Y-91627467D01*
X76004122Y-91260800D02*
X76037456Y-91194134D01*
X76037456Y-91194134D02*
X76104122Y-91160800D01*
X76104122Y-91160800D02*
X76204122Y-91160800D01*
X76204122Y-91160800D02*
X76270789Y-91194134D01*
X76270789Y-91194134D02*
X76304122Y-91260800D01*
X76304122Y-91260800D02*
X76304122Y-91627467D01*
X77137455Y-90894134D02*
X76537455Y-91794134D01*
X77704122Y-91627467D02*
X77370788Y-91627467D01*
X77370788Y-91627467D02*
X77370788Y-90927467D01*
X77937455Y-91627467D02*
X77937455Y-91160800D01*
X77937455Y-90927467D02*
X77904122Y-90960800D01*
X77904122Y-90960800D02*
X77937455Y-90994134D01*
X77937455Y-90994134D02*
X77970789Y-90960800D01*
X77970789Y-90960800D02*
X77937455Y-90927467D01*
X77937455Y-90927467D02*
X77937455Y-90994134D01*
X78570788Y-91627467D02*
X78570788Y-91260800D01*
X78570788Y-91260800D02*
X78537455Y-91194134D01*
X78537455Y-91194134D02*
X78470788Y-91160800D01*
X78470788Y-91160800D02*
X78337455Y-91160800D01*
X78337455Y-91160800D02*
X78270788Y-91194134D01*
X78570788Y-91594134D02*
X78504122Y-91627467D01*
X78504122Y-91627467D02*
X78337455Y-91627467D01*
X78337455Y-91627467D02*
X78270788Y-91594134D01*
X78270788Y-91594134D02*
X78237455Y-91527467D01*
X78237455Y-91527467D02*
X78237455Y-91460800D01*
X78237455Y-91460800D02*
X78270788Y-91394134D01*
X78270788Y-91394134D02*
X78337455Y-91360800D01*
X78337455Y-91360800D02*
X78504122Y-91360800D01*
X78504122Y-91360800D02*
X78570788Y-91327467D01*
X78904121Y-91627467D02*
X78904121Y-91160800D01*
X78904121Y-91227467D02*
X78937455Y-91194134D01*
X78937455Y-91194134D02*
X79004121Y-91160800D01*
X79004121Y-91160800D02*
X79104121Y-91160800D01*
X79104121Y-91160800D02*
X79170788Y-91194134D01*
X79170788Y-91194134D02*
X79204121Y-91260800D01*
X79204121Y-91260800D02*
X79204121Y-91627467D01*
X79204121Y-91260800D02*
X79237455Y-91194134D01*
X79237455Y-91194134D02*
X79304121Y-91160800D01*
X79304121Y-91160800D02*
X79404121Y-91160800D01*
X79404121Y-91160800D02*
X79470788Y-91194134D01*
X79470788Y-91194134D02*
X79504121Y-91260800D01*
X79504121Y-91260800D02*
X79504121Y-91627467D01*
X79837454Y-91627467D02*
X79837454Y-90927467D01*
X79837454Y-91260800D02*
X80237454Y-91260800D01*
X80237454Y-91627467D02*
X80237454Y-90927467D01*
X80670787Y-91627467D02*
X80604121Y-91594134D01*
X80604121Y-91594134D02*
X80570787Y-91560800D01*
X80570787Y-91560800D02*
X80537454Y-91494134D01*
X80537454Y-91494134D02*
X80537454Y-91294134D01*
X80537454Y-91294134D02*
X80570787Y-91227467D01*
X80570787Y-91227467D02*
X80604121Y-91194134D01*
X80604121Y-91194134D02*
X80670787Y-91160800D01*
X80670787Y-91160800D02*
X80770787Y-91160800D01*
X80770787Y-91160800D02*
X80837454Y-91194134D01*
X80837454Y-91194134D02*
X80870787Y-91227467D01*
X80870787Y-91227467D02*
X80904121Y-91294134D01*
X80904121Y-91294134D02*
X80904121Y-91494134D01*
X80904121Y-91494134D02*
X80870787Y-91560800D01*
X80870787Y-91560800D02*
X80837454Y-91594134D01*
X80837454Y-91594134D02*
X80770787Y-91627467D01*
X80770787Y-91627467D02*
X80670787Y-91627467D01*
X81137454Y-91160800D02*
X81270787Y-91627467D01*
X81270787Y-91627467D02*
X81404120Y-91294134D01*
X81404120Y-91294134D02*
X81537454Y-91627467D01*
X81537454Y-91627467D02*
X81670787Y-91160800D01*
X82204120Y-91594134D02*
X82137453Y-91627467D01*
X82137453Y-91627467D02*
X82004120Y-91627467D01*
X82004120Y-91627467D02*
X81937453Y-91594134D01*
X81937453Y-91594134D02*
X81904120Y-91527467D01*
X81904120Y-91527467D02*
X81904120Y-91260800D01*
X81904120Y-91260800D02*
X81937453Y-91194134D01*
X81937453Y-91194134D02*
X82004120Y-91160800D01*
X82004120Y-91160800D02*
X82137453Y-91160800D01*
X82137453Y-91160800D02*
X82204120Y-91194134D01*
X82204120Y-91194134D02*
X82237453Y-91260800D01*
X82237453Y-91260800D02*
X82237453Y-91327467D01*
X82237453Y-91327467D02*
X81904120Y-91394134D01*
X82637453Y-91627467D02*
X82570787Y-91594134D01*
X82570787Y-91594134D02*
X82537453Y-91527467D01*
X82537453Y-91527467D02*
X82537453Y-90927467D01*
X83004120Y-91627467D02*
X82937454Y-91594134D01*
X82937454Y-91594134D02*
X82904120Y-91527467D01*
X82904120Y-91527467D02*
X82904120Y-90927467D01*
X83770787Y-90894134D02*
X83170787Y-91794134D01*
X84004120Y-91627467D02*
X84004120Y-90927467D01*
X84004120Y-90927467D02*
X84270787Y-90927467D01*
X84270787Y-90927467D02*
X84337454Y-90960800D01*
X84337454Y-90960800D02*
X84370787Y-90994134D01*
X84370787Y-90994134D02*
X84404120Y-91060800D01*
X84404120Y-91060800D02*
X84404120Y-91160800D01*
X84404120Y-91160800D02*
X84370787Y-91227467D01*
X84370787Y-91227467D02*
X84337454Y-91260800D01*
X84337454Y-91260800D02*
X84270787Y-91294134D01*
X84270787Y-91294134D02*
X84004120Y-91294134D01*
X84804120Y-91627467D02*
X84737454Y-91594134D01*
X84737454Y-91594134D02*
X84704120Y-91527467D01*
X84704120Y-91527467D02*
X84704120Y-90927467D01*
X85370787Y-91627467D02*
X85370787Y-91260800D01*
X85370787Y-91260800D02*
X85337454Y-91194134D01*
X85337454Y-91194134D02*
X85270787Y-91160800D01*
X85270787Y-91160800D02*
X85137454Y-91160800D01*
X85137454Y-91160800D02*
X85070787Y-91194134D01*
X85370787Y-91594134D02*
X85304121Y-91627467D01*
X85304121Y-91627467D02*
X85137454Y-91627467D01*
X85137454Y-91627467D02*
X85070787Y-91594134D01*
X85070787Y-91594134D02*
X85037454Y-91527467D01*
X85037454Y-91527467D02*
X85037454Y-91460800D01*
X85037454Y-91460800D02*
X85070787Y-91394134D01*
X85070787Y-91394134D02*
X85137454Y-91360800D01*
X85137454Y-91360800D02*
X85304121Y-91360800D01*
X85304121Y-91360800D02*
X85370787Y-91327467D01*
X85704120Y-91160800D02*
X85704120Y-91627467D01*
X85704120Y-91227467D02*
X85737454Y-91194134D01*
X85737454Y-91194134D02*
X85804120Y-91160800D01*
X85804120Y-91160800D02*
X85904120Y-91160800D01*
X85904120Y-91160800D02*
X85970787Y-91194134D01*
X85970787Y-91194134D02*
X86004120Y-91260800D01*
X86004120Y-91260800D02*
X86004120Y-91627467D01*
X86237453Y-91160800D02*
X86504120Y-91160800D01*
X86337453Y-90927467D02*
X86337453Y-91527467D01*
X86337453Y-91527467D02*
X86370787Y-91594134D01*
X86370787Y-91594134D02*
X86437453Y-91627467D01*
X86437453Y-91627467D02*
X86504120Y-91627467D01*
X86737453Y-91627467D02*
X86737453Y-90927467D01*
X86737453Y-90927467D02*
X87004120Y-90927467D01*
X87004120Y-90927467D02*
X87070787Y-90960800D01*
X87070787Y-90960800D02*
X87104120Y-90994134D01*
X87104120Y-90994134D02*
X87137453Y-91060800D01*
X87137453Y-91060800D02*
X87137453Y-91160800D01*
X87137453Y-91160800D02*
X87104120Y-91227467D01*
X87104120Y-91227467D02*
X87070787Y-91260800D01*
X87070787Y-91260800D02*
X87004120Y-91294134D01*
X87004120Y-91294134D02*
X86737453Y-91294134D01*
X87737453Y-91160800D02*
X87737453Y-91627467D01*
X87437453Y-91160800D02*
X87437453Y-91527467D01*
X87437453Y-91527467D02*
X87470787Y-91594134D01*
X87470787Y-91594134D02*
X87537453Y-91627467D01*
X87537453Y-91627467D02*
X87637453Y-91627467D01*
X87637453Y-91627467D02*
X87704120Y-91594134D01*
X87704120Y-91594134D02*
X87737453Y-91560800D01*
X88170786Y-91627467D02*
X88104120Y-91594134D01*
X88104120Y-91594134D02*
X88070786Y-91527467D01*
X88070786Y-91527467D02*
X88070786Y-90927467D01*
X88404120Y-91594134D02*
X88470787Y-91627467D01*
X88470787Y-91627467D02*
X88604120Y-91627467D01*
X88604120Y-91627467D02*
X88670787Y-91594134D01*
X88670787Y-91594134D02*
X88704120Y-91527467D01*
X88704120Y-91527467D02*
X88704120Y-91494134D01*
X88704120Y-91494134D02*
X88670787Y-91427467D01*
X88670787Y-91427467D02*
X88604120Y-91394134D01*
X88604120Y-91394134D02*
X88504120Y-91394134D01*
X88504120Y-91394134D02*
X88437453Y-91360800D01*
X88437453Y-91360800D02*
X88404120Y-91294134D01*
X88404120Y-91294134D02*
X88404120Y-91260800D01*
X88404120Y-91260800D02*
X88437453Y-91194134D01*
X88437453Y-91194134D02*
X88504120Y-91160800D01*
X88504120Y-91160800D02*
X88604120Y-91160800D01*
X88604120Y-91160800D02*
X88670787Y-91194134D01*
X89270787Y-91594134D02*
X89204120Y-91627467D01*
X89204120Y-91627467D02*
X89070787Y-91627467D01*
X89070787Y-91627467D02*
X89004120Y-91594134D01*
X89004120Y-91594134D02*
X88970787Y-91527467D01*
X88970787Y-91527467D02*
X88970787Y-91260800D01*
X88970787Y-91260800D02*
X89004120Y-91194134D01*
X89004120Y-91194134D02*
X89070787Y-91160800D01*
X89070787Y-91160800D02*
X89204120Y-91160800D01*
X89204120Y-91160800D02*
X89270787Y-91194134D01*
X89270787Y-91194134D02*
X89304120Y-91260800D01*
X89304120Y-91260800D02*
X89304120Y-91327467D01*
X89304120Y-91327467D02*
X88970787Y-91394134D01*
D12*
X63668857Y-97667600D02*
X64583143Y-97667600D01*
X59633619Y-103420838D02*
X59633619Y-101420838D01*
X60490762Y-101611314D02*
X60586000Y-101516076D01*
X60586000Y-101516076D02*
X60776476Y-101420838D01*
X60776476Y-101420838D02*
X61252667Y-101420838D01*
X61252667Y-101420838D02*
X61443143Y-101516076D01*
X61443143Y-101516076D02*
X61538381Y-101611314D01*
X61538381Y-101611314D02*
X61633619Y-101801790D01*
X61633619Y-101801790D02*
X61633619Y-101992266D01*
X61633619Y-101992266D02*
X61538381Y-102277980D01*
X61538381Y-102277980D02*
X60395524Y-103420838D01*
X60395524Y-103420838D02*
X61633619Y-103420838D01*
X63633619Y-103230361D02*
X63538381Y-103325600D01*
X63538381Y-103325600D02*
X63252667Y-103420838D01*
X63252667Y-103420838D02*
X63062191Y-103420838D01*
X63062191Y-103420838D02*
X62776476Y-103325600D01*
X62776476Y-103325600D02*
X62586000Y-103135123D01*
X62586000Y-103135123D02*
X62490762Y-102944647D01*
X62490762Y-102944647D02*
X62395524Y-102563695D01*
X62395524Y-102563695D02*
X62395524Y-102277980D01*
X62395524Y-102277980D02*
X62490762Y-101897028D01*
X62490762Y-101897028D02*
X62586000Y-101706552D01*
X62586000Y-101706552D02*
X62776476Y-101516076D01*
X62776476Y-101516076D02*
X63062191Y-101420838D01*
X63062191Y-101420838D02*
X63252667Y-101420838D01*
X63252667Y-101420838D02*
X63538381Y-101516076D01*
X63538381Y-101516076D02*
X63633619Y-101611314D01*
X63811714Y-93044742D02*
X63811714Y-91844742D01*
X63811714Y-91844742D02*
X64097428Y-91844742D01*
X64097428Y-91844742D02*
X64268857Y-91901885D01*
X64268857Y-91901885D02*
X64383142Y-92016171D01*
X64383142Y-92016171D02*
X64440285Y-92130457D01*
X64440285Y-92130457D02*
X64497428Y-92359028D01*
X64497428Y-92359028D02*
X64497428Y-92530457D01*
X64497428Y-92530457D02*
X64440285Y-92759028D01*
X64440285Y-92759028D02*
X64383142Y-92873314D01*
X64383142Y-92873314D02*
X64268857Y-92987600D01*
X64268857Y-92987600D02*
X64097428Y-93044742D01*
X64097428Y-93044742D02*
X63811714Y-93044742D01*
X37214286Y-92476885D02*
X37785715Y-92476885D01*
X37100000Y-92819742D02*
X37500000Y-91619742D01*
X37500000Y-91619742D02*
X37900000Y-92819742D01*
X63668857Y-95127600D02*
X64583143Y-95127600D01*
X64126000Y-95584742D02*
X64126000Y-94670457D01*
X37042857Y-97612600D02*
X37957143Y-97612600D01*
X45393809Y-103174600D02*
X45679523Y-103269838D01*
X45679523Y-103269838D02*
X46155714Y-103269838D01*
X46155714Y-103269838D02*
X46346190Y-103174600D01*
X46346190Y-103174600D02*
X46441428Y-103079361D01*
X46441428Y-103079361D02*
X46536666Y-102888885D01*
X46536666Y-102888885D02*
X46536666Y-102698409D01*
X46536666Y-102698409D02*
X46441428Y-102507933D01*
X46441428Y-102507933D02*
X46346190Y-102412695D01*
X46346190Y-102412695D02*
X46155714Y-102317457D01*
X46155714Y-102317457D02*
X45774761Y-102222219D01*
X45774761Y-102222219D02*
X45584285Y-102126980D01*
X45584285Y-102126980D02*
X45489047Y-102031742D01*
X45489047Y-102031742D02*
X45393809Y-101841266D01*
X45393809Y-101841266D02*
X45393809Y-101650790D01*
X45393809Y-101650790D02*
X45489047Y-101460314D01*
X45489047Y-101460314D02*
X45584285Y-101365076D01*
X45584285Y-101365076D02*
X45774761Y-101269838D01*
X45774761Y-101269838D02*
X46250952Y-101269838D01*
X46250952Y-101269838D02*
X46536666Y-101365076D01*
X47679523Y-103269838D02*
X47489047Y-103174600D01*
X47489047Y-103174600D02*
X47393809Y-103079361D01*
X47393809Y-103079361D02*
X47298571Y-102888885D01*
X47298571Y-102888885D02*
X47298571Y-102317457D01*
X47298571Y-102317457D02*
X47393809Y-102126980D01*
X47393809Y-102126980D02*
X47489047Y-102031742D01*
X47489047Y-102031742D02*
X47679523Y-101936504D01*
X47679523Y-101936504D02*
X47965238Y-101936504D01*
X47965238Y-101936504D02*
X48155714Y-102031742D01*
X48155714Y-102031742D02*
X48250952Y-102126980D01*
X48250952Y-102126980D02*
X48346190Y-102317457D01*
X48346190Y-102317457D02*
X48346190Y-102888885D01*
X48346190Y-102888885D02*
X48250952Y-103079361D01*
X48250952Y-103079361D02*
X48155714Y-103174600D01*
X48155714Y-103174600D02*
X47965238Y-103269838D01*
X47965238Y-103269838D02*
X47679523Y-103269838D01*
X49203333Y-103269838D02*
X49203333Y-101936504D01*
X49203333Y-101269838D02*
X49108095Y-101365076D01*
X49108095Y-101365076D02*
X49203333Y-101460314D01*
X49203333Y-101460314D02*
X49298571Y-101365076D01*
X49298571Y-101365076D02*
X49203333Y-101269838D01*
X49203333Y-101269838D02*
X49203333Y-101460314D01*
X50441428Y-103269838D02*
X50250952Y-103174600D01*
X50250952Y-103174600D02*
X50155714Y-102984123D01*
X50155714Y-102984123D02*
X50155714Y-101269838D01*
X37042857Y-95362600D02*
X37957143Y-95362600D01*
X37500000Y-95819742D02*
X37500000Y-94905457D01*
X64497428Y-90390457D02*
X64440285Y-90447600D01*
X64440285Y-90447600D02*
X64268857Y-90504742D01*
X64268857Y-90504742D02*
X64154571Y-90504742D01*
X64154571Y-90504742D02*
X63983142Y-90447600D01*
X63983142Y-90447600D02*
X63868857Y-90333314D01*
X63868857Y-90333314D02*
X63811714Y-90219028D01*
X63811714Y-90219028D02*
X63754571Y-89990457D01*
X63754571Y-89990457D02*
X63754571Y-89819028D01*
X63754571Y-89819028D02*
X63811714Y-89590457D01*
X63811714Y-89590457D02*
X63868857Y-89476171D01*
X63868857Y-89476171D02*
X63983142Y-89361885D01*
X63983142Y-89361885D02*
X64154571Y-89304742D01*
X64154571Y-89304742D02*
X64268857Y-89304742D01*
X64268857Y-89304742D02*
X64440285Y-89361885D01*
X64440285Y-89361885D02*
X64497428Y-89419028D01*
D13*
G36*
X80890265Y-103099595D02*
G01*
X80864910Y-103127154D01*
X80759656Y-103232585D01*
X80640404Y-103331137D01*
X80570666Y-103373641D01*
X80422784Y-103411737D01*
X80332069Y-103403339D01*
X80197836Y-103340662D01*
X80147827Y-103278289D01*
X80115771Y-103134033D01*
X80141416Y-103006538D01*
X80222749Y-102901025D01*
X80233480Y-102892544D01*
X80367096Y-102828485D01*
X80432639Y-102813467D01*
X80583251Y-102802107D01*
X80890265Y-102802107D01*
X80890265Y-103099595D01*
G37*
G36*
X96711328Y-101958248D02*
G01*
X96856420Y-101985847D01*
X96865779Y-101989445D01*
X96988311Y-102071577D01*
X97005563Y-102090435D01*
X97077704Y-102218855D01*
X97094948Y-102277273D01*
X97109211Y-102426950D01*
X96239462Y-102426950D01*
X96248975Y-102359580D01*
X96296314Y-102207526D01*
X96383810Y-102081102D01*
X96407215Y-102059103D01*
X96542208Y-101981565D01*
X96695219Y-101958004D01*
X96711328Y-101958248D01*
G37*
G36*
X75907825Y-101493694D02*
G01*
X76054256Y-101522030D01*
X76098665Y-101537823D01*
X76228646Y-101616552D01*
X76253238Y-101640560D01*
X76331228Y-101766029D01*
X76346294Y-101810863D01*
X76365666Y-101960202D01*
X76362826Y-102024054D01*
X76329762Y-102171960D01*
X76312442Y-102212052D01*
X76224249Y-102334626D01*
X76187796Y-102366362D01*
X76054256Y-102437941D01*
X75974091Y-102459820D01*
X75821249Y-102473845D01*
X75539148Y-102473845D01*
X75539148Y-101489057D01*
X75805129Y-101489057D01*
X75907825Y-101493694D01*
G37*
G36*
X87440972Y-101493694D02*
G01*
X87587404Y-101522030D01*
X87631812Y-101537823D01*
X87761793Y-101616552D01*
X87786385Y-101640560D01*
X87864375Y-101766029D01*
X87879442Y-101810863D01*
X87898813Y-101960202D01*
X87895973Y-102024054D01*
X87862909Y-102171960D01*
X87845589Y-102212052D01*
X87757397Y-102334626D01*
X87720943Y-102366362D01*
X87587404Y-102437941D01*
X87507238Y-102459820D01*
X87354396Y-102473845D01*
X87072295Y-102473845D01*
X87072295Y-101489057D01*
X87338276Y-101489057D01*
X87440972Y-101493694D01*
G37*
G36*
X97953256Y-104120227D02*
G01*
X74695103Y-104120227D01*
X74695103Y-101067006D01*
X75028436Y-101067006D01*
X75028436Y-101489057D01*
X75028436Y-103740000D01*
X75539148Y-103740000D01*
X77355582Y-103740000D01*
X79138311Y-103740000D01*
X79138311Y-103364842D01*
X78534542Y-103364842D01*
X78534542Y-103125973D01*
X79588206Y-103125973D01*
X79588725Y-103134033D01*
X79596200Y-103250073D01*
X79629972Y-103395617D01*
X79667409Y-103481896D01*
X79754535Y-103603712D01*
X79828218Y-103667674D01*
X79958967Y-103738534D01*
X80090491Y-103774804D01*
X80241800Y-103786894D01*
X80315502Y-103784533D01*
X80464549Y-103762714D01*
X80514833Y-103749708D01*
X80653593Y-103695303D01*
X80690719Y-103675368D01*
X80811863Y-103592721D01*
X80843283Y-103566194D01*
X80950348Y-103462295D01*
X80962805Y-103740000D01*
X81392916Y-103740000D01*
X81956385Y-103740000D01*
X82459036Y-103740000D01*
X82459036Y-102393977D01*
X82507208Y-102329285D01*
X82600768Y-102215667D01*
X82705233Y-102109678D01*
X82801707Y-102041837D01*
X82949232Y-102004898D01*
X82964965Y-102005240D01*
X83114802Y-102062581D01*
X83188971Y-102201499D01*
X83204954Y-102354410D01*
X83204954Y-103740000D01*
X83708339Y-103740000D01*
X83708339Y-102322903D01*
X83708299Y-102312401D01*
X83698264Y-102162435D01*
X83668039Y-102018087D01*
X83663047Y-102004898D01*
X84098150Y-102004898D01*
X84660886Y-102004898D01*
X84660886Y-103046106D01*
X84661291Y-103081775D01*
X84673914Y-103235968D01*
X84707048Y-103378764D01*
X84757758Y-103491324D01*
X84851395Y-103608841D01*
X84962404Y-103687426D01*
X85099057Y-103742930D01*
X85157095Y-103757871D01*
X85307942Y-103780712D01*
X85454431Y-103786894D01*
X85565448Y-103784370D01*
X85716015Y-103773705D01*
X85844836Y-103760095D01*
X85990055Y-103740000D01*
X85990055Y-103317948D01*
X85921049Y-103330109D01*
X85775366Y-103350921D01*
X85686511Y-103359404D01*
X85534298Y-103364842D01*
X85386215Y-103347171D01*
X85258060Y-103272519D01*
X85194026Y-103149037D01*
X85175994Y-102999211D01*
X85175994Y-102004898D01*
X85990055Y-102004898D01*
X85990055Y-101629741D01*
X85175994Y-101629741D01*
X85175994Y-101067006D01*
X86561584Y-101067006D01*
X86561584Y-101489057D01*
X86561584Y-103740000D01*
X87072295Y-103740000D01*
X87072295Y-102895896D01*
X87330216Y-102895896D01*
X87347142Y-102895826D01*
X87509315Y-102887411D01*
X87658608Y-102864971D01*
X87807955Y-102824089D01*
X87895059Y-102789618D01*
X88029046Y-102717799D01*
X88152337Y-102621856D01*
X88201848Y-102571272D01*
X88292507Y-102450185D01*
X88360432Y-102313377D01*
X88391207Y-102222336D01*
X88420882Y-102078217D01*
X88430774Y-101925031D01*
X88429039Y-101861604D01*
X88408286Y-101707411D01*
X88382915Y-101629741D01*
X88871877Y-101629741D01*
X88871877Y-103045373D01*
X88871916Y-103055874D01*
X88881952Y-103205840D01*
X88912177Y-103350188D01*
X88951451Y-103454038D01*
X89032344Y-103583196D01*
X89104362Y-103655120D01*
X89233112Y-103734138D01*
X89364087Y-103773705D01*
X89515212Y-103786894D01*
X89577532Y-103784808D01*
X89722575Y-103760516D01*
X89757230Y-103750178D01*
X89895498Y-103688709D01*
X89924788Y-103670453D01*
X90042777Y-103575868D01*
X90076711Y-103541659D01*
X90176866Y-103428590D01*
X90189323Y-103740000D01*
X90623831Y-103740000D01*
X91195359Y-103740000D01*
X92978087Y-103740000D01*
X93524703Y-103740000D01*
X93576724Y-103746829D01*
X93727712Y-103763098D01*
X93874947Y-103774438D01*
X93982817Y-103780459D01*
X94137824Y-103785422D01*
X94291137Y-103786894D01*
X94334253Y-103786322D01*
X94483358Y-103775302D01*
X94629658Y-103750258D01*
X94640018Y-103747971D01*
X94787011Y-103703363D01*
X94926413Y-103634487D01*
X95044565Y-103542163D01*
X95136706Y-103426392D01*
X95146377Y-103410246D01*
X95201286Y-103266036D01*
X95216573Y-103117913D01*
X95213353Y-103044082D01*
X95183600Y-102900293D01*
X95161691Y-102847980D01*
X95075157Y-102729567D01*
X95072557Y-102727369D01*
X95719958Y-102727369D01*
X95726755Y-102883474D01*
X95749936Y-103041306D01*
X95789567Y-103184591D01*
X95823287Y-103267809D01*
X95894796Y-103396437D01*
X95991800Y-103515785D01*
X96052272Y-103571328D01*
X96179275Y-103657922D01*
X96313468Y-103718750D01*
X96436872Y-103754686D01*
X96583692Y-103778842D01*
X96742114Y-103786894D01*
X96789787Y-103786482D01*
X96937752Y-103780300D01*
X96988173Y-103776590D01*
X97137787Y-103760516D01*
X97180854Y-103754570D01*
X97331228Y-103730474D01*
X97360426Y-103725118D01*
X97506350Y-103693105D01*
X97506350Y-103271053D01*
X97448054Y-103285944D01*
X97299497Y-103318297D01*
X97144382Y-103342861D01*
X97112008Y-103346789D01*
X96965869Y-103360012D01*
X96818318Y-103364842D01*
X96722697Y-103359690D01*
X96577983Y-103328206D01*
X96519417Y-103304578D01*
X96391870Y-103220495D01*
X96347148Y-103172782D01*
X96272435Y-103044640D01*
X96245393Y-102954064D01*
X96230669Y-102802107D01*
X97607466Y-102802107D01*
X97607875Y-102797609D01*
X97616992Y-102648234D01*
X97619923Y-102513412D01*
X97617810Y-102438184D01*
X97598741Y-102283144D01*
X97559839Y-102138988D01*
X97544120Y-102097039D01*
X97475217Y-101961759D01*
X97384717Y-101844431D01*
X97355076Y-101814332D01*
X97237447Y-101722509D01*
X97098220Y-101651723D01*
X96998072Y-101618428D01*
X96851738Y-101590985D01*
X96704745Y-101582847D01*
X96595248Y-101587976D01*
X96440791Y-101614904D01*
X96298080Y-101664912D01*
X96220853Y-101704112D01*
X96091199Y-101794399D01*
X95987404Y-101897920D01*
X95920209Y-101987223D01*
X95844680Y-102121261D01*
X95789567Y-102259155D01*
X95785284Y-102272389D01*
X95747149Y-102423916D01*
X95746729Y-102426950D01*
X95726755Y-102571134D01*
X95719958Y-102727369D01*
X95072557Y-102727369D01*
X95006329Y-102671381D01*
X94876587Y-102595478D01*
X94860882Y-102588087D01*
X94718962Y-102531026D01*
X94571039Y-102484103D01*
X94450938Y-102448401D01*
X94312386Y-102400572D01*
X94294487Y-102393322D01*
X94159979Y-102326566D01*
X94086706Y-102253293D01*
X94068387Y-102168297D01*
X94071685Y-102132722D01*
X94162177Y-102013691D01*
X94263467Y-101973720D01*
X94410572Y-101958004D01*
X94420237Y-101958024D01*
X94575667Y-101964001D01*
X94722714Y-101979253D01*
X94772481Y-101986627D01*
X94917538Y-102015077D01*
X95059769Y-102051793D01*
X95059769Y-101629741D01*
X94942132Y-101613899D01*
X94790125Y-101597501D01*
X94741389Y-101593279D01*
X94593126Y-101585265D01*
X94439881Y-101582847D01*
X94342348Y-101585231D01*
X94188200Y-101600412D01*
X94039811Y-101632672D01*
X94029195Y-101635822D01*
X93883007Y-101691657D01*
X93754047Y-101768960D01*
X93670485Y-101843331D01*
X93581856Y-101968995D01*
X93544852Y-102064287D01*
X93524703Y-102212260D01*
X93529205Y-102299457D01*
X93562805Y-102443803D01*
X93587251Y-102497532D01*
X93677110Y-102617459D01*
X93739930Y-102670731D01*
X93869818Y-102747152D01*
X93995847Y-102799359D01*
X94140928Y-102846071D01*
X94266024Y-102883317D01*
X94410572Y-102932533D01*
X94435668Y-102942035D01*
X94570307Y-103007271D01*
X94647976Y-103082742D01*
X94668492Y-103169937D01*
X94660726Y-103227336D01*
X94570307Y-103345059D01*
X94428910Y-103398974D01*
X94275017Y-103411737D01*
X94220917Y-103410932D01*
X94063919Y-103400113D01*
X93910851Y-103378764D01*
X93814451Y-103359393D01*
X93669680Y-103320890D01*
X93524703Y-103271053D01*
X93524703Y-103740000D01*
X92978087Y-103740000D01*
X92978087Y-103364842D01*
X92374319Y-103364842D01*
X92374319Y-100832533D01*
X91267166Y-100832533D01*
X91267166Y-101207690D01*
X91858478Y-101207690D01*
X91858478Y-103364842D01*
X91195359Y-103364842D01*
X91195359Y-103740000D01*
X90623831Y-103740000D01*
X90623831Y-101629741D01*
X90121179Y-101629741D01*
X90121179Y-102973565D01*
X90073008Y-103038532D01*
X89979447Y-103152700D01*
X89874982Y-103259330D01*
X89778872Y-103327645D01*
X89633182Y-103364842D01*
X89565092Y-103357829D01*
X89439009Y-103276182D01*
X89391198Y-103165907D01*
X89375261Y-103013866D01*
X89375261Y-101629741D01*
X88871877Y-101629741D01*
X88382915Y-101629741D01*
X88359699Y-101558667D01*
X88340900Y-101519523D01*
X88258875Y-101394962D01*
X88151605Y-101289755D01*
X88088573Y-101244515D01*
X87955142Y-101173893D01*
X87813084Y-101124159D01*
X87800477Y-101120642D01*
X87653956Y-101089331D01*
X87508283Y-101072587D01*
X87350732Y-101067006D01*
X86561584Y-101067006D01*
X85175994Y-101067006D01*
X85175994Y-100973217D01*
X84660886Y-101104375D01*
X84660886Y-101629741D01*
X84098150Y-101629741D01*
X84098150Y-102004898D01*
X83663047Y-102004898D01*
X83628644Y-101914005D01*
X83547138Y-101785812D01*
X83475595Y-101714483D01*
X83347103Y-101636336D01*
X83217411Y-101596219D01*
X83067201Y-101582847D01*
X83003877Y-101584817D01*
X82858374Y-101607759D01*
X82824164Y-101617875D01*
X82685450Y-101679567D01*
X82650998Y-101701030D01*
X82535973Y-101793140D01*
X82501855Y-101827395D01*
X82403349Y-101941151D01*
X82390893Y-101629741D01*
X81956385Y-101629741D01*
X81956385Y-103740000D01*
X81392916Y-103740000D01*
X81392916Y-102297990D01*
X81392866Y-102286859D01*
X81379911Y-102130378D01*
X81340893Y-101985115D01*
X81285074Y-101876342D01*
X81181158Y-101761632D01*
X81049964Y-101679267D01*
X80906385Y-101627543D01*
X80807550Y-101605937D01*
X80659361Y-101588128D01*
X80507048Y-101582847D01*
X80401764Y-101584541D01*
X80247444Y-101593437D01*
X80097452Y-101609958D01*
X80049081Y-101616770D01*
X79901836Y-101641914D01*
X79750872Y-101676636D01*
X79750872Y-102098688D01*
X79814731Y-102074739D01*
X79955743Y-102030098D01*
X80100383Y-101995373D01*
X80168158Y-101982673D01*
X80316240Y-101964171D01*
X80466015Y-101958004D01*
X80515518Y-101959161D01*
X80663119Y-101982184D01*
X80794277Y-102051060D01*
X80867550Y-102160237D01*
X80890265Y-102303119D01*
X80890265Y-102426950D01*
X80616224Y-102426950D01*
X80475594Y-102431123D01*
X80318038Y-102447558D01*
X80164131Y-102479706D01*
X80116950Y-102493514D01*
X79977370Y-102546927D01*
X79842463Y-102624787D01*
X79736579Y-102719390D01*
X79651221Y-102846071D01*
X79603960Y-102980160D01*
X79588206Y-103125973D01*
X78534542Y-103125973D01*
X78534542Y-100832533D01*
X77427390Y-100832533D01*
X77427390Y-101207690D01*
X78018702Y-101207690D01*
X78018702Y-103364842D01*
X77355582Y-103364842D01*
X77355582Y-103740000D01*
X75539148Y-103740000D01*
X75539148Y-102895896D01*
X75797069Y-102895896D01*
X75813994Y-102895826D01*
X75976168Y-102887411D01*
X76125461Y-102864971D01*
X76274808Y-102824089D01*
X76361912Y-102789618D01*
X76495898Y-102717799D01*
X76619190Y-102621856D01*
X76668701Y-102571272D01*
X76759360Y-102450185D01*
X76827285Y-102313377D01*
X76858060Y-102222336D01*
X76887735Y-102078217D01*
X76897627Y-101925031D01*
X76895892Y-101861604D01*
X76875138Y-101707411D01*
X76826552Y-101558667D01*
X76807753Y-101519523D01*
X76725728Y-101394962D01*
X76618457Y-101289755D01*
X76555425Y-101244515D01*
X76421994Y-101173893D01*
X76279937Y-101124159D01*
X76267329Y-101120642D01*
X76120809Y-101089331D01*
X75975136Y-101072587D01*
X75817585Y-101067006D01*
X75028436Y-101067006D01*
X74695103Y-101067006D01*
X74695103Y-100499200D01*
X97953256Y-100499200D01*
X97953256Y-104120227D01*
G37*
D10*
X34916667Y-87118633D02*
X35350000Y-87118633D01*
X35350000Y-87118633D02*
X35116667Y-87385300D01*
X35116667Y-87385300D02*
X35216667Y-87385300D01*
X35216667Y-87385300D02*
X35283333Y-87418633D01*
X35283333Y-87418633D02*
X35316667Y-87451966D01*
X35316667Y-87451966D02*
X35350000Y-87518633D01*
X35350000Y-87518633D02*
X35350000Y-87685300D01*
X35350000Y-87685300D02*
X35316667Y-87751966D01*
X35316667Y-87751966D02*
X35283333Y-87785300D01*
X35283333Y-87785300D02*
X35216667Y-87818633D01*
X35216667Y-87818633D02*
X35016667Y-87818633D01*
X35016667Y-87818633D02*
X34950000Y-87785300D01*
X34950000Y-87785300D02*
X34916667Y-87751966D01*
X35583334Y-87351966D02*
X35750000Y-87818633D01*
X35750000Y-87818633D02*
X35916667Y-87351966D01*
X36116667Y-87118633D02*
X36550000Y-87118633D01*
X36550000Y-87118633D02*
X36316667Y-87385300D01*
X36316667Y-87385300D02*
X36416667Y-87385300D01*
X36416667Y-87385300D02*
X36483333Y-87418633D01*
X36483333Y-87418633D02*
X36516667Y-87451966D01*
X36516667Y-87451966D02*
X36550000Y-87518633D01*
X36550000Y-87518633D02*
X36550000Y-87685300D01*
X36550000Y-87685300D02*
X36516667Y-87751966D01*
X36516667Y-87751966D02*
X36483333Y-87785300D01*
X36483333Y-87785300D02*
X36416667Y-87818633D01*
X36416667Y-87818633D02*
X36216667Y-87818633D01*
X36216667Y-87818633D02*
X36150000Y-87785300D01*
X36150000Y-87785300D02*
X36116667Y-87751966D01*
D14*
X76430819Y-80976666D02*
X75954628Y-81309999D01*
X76430819Y-81548094D02*
X75430819Y-81548094D01*
X75430819Y-81548094D02*
X75430819Y-81167142D01*
X75430819Y-81167142D02*
X75478438Y-81071904D01*
X75478438Y-81071904D02*
X75526057Y-81024285D01*
X75526057Y-81024285D02*
X75621295Y-80976666D01*
X75621295Y-80976666D02*
X75764152Y-80976666D01*
X75764152Y-80976666D02*
X75859390Y-81024285D01*
X75859390Y-81024285D02*
X75907009Y-81071904D01*
X75907009Y-81071904D02*
X75954628Y-81167142D01*
X75954628Y-81167142D02*
X75954628Y-81548094D01*
X76430819Y-80024285D02*
X76430819Y-80595713D01*
X76430819Y-80309999D02*
X75430819Y-80309999D01*
X75430819Y-80309999D02*
X75573676Y-80405237D01*
X75573676Y-80405237D02*
X75668914Y-80500475D01*
X75668914Y-80500475D02*
X75716533Y-80595713D01*
X63680819Y-70709333D02*
X64395104Y-70709333D01*
X64395104Y-70709333D02*
X64537961Y-70756952D01*
X64537961Y-70756952D02*
X64633200Y-70852190D01*
X64633200Y-70852190D02*
X64680819Y-70995047D01*
X64680819Y-70995047D02*
X64680819Y-71090285D01*
X64680819Y-69709333D02*
X64680819Y-70280761D01*
X64680819Y-69995047D02*
X63680819Y-69995047D01*
X63680819Y-69995047D02*
X63823676Y-70090285D01*
X63823676Y-70090285D02*
X63918914Y-70185523D01*
X63918914Y-70185523D02*
X63966533Y-70280761D01*
D10*
X68193333Y-97043633D02*
X68426667Y-97743633D01*
X68426667Y-97743633D02*
X68660000Y-97043633D01*
X68893333Y-97743633D02*
X68893333Y-97043633D01*
X68893333Y-97310300D02*
X68960000Y-97276966D01*
X68960000Y-97276966D02*
X69093333Y-97276966D01*
X69093333Y-97276966D02*
X69160000Y-97310300D01*
X69160000Y-97310300D02*
X69193333Y-97343633D01*
X69193333Y-97343633D02*
X69226667Y-97410300D01*
X69226667Y-97410300D02*
X69226667Y-97610300D01*
X69226667Y-97610300D02*
X69193333Y-97676966D01*
X69193333Y-97676966D02*
X69160000Y-97710300D01*
X69160000Y-97710300D02*
X69093333Y-97743633D01*
X69093333Y-97743633D02*
X68960000Y-97743633D01*
X68960000Y-97743633D02*
X68893333Y-97710300D01*
X69826666Y-97743633D02*
X69826666Y-97376966D01*
X69826666Y-97376966D02*
X69793333Y-97310300D01*
X69793333Y-97310300D02*
X69726666Y-97276966D01*
X69726666Y-97276966D02*
X69593333Y-97276966D01*
X69593333Y-97276966D02*
X69526666Y-97310300D01*
X69826666Y-97710300D02*
X69760000Y-97743633D01*
X69760000Y-97743633D02*
X69593333Y-97743633D01*
X69593333Y-97743633D02*
X69526666Y-97710300D01*
X69526666Y-97710300D02*
X69493333Y-97643633D01*
X69493333Y-97643633D02*
X69493333Y-97576966D01*
X69493333Y-97576966D02*
X69526666Y-97510300D01*
X69526666Y-97510300D02*
X69593333Y-97476966D01*
X69593333Y-97476966D02*
X69760000Y-97476966D01*
X69760000Y-97476966D02*
X69826666Y-97443633D01*
X70059999Y-97276966D02*
X70326666Y-97276966D01*
X70159999Y-97043633D02*
X70159999Y-97643633D01*
X70159999Y-97643633D02*
X70193333Y-97710300D01*
X70193333Y-97710300D02*
X70259999Y-97743633D01*
X70259999Y-97743633D02*
X70326666Y-97743633D01*
X70459999Y-97276966D02*
X70726666Y-97276966D01*
X70559999Y-97043633D02*
X70559999Y-97643633D01*
X70559999Y-97643633D02*
X70593333Y-97710300D01*
X70593333Y-97710300D02*
X70659999Y-97743633D01*
X70659999Y-97743633D02*
X70726666Y-97743633D01*
X32466667Y-75618633D02*
X32700001Y-76318633D01*
X32700001Y-76318633D02*
X32933334Y-75618633D01*
X33166667Y-76318633D02*
X33166667Y-75618633D01*
X33166667Y-75885300D02*
X33233334Y-75851966D01*
X33233334Y-75851966D02*
X33366667Y-75851966D01*
X33366667Y-75851966D02*
X33433334Y-75885300D01*
X33433334Y-75885300D02*
X33466667Y-75918633D01*
X33466667Y-75918633D02*
X33500001Y-75985300D01*
X33500001Y-75985300D02*
X33500001Y-76185300D01*
X33500001Y-76185300D02*
X33466667Y-76251966D01*
X33466667Y-76251966D02*
X33433334Y-76285300D01*
X33433334Y-76285300D02*
X33366667Y-76318633D01*
X33366667Y-76318633D02*
X33233334Y-76318633D01*
X33233334Y-76318633D02*
X33166667Y-76285300D01*
X34100000Y-76318633D02*
X34100000Y-75951966D01*
X34100000Y-75951966D02*
X34066667Y-75885300D01*
X34066667Y-75885300D02*
X34000000Y-75851966D01*
X34000000Y-75851966D02*
X33866667Y-75851966D01*
X33866667Y-75851966D02*
X33800000Y-75885300D01*
X34100000Y-76285300D02*
X34033334Y-76318633D01*
X34033334Y-76318633D02*
X33866667Y-76318633D01*
X33866667Y-76318633D02*
X33800000Y-76285300D01*
X33800000Y-76285300D02*
X33766667Y-76218633D01*
X33766667Y-76218633D02*
X33766667Y-76151966D01*
X33766667Y-76151966D02*
X33800000Y-76085300D01*
X33800000Y-76085300D02*
X33866667Y-76051966D01*
X33866667Y-76051966D02*
X34033334Y-76051966D01*
X34033334Y-76051966D02*
X34100000Y-76018633D01*
X34333333Y-75851966D02*
X34600000Y-75851966D01*
X34433333Y-75618633D02*
X34433333Y-76218633D01*
X34433333Y-76218633D02*
X34466667Y-76285300D01*
X34466667Y-76285300D02*
X34533333Y-76318633D01*
X34533333Y-76318633D02*
X34600000Y-76318633D01*
X34733333Y-75851966D02*
X35000000Y-75851966D01*
X34833333Y-75618633D02*
X34833333Y-76218633D01*
X34833333Y-76218633D02*
X34866667Y-76285300D01*
X34866667Y-76285300D02*
X34933333Y-76318633D01*
X34933333Y-76318633D02*
X35000000Y-76318633D01*
X35066667Y-76385300D02*
X35600000Y-76385300D01*
X36066666Y-76318633D02*
X36066666Y-75618633D01*
X36066666Y-76285300D02*
X36000000Y-76318633D01*
X36000000Y-76318633D02*
X35866666Y-76318633D01*
X35866666Y-76318633D02*
X35800000Y-76285300D01*
X35800000Y-76285300D02*
X35766666Y-76251966D01*
X35766666Y-76251966D02*
X35733333Y-76185300D01*
X35733333Y-76185300D02*
X35733333Y-75985300D01*
X35733333Y-75985300D02*
X35766666Y-75918633D01*
X35766666Y-75918633D02*
X35800000Y-75885300D01*
X35800000Y-75885300D02*
X35866666Y-75851966D01*
X35866666Y-75851966D02*
X36000000Y-75851966D01*
X36000000Y-75851966D02*
X36066666Y-75885300D01*
X36399999Y-76318633D02*
X36399999Y-75851966D01*
X36399999Y-75618633D02*
X36366666Y-75651966D01*
X36366666Y-75651966D02*
X36399999Y-75685300D01*
X36399999Y-75685300D02*
X36433333Y-75651966D01*
X36433333Y-75651966D02*
X36399999Y-75618633D01*
X36399999Y-75618633D02*
X36399999Y-75685300D01*
X36666666Y-75851966D02*
X36833332Y-76318633D01*
X36833332Y-76318633D02*
X36999999Y-75851966D01*
X66815333Y-89996633D02*
X66815333Y-89296633D01*
X66815333Y-89296633D02*
X66982000Y-89296633D01*
X66982000Y-89296633D02*
X67082000Y-89329966D01*
X67082000Y-89329966D02*
X67148667Y-89396633D01*
X67148667Y-89396633D02*
X67182000Y-89463300D01*
X67182000Y-89463300D02*
X67215333Y-89596633D01*
X67215333Y-89596633D02*
X67215333Y-89696633D01*
X67215333Y-89696633D02*
X67182000Y-89829966D01*
X67182000Y-89829966D02*
X67148667Y-89896633D01*
X67148667Y-89896633D02*
X67082000Y-89963300D01*
X67082000Y-89963300D02*
X66982000Y-89996633D01*
X66982000Y-89996633D02*
X66815333Y-89996633D01*
X67515333Y-89996633D02*
X67515333Y-89296633D01*
X67515333Y-89296633D02*
X67915333Y-89996633D01*
X67915333Y-89996633D02*
X67915333Y-89296633D01*
X68248666Y-89629966D02*
X68482000Y-89629966D01*
X68582000Y-89996633D02*
X68248666Y-89996633D01*
X68248666Y-89996633D02*
X68248666Y-89296633D01*
X68248666Y-89296633D02*
X68582000Y-89296633D01*
X74006667Y-97076966D02*
X73940000Y-97043633D01*
X73940000Y-97043633D02*
X73840000Y-97043633D01*
X73840000Y-97043633D02*
X73740000Y-97076966D01*
X73740000Y-97076966D02*
X73673334Y-97143633D01*
X73673334Y-97143633D02*
X73640000Y-97210300D01*
X73640000Y-97210300D02*
X73606667Y-97343633D01*
X73606667Y-97343633D02*
X73606667Y-97443633D01*
X73606667Y-97443633D02*
X73640000Y-97576966D01*
X73640000Y-97576966D02*
X73673334Y-97643633D01*
X73673334Y-97643633D02*
X73740000Y-97710300D01*
X73740000Y-97710300D02*
X73840000Y-97743633D01*
X73840000Y-97743633D02*
X73906667Y-97743633D01*
X73906667Y-97743633D02*
X74006667Y-97710300D01*
X74006667Y-97710300D02*
X74040000Y-97676966D01*
X74040000Y-97676966D02*
X74040000Y-97443633D01*
X74040000Y-97443633D02*
X73906667Y-97443633D01*
X74340000Y-97743633D02*
X74340000Y-97043633D01*
X74340000Y-97043633D02*
X74740000Y-97743633D01*
X74740000Y-97743633D02*
X74740000Y-97043633D01*
X75073333Y-97743633D02*
X75073333Y-97043633D01*
X75073333Y-97043633D02*
X75240000Y-97043633D01*
X75240000Y-97043633D02*
X75340000Y-97076966D01*
X75340000Y-97076966D02*
X75406667Y-97143633D01*
X75406667Y-97143633D02*
X75440000Y-97210300D01*
X75440000Y-97210300D02*
X75473333Y-97343633D01*
X75473333Y-97343633D02*
X75473333Y-97443633D01*
X75473333Y-97443633D02*
X75440000Y-97576966D01*
X75440000Y-97576966D02*
X75406667Y-97643633D01*
X75406667Y-97643633D02*
X75340000Y-97710300D01*
X75340000Y-97710300D02*
X75240000Y-97743633D01*
X75240000Y-97743633D02*
X75073333Y-97743633D01*
X34283333Y-84911300D02*
X34383333Y-84944633D01*
X34383333Y-84944633D02*
X34550000Y-84944633D01*
X34550000Y-84944633D02*
X34616666Y-84911300D01*
X34616666Y-84911300D02*
X34650000Y-84877966D01*
X34650000Y-84877966D02*
X34683333Y-84811300D01*
X34683333Y-84811300D02*
X34683333Y-84744633D01*
X34683333Y-84744633D02*
X34650000Y-84677966D01*
X34650000Y-84677966D02*
X34616666Y-84644633D01*
X34616666Y-84644633D02*
X34550000Y-84611300D01*
X34550000Y-84611300D02*
X34416666Y-84577966D01*
X34416666Y-84577966D02*
X34350000Y-84544633D01*
X34350000Y-84544633D02*
X34316666Y-84511300D01*
X34316666Y-84511300D02*
X34283333Y-84444633D01*
X34283333Y-84444633D02*
X34283333Y-84377966D01*
X34283333Y-84377966D02*
X34316666Y-84311300D01*
X34316666Y-84311300D02*
X34350000Y-84277966D01*
X34350000Y-84277966D02*
X34416666Y-84244633D01*
X34416666Y-84244633D02*
X34583333Y-84244633D01*
X34583333Y-84244633D02*
X34683333Y-84277966D01*
X35083333Y-84944633D02*
X35016667Y-84911300D01*
X35016667Y-84911300D02*
X34983333Y-84877966D01*
X34983333Y-84877966D02*
X34950000Y-84811300D01*
X34950000Y-84811300D02*
X34950000Y-84611300D01*
X34950000Y-84611300D02*
X34983333Y-84544633D01*
X34983333Y-84544633D02*
X35016667Y-84511300D01*
X35016667Y-84511300D02*
X35083333Y-84477966D01*
X35083333Y-84477966D02*
X35183333Y-84477966D01*
X35183333Y-84477966D02*
X35250000Y-84511300D01*
X35250000Y-84511300D02*
X35283333Y-84544633D01*
X35283333Y-84544633D02*
X35316667Y-84611300D01*
X35316667Y-84611300D02*
X35316667Y-84811300D01*
X35316667Y-84811300D02*
X35283333Y-84877966D01*
X35283333Y-84877966D02*
X35250000Y-84911300D01*
X35250000Y-84911300D02*
X35183333Y-84944633D01*
X35183333Y-84944633D02*
X35083333Y-84944633D01*
X35616666Y-84944633D02*
X35616666Y-84477966D01*
X35616666Y-84244633D02*
X35583333Y-84277966D01*
X35583333Y-84277966D02*
X35616666Y-84311300D01*
X35616666Y-84311300D02*
X35650000Y-84277966D01*
X35650000Y-84277966D02*
X35616666Y-84244633D01*
X35616666Y-84244633D02*
X35616666Y-84311300D01*
X36049999Y-84944633D02*
X35983333Y-84911300D01*
X35983333Y-84911300D02*
X35949999Y-84844633D01*
X35949999Y-84844633D02*
X35949999Y-84244633D01*
X36150000Y-85011300D02*
X36683333Y-85011300D01*
X37149999Y-84477966D02*
X37149999Y-84944633D01*
X36983333Y-84211300D02*
X36816666Y-84711300D01*
X36816666Y-84711300D02*
X37249999Y-84711300D01*
D14*
X76430819Y-70166666D02*
X75954628Y-70499999D01*
X76430819Y-70738094D02*
X75430819Y-70738094D01*
X75430819Y-70738094D02*
X75430819Y-70357142D01*
X75430819Y-70357142D02*
X75478438Y-70261904D01*
X75478438Y-70261904D02*
X75526057Y-70214285D01*
X75526057Y-70214285D02*
X75621295Y-70166666D01*
X75621295Y-70166666D02*
X75764152Y-70166666D01*
X75764152Y-70166666D02*
X75859390Y-70214285D01*
X75859390Y-70214285D02*
X75907009Y-70261904D01*
X75907009Y-70261904D02*
X75954628Y-70357142D01*
X75954628Y-70357142D02*
X75954628Y-70738094D01*
X75526057Y-69785713D02*
X75478438Y-69738094D01*
X75478438Y-69738094D02*
X75430819Y-69642856D01*
X75430819Y-69642856D02*
X75430819Y-69404761D01*
X75430819Y-69404761D02*
X75478438Y-69309523D01*
X75478438Y-69309523D02*
X75526057Y-69261904D01*
X75526057Y-69261904D02*
X75621295Y-69214285D01*
X75621295Y-69214285D02*
X75716533Y-69214285D01*
X75716533Y-69214285D02*
X75859390Y-69261904D01*
X75859390Y-69261904D02*
X76430819Y-69833332D01*
X76430819Y-69833332D02*
X76430819Y-69214285D01*
D15*
%TO.C,TP6*%
X38950000Y-87500000D02*
G75*
G02*
X37050000Y-87500000I-950000J0D01*
G01*
X37050000Y-87500000D02*
G75*
G02*
X38950000Y-87500000I950000J0D01*
G01*
%TO.C,J4*%
X44000000Y-91170000D02*
X45330000Y-91170000D01*
X44000000Y-92500000D02*
X44000000Y-91170000D01*
X44000000Y-93770000D02*
X44000000Y-98910000D01*
X44000000Y-93770000D02*
X46660000Y-93770000D01*
X44000000Y-98910000D02*
X46660000Y-98910000D01*
X46660000Y-93770000D02*
X46660000Y-98910000D01*
%TO.C,R1*%
X74630000Y-77540000D02*
X74960000Y-77540000D01*
X74630000Y-84080000D02*
X74630000Y-77540000D01*
X74960000Y-84080000D02*
X74630000Y-84080000D01*
X77040000Y-84080000D02*
X77370000Y-84080000D01*
X77370000Y-77540000D02*
X77040000Y-77540000D01*
X77370000Y-84080000D02*
X77370000Y-77540000D01*
%TO.C,J1*%
X60620000Y-63450000D02*
X61950000Y-63450000D01*
X60620000Y-64560000D02*
X60620000Y-63450000D01*
X60620000Y-66020000D02*
X65820000Y-66020000D01*
X60620000Y-74650000D02*
X60620000Y-66020000D01*
X60620000Y-74650000D02*
X65820000Y-74650000D01*
X60740000Y-74650000D02*
X60740000Y-66020000D01*
X60858095Y-74650000D02*
X60858095Y-66020000D01*
X60976190Y-74650000D02*
X60976190Y-66020000D01*
X61094285Y-74650000D02*
X61094285Y-66020000D01*
X61212380Y-74650000D02*
X61212380Y-66020000D01*
X61330475Y-74650000D02*
X61330475Y-66020000D01*
X61448570Y-74650000D02*
X61448570Y-66020000D01*
X61566665Y-74650000D02*
X61566665Y-66020000D01*
X61590000Y-66020000D02*
X61590000Y-65670000D01*
X61684760Y-74650000D02*
X61684760Y-66020000D01*
X61802855Y-74650000D02*
X61802855Y-66020000D01*
X61920950Y-74650000D02*
X61920950Y-66020000D01*
X62039045Y-74650000D02*
X62039045Y-66020000D01*
X62157140Y-74650000D02*
X62157140Y-66020000D01*
X62275235Y-74650000D02*
X62275235Y-66020000D01*
X62310000Y-66020000D02*
X62310000Y-65670000D01*
X62393330Y-74650000D02*
X62393330Y-66020000D01*
X62511425Y-74650000D02*
X62511425Y-66020000D01*
X62629520Y-74650000D02*
X62629520Y-66020000D01*
X62747615Y-74650000D02*
X62747615Y-66020000D01*
X62865710Y-74650000D02*
X62865710Y-66020000D01*
X62983805Y-74650000D02*
X62983805Y-66020000D01*
X63101900Y-74650000D02*
X63101900Y-66020000D01*
X63220000Y-74650000D02*
X63220000Y-66020000D01*
X64130000Y-66020000D02*
X64130000Y-65610000D01*
X64850000Y-66020000D02*
X64850000Y-65610000D01*
X65820000Y-74650000D02*
X65820000Y-66020000D01*
%TO.C,J2*%
X54160000Y-91170000D02*
X55490000Y-91170000D01*
X54160000Y-92500000D02*
X54160000Y-91170000D01*
X54160000Y-93770000D02*
X54160000Y-98910000D01*
X54160000Y-93770000D02*
X56820000Y-93770000D01*
X54160000Y-98910000D02*
X56820000Y-98910000D01*
X56820000Y-93770000D02*
X56820000Y-98910000D01*
%TO.C,TP1*%
X70410000Y-95675000D02*
G75*
G02*
X68510000Y-95675000I-950000J0D01*
G01*
X68510000Y-95675000D02*
G75*
G02*
X70410000Y-95675000I950000J0D01*
G01*
D10*
%TO.C,U1*%
X38190000Y-63730000D02*
X40730000Y-61190000D01*
X38190000Y-61190000D02*
X58510000Y-61190000D01*
X58510000Y-81510000D01*
X38190000Y-81510000D01*
X38190000Y-61190000D01*
D15*
%TO.C,J3*%
X49080000Y-91170000D02*
X50410000Y-91170000D01*
X49080000Y-92500000D02*
X49080000Y-91170000D01*
X49080000Y-93770000D02*
X49080000Y-98910000D01*
X49080000Y-93770000D02*
X51740000Y-93770000D01*
X49080000Y-98910000D02*
X51740000Y-98910000D01*
X51740000Y-93770000D02*
X51740000Y-98910000D01*
%TO.C,TP2*%
X36700000Y-74000000D02*
G75*
G02*
X34800000Y-74000000I-950000J0D01*
G01*
X34800000Y-74000000D02*
G75*
G02*
X36700000Y-74000000I950000J0D01*
G01*
%TO.C,TP4*%
X68632000Y-87928000D02*
G75*
G02*
X66732000Y-87928000I-950000J0D01*
G01*
X66732000Y-87928000D02*
G75*
G02*
X68632000Y-87928000I950000J0D01*
G01*
%TO.C,TP5*%
X75490000Y-95675000D02*
G75*
G02*
X73590000Y-95675000I-950000J0D01*
G01*
X73590000Y-95675000D02*
G75*
G02*
X75490000Y-95675000I950000J0D01*
G01*
%TO.C,J5*%
X38920000Y-91170000D02*
X40250000Y-91170000D01*
X38920000Y-92500000D02*
X38920000Y-91170000D01*
X38920000Y-93770000D02*
X38920000Y-98910000D01*
X38920000Y-93770000D02*
X41580000Y-93770000D01*
X38920000Y-98910000D02*
X41580000Y-98910000D01*
X41580000Y-93770000D02*
X41580000Y-98910000D01*
%TO.C,U2*%
D10*
X69850000Y-92400000D02*
X99850000Y-92400000D01*
X99850000Y-60900000D01*
X69850000Y-60900000D01*
X69850000Y-92400000D01*
X71628000Y-62682000D02*
X81280000Y-62682000D01*
D15*
%TO.C,J6*%
X59620000Y-96310000D02*
X59620000Y-88630000D01*
X59620000Y-98910000D02*
X59620000Y-97580000D01*
X60950000Y-98910000D02*
X59620000Y-98910000D01*
X62280000Y-88630000D02*
X59620000Y-88630000D01*
X62280000Y-96310000D02*
X59620000Y-96310000D01*
X62280000Y-96310000D02*
X62280000Y-88630000D01*
%TO.C,TP7*%
X39676000Y-84626000D02*
G75*
G02*
X37776000Y-84626000I-950000J0D01*
G01*
X37776000Y-84626000D02*
G75*
G02*
X39676000Y-84626000I950000J0D01*
G01*
%TO.C,R2*%
X74630000Y-66730000D02*
X74960000Y-66730000D01*
X74630000Y-73270000D02*
X74630000Y-66730000D01*
X74960000Y-73270000D02*
X74630000Y-73270000D01*
X77040000Y-73270000D02*
X77370000Y-73270000D01*
X77370000Y-66730000D02*
X77040000Y-66730000D01*
X77370000Y-73270000D02*
X77370000Y-66730000D01*
%TD*%
M02*
