%TF.GenerationSoftware,KiCad,Pcbnew,8.0.0*%
%TF.CreationDate,2024-05-08T00:57:59+10:00*%
%TF.ProjectId,PlantPulse_Node,506c616e-7450-4756-9c73-655f4e6f6465,rev?*%
%TF.SameCoordinates,Original*%
%TF.FileFunction,Legend,Bot*%
%TF.FilePolarity,Positive*%
%FSLAX46Y46*%
G04 Gerber Fmt 4.6, Leading zero omitted, Abs format (unit mm)*
G04 Created by KiCad (PCBNEW 8.0.0) date 2024-05-08 00:57:59*
%MOMM*%
%LPD*%
G01*
G04 APERTURE LIST*
%ADD10C,0.100000*%
%ADD11C,0.500000*%
%ADD12C,0.400000*%
%ADD13C,0.120000*%
%ADD14C,0.000000*%
G04 APERTURE END LIST*
D10*
X94150000Y-97400000D02*
X95150000Y-97400000D01*
X95150000Y-98400000D01*
X94150000Y-98400000D01*
X94150000Y-97400000D01*
G36*
X94150000Y-97400000D02*
G01*
X95150000Y-97400000D01*
X95150000Y-98400000D01*
X94150000Y-98400000D01*
X94150000Y-97400000D01*
G37*
D11*
X66500000Y-80750000D02*
X60500000Y-80750000D01*
X62250000Y-69250000D02*
X62250000Y-68500000D01*
D12*
X64250000Y-74750000D02*
X62250000Y-70500000D01*
D11*
X65000000Y-68500000D02*
X65000000Y-69250000D01*
X60500000Y-80750000D02*
X60500000Y-69250000D01*
D10*
X94150000Y-95800000D02*
X95150000Y-95800000D01*
X95150000Y-96800000D01*
X94150000Y-96800000D01*
X94150000Y-95800000D01*
G36*
X94150000Y-95800000D02*
G01*
X95150000Y-95800000D01*
X95150000Y-96800000D01*
X94150000Y-96800000D01*
X94150000Y-95800000D01*
G37*
D12*
X64000000Y-79250000D02*
X62250000Y-74750000D01*
X62250000Y-74750000D02*
X64250000Y-74750000D01*
D11*
X66500000Y-69250000D02*
X66500000Y-80750000D01*
D10*
X94150000Y-99000000D02*
X95150000Y-99000000D01*
X95150000Y-100000000D01*
X94150000Y-100000000D01*
X94150000Y-99000000D01*
G36*
X94150000Y-99000000D02*
G01*
X95150000Y-99000000D01*
X95150000Y-100000000D01*
X94150000Y-100000000D01*
X94150000Y-99000000D01*
G37*
D11*
X62250000Y-68500000D02*
X65000000Y-68500000D01*
D10*
X94150000Y-100600000D02*
X95150000Y-100600000D01*
X95150000Y-101600000D01*
X94150000Y-101600000D01*
X94150000Y-100600000D01*
G36*
X94150000Y-100600000D02*
G01*
X95150000Y-100600000D01*
X95150000Y-101600000D01*
X94150000Y-101600000D01*
X94150000Y-100600000D01*
G37*
D11*
X60500000Y-69250000D02*
X66500000Y-69250000D01*
D13*
X97575814Y-94031603D02*
X97004386Y-94031603D01*
X97290100Y-95031603D02*
X97290100Y-94031603D01*
X96480576Y-94031603D02*
X96290100Y-94031603D01*
X96290100Y-94031603D02*
X96194862Y-94079222D01*
X96194862Y-94079222D02*
X96099624Y-94174460D01*
X96099624Y-94174460D02*
X96052005Y-94364936D01*
X96052005Y-94364936D02*
X96052005Y-94698269D01*
X96052005Y-94698269D02*
X96099624Y-94888745D01*
X96099624Y-94888745D02*
X96194862Y-94983984D01*
X96194862Y-94983984D02*
X96290100Y-95031603D01*
X96290100Y-95031603D02*
X96480576Y-95031603D01*
X96480576Y-95031603D02*
X96575814Y-94983984D01*
X96575814Y-94983984D02*
X96671052Y-94888745D01*
X96671052Y-94888745D02*
X96718671Y-94698269D01*
X96718671Y-94698269D02*
X96718671Y-94364936D01*
X96718671Y-94364936D02*
X96671052Y-94174460D01*
X96671052Y-94174460D02*
X96575814Y-94079222D01*
X96575814Y-94079222D02*
X96480576Y-94031603D01*
X95623433Y-95031603D02*
X95623433Y-94031603D01*
X95623433Y-94031603D02*
X95385338Y-94031603D01*
X95385338Y-94031603D02*
X95242481Y-94079222D01*
X95242481Y-94079222D02*
X95147243Y-94174460D01*
X95147243Y-94174460D02*
X95099624Y-94269698D01*
X95099624Y-94269698D02*
X95052005Y-94460174D01*
X95052005Y-94460174D02*
X95052005Y-94603031D01*
X95052005Y-94603031D02*
X95099624Y-94793507D01*
X95099624Y-94793507D02*
X95147243Y-94888745D01*
X95147243Y-94888745D02*
X95242481Y-94983984D01*
X95242481Y-94983984D02*
X95385338Y-95031603D01*
X95385338Y-95031603D02*
X95623433Y-95031603D01*
X94432957Y-94031603D02*
X94242481Y-94031603D01*
X94242481Y-94031603D02*
X94147243Y-94079222D01*
X94147243Y-94079222D02*
X94052005Y-94174460D01*
X94052005Y-94174460D02*
X94004386Y-94364936D01*
X94004386Y-94364936D02*
X94004386Y-94698269D01*
X94004386Y-94698269D02*
X94052005Y-94888745D01*
X94052005Y-94888745D02*
X94147243Y-94983984D01*
X94147243Y-94983984D02*
X94242481Y-95031603D01*
X94242481Y-95031603D02*
X94432957Y-95031603D01*
X94432957Y-95031603D02*
X94528195Y-94983984D01*
X94528195Y-94983984D02*
X94623433Y-94888745D01*
X94623433Y-94888745D02*
X94671052Y-94698269D01*
X94671052Y-94698269D02*
X94671052Y-94364936D01*
X94671052Y-94364936D02*
X94623433Y-94174460D01*
X94623433Y-94174460D02*
X94528195Y-94079222D01*
X94528195Y-94079222D02*
X94432957Y-94031603D01*
X93575814Y-94936364D02*
X93528195Y-94983984D01*
X93528195Y-94983984D02*
X93575814Y-95031603D01*
X93575814Y-95031603D02*
X93623433Y-94983984D01*
X93623433Y-94983984D02*
X93575814Y-94936364D01*
X93575814Y-94936364D02*
X93575814Y-95031603D01*
X93575814Y-94412555D02*
X93528195Y-94460174D01*
X93528195Y-94460174D02*
X93575814Y-94507793D01*
X93575814Y-94507793D02*
X93623433Y-94460174D01*
X93623433Y-94460174D02*
X93575814Y-94412555D01*
X93575814Y-94412555D02*
X93575814Y-94507793D01*
X97432957Y-96260594D02*
X96671053Y-96260594D01*
X95147243Y-96974880D02*
X95385338Y-96974880D01*
X95385338Y-96974880D02*
X95385338Y-95546308D01*
X95385338Y-95546308D02*
X95147243Y-95546308D01*
X94099623Y-96974880D02*
X93861528Y-96974880D01*
X93861528Y-96974880D02*
X93861528Y-95546308D01*
X93861528Y-95546308D02*
X94099623Y-95546308D01*
X92623432Y-96593928D02*
X92480575Y-96641547D01*
X92480575Y-96641547D02*
X92242480Y-96641547D01*
X92242480Y-96641547D02*
X92147242Y-96593928D01*
X92147242Y-96593928D02*
X92099623Y-96546308D01*
X92099623Y-96546308D02*
X92052004Y-96451070D01*
X92052004Y-96451070D02*
X92052004Y-96355832D01*
X92052004Y-96355832D02*
X92099623Y-96260594D01*
X92099623Y-96260594D02*
X92147242Y-96212975D01*
X92147242Y-96212975D02*
X92242480Y-96165356D01*
X92242480Y-96165356D02*
X92432956Y-96117737D01*
X92432956Y-96117737D02*
X92528194Y-96070118D01*
X92528194Y-96070118D02*
X92575813Y-96022499D01*
X92575813Y-96022499D02*
X92623432Y-95927261D01*
X92623432Y-95927261D02*
X92623432Y-95832023D01*
X92623432Y-95832023D02*
X92575813Y-95736785D01*
X92575813Y-95736785D02*
X92528194Y-95689166D01*
X92528194Y-95689166D02*
X92432956Y-95641547D01*
X92432956Y-95641547D02*
X92194861Y-95641547D01*
X92194861Y-95641547D02*
X92052004Y-95689166D01*
X91480575Y-96641547D02*
X91575813Y-96593928D01*
X91575813Y-96593928D02*
X91623432Y-96546308D01*
X91623432Y-96546308D02*
X91671051Y-96451070D01*
X91671051Y-96451070D02*
X91671051Y-96165356D01*
X91671051Y-96165356D02*
X91623432Y-96070118D01*
X91623432Y-96070118D02*
X91575813Y-96022499D01*
X91575813Y-96022499D02*
X91480575Y-95974880D01*
X91480575Y-95974880D02*
X91337718Y-95974880D01*
X91337718Y-95974880D02*
X91242480Y-96022499D01*
X91242480Y-96022499D02*
X91194861Y-96070118D01*
X91194861Y-96070118D02*
X91147242Y-96165356D01*
X91147242Y-96165356D02*
X91147242Y-96451070D01*
X91147242Y-96451070D02*
X91194861Y-96546308D01*
X91194861Y-96546308D02*
X91242480Y-96593928D01*
X91242480Y-96593928D02*
X91337718Y-96641547D01*
X91337718Y-96641547D02*
X91480575Y-96641547D01*
X90575813Y-96641547D02*
X90671051Y-96593928D01*
X90671051Y-96593928D02*
X90718670Y-96498689D01*
X90718670Y-96498689D02*
X90718670Y-95641547D01*
X89766289Y-96641547D02*
X89766289Y-95641547D01*
X89766289Y-96593928D02*
X89861527Y-96641547D01*
X89861527Y-96641547D02*
X90052003Y-96641547D01*
X90052003Y-96641547D02*
X90147241Y-96593928D01*
X90147241Y-96593928D02*
X90194860Y-96546308D01*
X90194860Y-96546308D02*
X90242479Y-96451070D01*
X90242479Y-96451070D02*
X90242479Y-96165356D01*
X90242479Y-96165356D02*
X90194860Y-96070118D01*
X90194860Y-96070118D02*
X90147241Y-96022499D01*
X90147241Y-96022499D02*
X90052003Y-95974880D01*
X90052003Y-95974880D02*
X89861527Y-95974880D01*
X89861527Y-95974880D02*
X89766289Y-96022499D01*
X88909146Y-96593928D02*
X89004384Y-96641547D01*
X89004384Y-96641547D02*
X89194860Y-96641547D01*
X89194860Y-96641547D02*
X89290098Y-96593928D01*
X89290098Y-96593928D02*
X89337717Y-96498689D01*
X89337717Y-96498689D02*
X89337717Y-96117737D01*
X89337717Y-96117737D02*
X89290098Y-96022499D01*
X89290098Y-96022499D02*
X89194860Y-95974880D01*
X89194860Y-95974880D02*
X89004384Y-95974880D01*
X89004384Y-95974880D02*
X88909146Y-96022499D01*
X88909146Y-96022499D02*
X88861527Y-96117737D01*
X88861527Y-96117737D02*
X88861527Y-96212975D01*
X88861527Y-96212975D02*
X89337717Y-96308213D01*
X88432955Y-96641547D02*
X88432955Y-95974880D01*
X88432955Y-96165356D02*
X88385336Y-96070118D01*
X88385336Y-96070118D02*
X88337717Y-96022499D01*
X88337717Y-96022499D02*
X88242479Y-95974880D01*
X88242479Y-95974880D02*
X88147241Y-95974880D01*
X97432957Y-97870538D02*
X96671053Y-97870538D01*
X95147243Y-98584824D02*
X95385338Y-98584824D01*
X95385338Y-98584824D02*
X95385338Y-97156252D01*
X95385338Y-97156252D02*
X95147243Y-97156252D01*
X94099623Y-98584824D02*
X93861528Y-98584824D01*
X93861528Y-98584824D02*
X93861528Y-97156252D01*
X93861528Y-97156252D02*
X94099623Y-97156252D01*
X92575813Y-98251491D02*
X92575813Y-97251491D01*
X92575813Y-97251491D02*
X92194861Y-97251491D01*
X92194861Y-97251491D02*
X92099623Y-97299110D01*
X92099623Y-97299110D02*
X92052004Y-97346729D01*
X92052004Y-97346729D02*
X92004385Y-97441967D01*
X92004385Y-97441967D02*
X92004385Y-97584824D01*
X92004385Y-97584824D02*
X92052004Y-97680062D01*
X92052004Y-97680062D02*
X92099623Y-97727681D01*
X92099623Y-97727681D02*
X92194861Y-97775300D01*
X92194861Y-97775300D02*
X92575813Y-97775300D01*
X91575813Y-98251491D02*
X91575813Y-97584824D01*
X91575813Y-97775300D02*
X91528194Y-97680062D01*
X91528194Y-97680062D02*
X91480575Y-97632443D01*
X91480575Y-97632443D02*
X91385337Y-97584824D01*
X91385337Y-97584824D02*
X91290099Y-97584824D01*
X90813908Y-98251491D02*
X90909146Y-98203872D01*
X90909146Y-98203872D02*
X90956765Y-98156252D01*
X90956765Y-98156252D02*
X91004384Y-98061014D01*
X91004384Y-98061014D02*
X91004384Y-97775300D01*
X91004384Y-97775300D02*
X90956765Y-97680062D01*
X90956765Y-97680062D02*
X90909146Y-97632443D01*
X90909146Y-97632443D02*
X90813908Y-97584824D01*
X90813908Y-97584824D02*
X90671051Y-97584824D01*
X90671051Y-97584824D02*
X90575813Y-97632443D01*
X90575813Y-97632443D02*
X90528194Y-97680062D01*
X90528194Y-97680062D02*
X90480575Y-97775300D01*
X90480575Y-97775300D02*
X90480575Y-98061014D01*
X90480575Y-98061014D02*
X90528194Y-98156252D01*
X90528194Y-98156252D02*
X90575813Y-98203872D01*
X90575813Y-98203872D02*
X90671051Y-98251491D01*
X90671051Y-98251491D02*
X90813908Y-98251491D01*
X89623432Y-97584824D02*
X89623432Y-98394348D01*
X89623432Y-98394348D02*
X89671051Y-98489586D01*
X89671051Y-98489586D02*
X89718670Y-98537205D01*
X89718670Y-98537205D02*
X89813908Y-98584824D01*
X89813908Y-98584824D02*
X89956765Y-98584824D01*
X89956765Y-98584824D02*
X90052003Y-98537205D01*
X89623432Y-98203872D02*
X89718670Y-98251491D01*
X89718670Y-98251491D02*
X89909146Y-98251491D01*
X89909146Y-98251491D02*
X90004384Y-98203872D01*
X90004384Y-98203872D02*
X90052003Y-98156252D01*
X90052003Y-98156252D02*
X90099622Y-98061014D01*
X90099622Y-98061014D02*
X90099622Y-97775300D01*
X90099622Y-97775300D02*
X90052003Y-97680062D01*
X90052003Y-97680062D02*
X90004384Y-97632443D01*
X90004384Y-97632443D02*
X89909146Y-97584824D01*
X89909146Y-97584824D02*
X89718670Y-97584824D01*
X89718670Y-97584824D02*
X89623432Y-97632443D01*
X89147241Y-98251491D02*
X89147241Y-97584824D01*
X89147241Y-97775300D02*
X89099622Y-97680062D01*
X89099622Y-97680062D02*
X89052003Y-97632443D01*
X89052003Y-97632443D02*
X88956765Y-97584824D01*
X88956765Y-97584824D02*
X88861527Y-97584824D01*
X88099622Y-98251491D02*
X88099622Y-97727681D01*
X88099622Y-97727681D02*
X88147241Y-97632443D01*
X88147241Y-97632443D02*
X88242479Y-97584824D01*
X88242479Y-97584824D02*
X88432955Y-97584824D01*
X88432955Y-97584824D02*
X88528193Y-97632443D01*
X88099622Y-98203872D02*
X88194860Y-98251491D01*
X88194860Y-98251491D02*
X88432955Y-98251491D01*
X88432955Y-98251491D02*
X88528193Y-98203872D01*
X88528193Y-98203872D02*
X88575812Y-98108633D01*
X88575812Y-98108633D02*
X88575812Y-98013395D01*
X88575812Y-98013395D02*
X88528193Y-97918157D01*
X88528193Y-97918157D02*
X88432955Y-97870538D01*
X88432955Y-97870538D02*
X88194860Y-97870538D01*
X88194860Y-97870538D02*
X88099622Y-97822919D01*
X87623431Y-98251491D02*
X87623431Y-97584824D01*
X87623431Y-97680062D02*
X87575812Y-97632443D01*
X87575812Y-97632443D02*
X87480574Y-97584824D01*
X87480574Y-97584824D02*
X87337717Y-97584824D01*
X87337717Y-97584824D02*
X87242479Y-97632443D01*
X87242479Y-97632443D02*
X87194860Y-97727681D01*
X87194860Y-97727681D02*
X87194860Y-98251491D01*
X87194860Y-97727681D02*
X87147241Y-97632443D01*
X87147241Y-97632443D02*
X87052003Y-97584824D01*
X87052003Y-97584824D02*
X86909146Y-97584824D01*
X86909146Y-97584824D02*
X86813907Y-97632443D01*
X86813907Y-97632443D02*
X86766288Y-97727681D01*
X86766288Y-97727681D02*
X86766288Y-98251491D01*
X97432957Y-99480482D02*
X96671053Y-99480482D01*
X95147243Y-100194768D02*
X95385338Y-100194768D01*
X95385338Y-100194768D02*
X95385338Y-98766196D01*
X95385338Y-98766196D02*
X95147243Y-98766196D01*
X94099623Y-100194768D02*
X93861528Y-100194768D01*
X93861528Y-100194768D02*
X93861528Y-98766196D01*
X93861528Y-98766196D02*
X94099623Y-98766196D01*
X92718670Y-98861435D02*
X92147242Y-98861435D01*
X92432956Y-99861435D02*
X92432956Y-98861435D01*
X91432956Y-99813816D02*
X91528194Y-99861435D01*
X91528194Y-99861435D02*
X91718670Y-99861435D01*
X91718670Y-99861435D02*
X91813908Y-99813816D01*
X91813908Y-99813816D02*
X91861527Y-99718577D01*
X91861527Y-99718577D02*
X91861527Y-99337625D01*
X91861527Y-99337625D02*
X91813908Y-99242387D01*
X91813908Y-99242387D02*
X91718670Y-99194768D01*
X91718670Y-99194768D02*
X91528194Y-99194768D01*
X91528194Y-99194768D02*
X91432956Y-99242387D01*
X91432956Y-99242387D02*
X91385337Y-99337625D01*
X91385337Y-99337625D02*
X91385337Y-99432863D01*
X91385337Y-99432863D02*
X91861527Y-99528101D01*
X91004384Y-99813816D02*
X90909146Y-99861435D01*
X90909146Y-99861435D02*
X90718670Y-99861435D01*
X90718670Y-99861435D02*
X90623432Y-99813816D01*
X90623432Y-99813816D02*
X90575813Y-99718577D01*
X90575813Y-99718577D02*
X90575813Y-99670958D01*
X90575813Y-99670958D02*
X90623432Y-99575720D01*
X90623432Y-99575720D02*
X90718670Y-99528101D01*
X90718670Y-99528101D02*
X90861527Y-99528101D01*
X90861527Y-99528101D02*
X90956765Y-99480482D01*
X90956765Y-99480482D02*
X91004384Y-99385244D01*
X91004384Y-99385244D02*
X91004384Y-99337625D01*
X91004384Y-99337625D02*
X90956765Y-99242387D01*
X90956765Y-99242387D02*
X90861527Y-99194768D01*
X90861527Y-99194768D02*
X90718670Y-99194768D01*
X90718670Y-99194768D02*
X90623432Y-99242387D01*
X90290098Y-99194768D02*
X89909146Y-99194768D01*
X90147241Y-98861435D02*
X90147241Y-99718577D01*
X90147241Y-99718577D02*
X90099622Y-99813816D01*
X90099622Y-99813816D02*
X90004384Y-99861435D01*
X90004384Y-99861435D02*
X89909146Y-99861435D01*
X97432957Y-101090426D02*
X96671053Y-101090426D01*
X95147243Y-101804712D02*
X95385338Y-101804712D01*
X95385338Y-101804712D02*
X95385338Y-100376140D01*
X95385338Y-100376140D02*
X95147243Y-100376140D01*
X94099623Y-101804712D02*
X93861528Y-101804712D01*
X93861528Y-101804712D02*
X93861528Y-100376140D01*
X93861528Y-100376140D02*
X94099623Y-100376140D01*
X92575813Y-101471379D02*
X92575813Y-100471379D01*
X92575813Y-100471379D02*
X92194861Y-100471379D01*
X92194861Y-100471379D02*
X92099623Y-100518998D01*
X92099623Y-100518998D02*
X92052004Y-100566617D01*
X92052004Y-100566617D02*
X92004385Y-100661855D01*
X92004385Y-100661855D02*
X92004385Y-100804712D01*
X92004385Y-100804712D02*
X92052004Y-100899950D01*
X92052004Y-100899950D02*
X92099623Y-100947569D01*
X92099623Y-100947569D02*
X92194861Y-100995188D01*
X92194861Y-100995188D02*
X92575813Y-100995188D01*
X91432956Y-101471379D02*
X91528194Y-101423760D01*
X91528194Y-101423760D02*
X91575813Y-101328521D01*
X91575813Y-101328521D02*
X91575813Y-100471379D01*
X90623432Y-101471379D02*
X90623432Y-100947569D01*
X90623432Y-100947569D02*
X90671051Y-100852331D01*
X90671051Y-100852331D02*
X90766289Y-100804712D01*
X90766289Y-100804712D02*
X90956765Y-100804712D01*
X90956765Y-100804712D02*
X91052003Y-100852331D01*
X90623432Y-101423760D02*
X90718670Y-101471379D01*
X90718670Y-101471379D02*
X90956765Y-101471379D01*
X90956765Y-101471379D02*
X91052003Y-101423760D01*
X91052003Y-101423760D02*
X91099622Y-101328521D01*
X91099622Y-101328521D02*
X91099622Y-101233283D01*
X91099622Y-101233283D02*
X91052003Y-101138045D01*
X91052003Y-101138045D02*
X90956765Y-101090426D01*
X90956765Y-101090426D02*
X90718670Y-101090426D01*
X90718670Y-101090426D02*
X90623432Y-101042807D01*
X90147241Y-100804712D02*
X90147241Y-101471379D01*
X90147241Y-100899950D02*
X90099622Y-100852331D01*
X90099622Y-100852331D02*
X90004384Y-100804712D01*
X90004384Y-100804712D02*
X89861527Y-100804712D01*
X89861527Y-100804712D02*
X89766289Y-100852331D01*
X89766289Y-100852331D02*
X89718670Y-100947569D01*
X89718670Y-100947569D02*
X89718670Y-101471379D01*
X89385336Y-100804712D02*
X89004384Y-100804712D01*
X89242479Y-100471379D02*
X89242479Y-101328521D01*
X89242479Y-101328521D02*
X89194860Y-101423760D01*
X89194860Y-101423760D02*
X89099622Y-101471379D01*
X89099622Y-101471379D02*
X89004384Y-101471379D01*
X87909145Y-101376140D02*
X87861526Y-101423760D01*
X87861526Y-101423760D02*
X87909145Y-101471379D01*
X87909145Y-101471379D02*
X87956764Y-101423760D01*
X87956764Y-101423760D02*
X87909145Y-101376140D01*
X87909145Y-101376140D02*
X87909145Y-101471379D01*
X87909145Y-100852331D02*
X87861526Y-100899950D01*
X87861526Y-100899950D02*
X87909145Y-100947569D01*
X87909145Y-100947569D02*
X87956764Y-100899950D01*
X87956764Y-100899950D02*
X87909145Y-100852331D01*
X87909145Y-100852331D02*
X87909145Y-100947569D01*
X87432955Y-101471379D02*
X87432955Y-100471379D01*
X87432955Y-100471379D02*
X87194860Y-100471379D01*
X87194860Y-100471379D02*
X87052003Y-100518998D01*
X87052003Y-100518998D02*
X86956765Y-100614236D01*
X86956765Y-100614236D02*
X86909146Y-100709474D01*
X86909146Y-100709474D02*
X86861527Y-100899950D01*
X86861527Y-100899950D02*
X86861527Y-101042807D01*
X86861527Y-101042807D02*
X86909146Y-101233283D01*
X86909146Y-101233283D02*
X86956765Y-101328521D01*
X86956765Y-101328521D02*
X87052003Y-101423760D01*
X87052003Y-101423760D02*
X87194860Y-101471379D01*
X87194860Y-101471379D02*
X87432955Y-101471379D01*
D14*
%TO.C,G\u002A\u002A\u002A*%
G36*
X83961526Y-74236653D02*
G01*
X84019827Y-74280732D01*
X84038045Y-74352879D01*
X84037133Y-74370334D01*
X84003535Y-74441139D01*
X83918793Y-74483899D01*
X83779165Y-74500754D01*
X83756103Y-74501664D01*
X83642521Y-74512031D01*
X83547758Y-74528643D01*
X83533337Y-74531776D01*
X83444623Y-74543136D01*
X83320504Y-74551953D01*
X83183128Y-74556532D01*
X83025710Y-74552362D01*
X82884303Y-74528648D01*
X82800444Y-74483990D01*
X82772789Y-74417933D01*
X82784794Y-74374606D01*
X82850394Y-74320965D01*
X82968543Y-74287277D01*
X83134039Y-74275592D01*
X83137401Y-74275588D01*
X83283929Y-74270249D01*
X83455326Y-74256745D01*
X83615189Y-74237927D01*
X83702784Y-74226749D01*
X83857669Y-74219154D01*
X83961526Y-74236653D01*
G37*
G36*
X90071640Y-73068463D02*
G01*
X90126556Y-73146532D01*
X90135059Y-73163241D01*
X90185397Y-73237016D01*
X90267267Y-73340855D01*
X90371443Y-73463380D01*
X90488703Y-73593215D01*
X90620203Y-73738221D01*
X90722685Y-73862751D01*
X90784014Y-73956591D01*
X90807261Y-74025834D01*
X90795501Y-74076573D01*
X90751805Y-74114901D01*
X90748768Y-74116663D01*
X90686848Y-74143780D01*
X90638036Y-74132271D01*
X90576395Y-74076450D01*
X90416344Y-73909151D01*
X90240791Y-73723392D01*
X90103828Y-73575107D01*
X90001875Y-73460232D01*
X89931351Y-73374706D01*
X89888676Y-73314469D01*
X89870268Y-73275458D01*
X89862243Y-73197775D01*
X89886111Y-73112762D01*
X89937947Y-73058354D01*
X90004280Y-73041329D01*
X90071640Y-73068463D01*
G37*
G36*
X89387691Y-73663758D02*
G01*
X89445649Y-73705707D01*
X89524535Y-73782332D01*
X89633573Y-73901053D01*
X89708046Y-73987037D01*
X89799967Y-74101079D01*
X89870821Y-74198288D01*
X89909480Y-74264027D01*
X89913385Y-74273175D01*
X89949928Y-74344726D01*
X89980157Y-74383467D01*
X90001354Y-74413302D01*
X90037518Y-74487801D01*
X90078259Y-74588216D01*
X90088490Y-74616008D01*
X90121239Y-74720509D01*
X90128563Y-74789902D01*
X90112885Y-74841939D01*
X90079181Y-74881052D01*
X89998323Y-74908220D01*
X89997456Y-74908218D01*
X89943855Y-74896210D01*
X89901025Y-74851292D01*
X89855423Y-74759357D01*
X89752134Y-74551218D01*
X89587074Y-74289371D01*
X89395080Y-74044256D01*
X89327151Y-73964136D01*
X89265548Y-73878984D01*
X89236601Y-73813470D01*
X89232525Y-73753674D01*
X89235530Y-73729410D01*
X89260824Y-73671038D01*
X89320873Y-73649497D01*
X89341440Y-73649067D01*
X89387691Y-73663758D01*
G37*
G36*
X91209745Y-74161137D02*
G01*
X91249675Y-74180858D01*
X91269626Y-74229054D01*
X91281840Y-74323039D01*
X91294304Y-74392638D01*
X91324955Y-74487713D01*
X91377012Y-74608883D01*
X91454477Y-74765358D01*
X91561349Y-74966345D01*
X91582048Y-75004557D01*
X91677944Y-75185572D01*
X91744993Y-75321170D01*
X91786408Y-75418776D01*
X91805405Y-75485819D01*
X91805197Y-75529725D01*
X91794809Y-75562031D01*
X91759888Y-75596286D01*
X91687677Y-75598125D01*
X91650954Y-75590196D01*
X91612602Y-75568893D01*
X91570906Y-75528231D01*
X91521728Y-75461998D01*
X91460929Y-75363979D01*
X91384369Y-75227961D01*
X91287910Y-75047729D01*
X91167411Y-74817070D01*
X91162204Y-74807021D01*
X91078632Y-74637210D01*
X91026466Y-74507084D01*
X91002723Y-74403981D01*
X91004416Y-74315239D01*
X91028560Y-74228198D01*
X91045337Y-74191443D01*
X91086782Y-74156835D01*
X91162993Y-74154969D01*
X91209745Y-74161137D01*
G37*
G36*
X91330427Y-73435030D02*
G01*
X91422731Y-73458390D01*
X91558789Y-73502590D01*
X91599290Y-73516927D01*
X91742213Y-73575266D01*
X91872326Y-73638842D01*
X91965651Y-73696240D01*
X92011024Y-73729404D01*
X92110923Y-73796829D01*
X92192579Y-73845278D01*
X92205911Y-73853009D01*
X92281738Y-73912085D01*
X92379685Y-74003585D01*
X92486348Y-74113293D01*
X92588321Y-74226990D01*
X92672201Y-74330462D01*
X92724581Y-74409490D01*
X92747227Y-74458813D01*
X92748076Y-74507198D01*
X92707926Y-74557392D01*
X92657551Y-74594032D01*
X92583490Y-74598736D01*
X92501371Y-74546747D01*
X92406255Y-74436079D01*
X92334120Y-74347163D01*
X92143808Y-74164358D01*
X91913833Y-73995600D01*
X91660150Y-73851847D01*
X91398717Y-73744059D01*
X91325604Y-73719411D01*
X91225776Y-73681724D01*
X91167972Y-73649784D01*
X91139909Y-73615734D01*
X91129307Y-73571717D01*
X91127977Y-73557433D01*
X91141150Y-73491269D01*
X91202372Y-73447503D01*
X91216631Y-73441488D01*
X91266764Y-73430174D01*
X91330427Y-73435030D01*
G37*
G36*
X87802584Y-72072672D02*
G01*
X87814662Y-72078564D01*
X87893830Y-72111303D01*
X87948307Y-72124658D01*
X87952218Y-72124817D01*
X88012295Y-72138809D01*
X88093696Y-72168515D01*
X88141037Y-72186821D01*
X88246707Y-72224150D01*
X88382215Y-72269636D01*
X88529701Y-72317190D01*
X88703970Y-72375974D01*
X88994509Y-72496787D01*
X89240337Y-72634239D01*
X89453349Y-72794477D01*
X89570013Y-72904130D01*
X89639140Y-72993067D01*
X89659815Y-73063778D01*
X89635539Y-73122564D01*
X89587896Y-73158881D01*
X89514003Y-73160250D01*
X89416996Y-73112800D01*
X89290851Y-73014645D01*
X89197309Y-72937535D01*
X89093575Y-72864050D01*
X88978453Y-72797106D01*
X88842027Y-72732010D01*
X88674387Y-72664068D01*
X88465617Y-72588586D01*
X88205805Y-72500870D01*
X88133449Y-72476948D01*
X87928698Y-72408824D01*
X87774824Y-72355957D01*
X87664746Y-72314840D01*
X87591384Y-72281961D01*
X87547659Y-72253813D01*
X87526491Y-72226884D01*
X87520801Y-72197667D01*
X87523509Y-72162652D01*
X87539385Y-72109841D01*
X87599875Y-72053422D01*
X87691869Y-72039658D01*
X87802584Y-72072672D01*
G37*
G36*
X84912215Y-71196796D02*
G01*
X84923723Y-71244644D01*
X84929236Y-71284163D01*
X84962408Y-71315799D01*
X85033694Y-71315877D01*
X85152350Y-71286074D01*
X85319879Y-71240609D01*
X85610524Y-71185869D01*
X85933038Y-71154291D01*
X86301551Y-71144128D01*
X86439687Y-71144791D01*
X86604766Y-71148756D01*
X86720654Y-71156912D01*
X86795827Y-71169958D01*
X86838759Y-71188598D01*
X86848981Y-71195705D01*
X86883581Y-71211195D01*
X86927997Y-71211845D01*
X86994224Y-71194933D01*
X87094258Y-71157739D01*
X87240091Y-71097541D01*
X87273415Y-71094081D01*
X87335173Y-71124895D01*
X87421972Y-71202971D01*
X87474189Y-71257735D01*
X87523633Y-71325806D01*
X87544694Y-71397040D01*
X87549092Y-71498704D01*
X87549070Y-71602417D01*
X87549056Y-71666003D01*
X88183953Y-71656231D01*
X88818851Y-71646459D01*
X89109207Y-71743359D01*
X89317236Y-71814324D01*
X89498745Y-71880789D01*
X89630673Y-71935889D01*
X89719070Y-71982451D01*
X89769987Y-72023304D01*
X89789476Y-72061274D01*
X89788769Y-72106263D01*
X89761880Y-72173846D01*
X89730512Y-72197135D01*
X89645815Y-72217196D01*
X89547064Y-72210514D01*
X89461957Y-72176815D01*
X89440679Y-72164693D01*
X89360873Y-72128563D01*
X89246554Y-72083013D01*
X89114881Y-72035053D01*
X89045575Y-72011199D01*
X88959372Y-71983785D01*
X88879869Y-71963748D01*
X88795404Y-71949753D01*
X88694318Y-71940469D01*
X88564952Y-71934561D01*
X88395646Y-71930696D01*
X88174739Y-71927541D01*
X87519280Y-71919054D01*
X87486867Y-72070348D01*
X87428584Y-72268462D01*
X87338980Y-72432957D01*
X87223024Y-72540055D01*
X87080785Y-72589666D01*
X87023385Y-72594897D01*
X86947960Y-72582774D01*
X86884487Y-72535484D01*
X86865433Y-72517252D01*
X86835203Y-72495869D01*
X86794807Y-72481979D01*
X86733636Y-72474556D01*
X86641077Y-72472573D01*
X86506522Y-72475004D01*
X86319358Y-72480822D01*
X86123244Y-72489830D01*
X85901101Y-72510354D01*
X85716738Y-72543859D01*
X85555664Y-72594109D01*
X85403392Y-72664872D01*
X85245433Y-72759911D01*
X85081880Y-72866982D01*
X85081880Y-73220743D01*
X85080558Y-73374609D01*
X85074608Y-73492622D01*
X85061410Y-73580237D01*
X85038347Y-73654373D01*
X85002802Y-73731945D01*
X84973120Y-73796088D01*
X84937585Y-73891735D01*
X84923723Y-73958044D01*
X84918101Y-74006308D01*
X84889846Y-74090000D01*
X84880699Y-74114513D01*
X84861395Y-74199284D01*
X84841734Y-74320155D01*
X84824802Y-74459589D01*
X84816029Y-74535238D01*
X84795391Y-74667740D01*
X84772324Y-74772668D01*
X84750375Y-74832265D01*
X84749632Y-74833397D01*
X84723328Y-74863794D01*
X84682206Y-74890439D01*
X84616808Y-74916489D01*
X84517678Y-74945104D01*
X84375356Y-74979444D01*
X84180386Y-75022668D01*
X84166749Y-75025671D01*
X84023738Y-75061419D01*
X83887200Y-75102016D01*
X83784993Y-75139248D01*
X83729474Y-75162268D01*
X83597802Y-75212470D01*
X83468680Y-75257278D01*
X83433479Y-75267876D01*
X83349201Y-75286726D01*
X83246436Y-75300138D01*
X83113998Y-75308991D01*
X82940700Y-75314166D01*
X82715355Y-75316542D01*
X82545621Y-75316087D01*
X82372435Y-75312668D01*
X82229516Y-75306631D01*
X82127859Y-75298458D01*
X82078458Y-75288631D01*
X82040964Y-75256402D01*
X82003064Y-75185829D01*
X82000350Y-75159540D01*
X81996515Y-75073013D01*
X81995482Y-75034745D01*
X82266322Y-75034745D01*
X82780514Y-75033783D01*
X82869146Y-75033404D01*
X83064824Y-75029919D01*
X83207800Y-75021640D01*
X83305712Y-75007061D01*
X83366194Y-74984674D01*
X83396884Y-74952973D01*
X83405417Y-74910450D01*
X83406359Y-74897995D01*
X83426117Y-74867887D01*
X83481888Y-74848722D01*
X83587297Y-74834837D01*
X83783504Y-74810062D01*
X83945073Y-74773771D01*
X84085254Y-74720370D01*
X84225265Y-74643495D01*
X84325860Y-74586785D01*
X84417925Y-74544718D01*
X84477744Y-74528643D01*
X84482515Y-74528595D01*
X84522066Y-74518051D01*
X84539954Y-74477602D01*
X84544147Y-74390700D01*
X84544426Y-74378484D01*
X84557698Y-74274087D01*
X84586894Y-74140396D01*
X84626527Y-74003216D01*
X84665993Y-73872092D01*
X84705341Y-73702854D01*
X84735606Y-73515125D01*
X84758184Y-73297736D01*
X84774473Y-73039520D01*
X84785869Y-72729305D01*
X84794193Y-72428764D01*
X85083977Y-72428764D01*
X85085867Y-72510686D01*
X85100992Y-72534685D01*
X85129950Y-72503226D01*
X85131951Y-72500355D01*
X85183954Y-72461390D01*
X85286213Y-72409033D01*
X85429302Y-72347688D01*
X85603798Y-72281760D01*
X85635240Y-72271060D01*
X85742477Y-72242561D01*
X85869149Y-72221985D01*
X86029855Y-72207378D01*
X86239191Y-72196790D01*
X86684796Y-72179547D01*
X86641384Y-72053541D01*
X86591140Y-71870360D01*
X86581737Y-71748855D01*
X86863638Y-71748855D01*
X86889124Y-71905746D01*
X86961862Y-72101093D01*
X86998599Y-72179547D01*
X86999459Y-72181383D01*
X87040402Y-72257775D01*
X87066821Y-72293788D01*
X87091903Y-72294037D01*
X87130870Y-72248853D01*
X87170154Y-72160236D01*
X87206455Y-72039735D01*
X87236471Y-71898899D01*
X87256902Y-71749277D01*
X87264446Y-71602417D01*
X87264382Y-71560712D01*
X87261970Y-71466905D01*
X87252505Y-71419729D01*
X87231201Y-71406573D01*
X87193275Y-71414828D01*
X87089778Y-71452347D01*
X86962058Y-71527813D01*
X86887314Y-71624763D01*
X86863638Y-71748855D01*
X86581737Y-71748855D01*
X86577345Y-71692106D01*
X86612130Y-71553551D01*
X86619485Y-71538694D01*
X86650758Y-71472358D01*
X86663449Y-71439723D01*
X86660149Y-71438381D01*
X86612238Y-71434601D01*
X86516148Y-71431550D01*
X86383254Y-71429510D01*
X86224927Y-71428768D01*
X86091311Y-71429652D01*
X85867947Y-71437261D01*
X85679119Y-71454344D01*
X85506035Y-71482922D01*
X85329902Y-71525016D01*
X85208406Y-71557731D01*
X85208211Y-71754208D01*
X85206881Y-71806654D01*
X85197419Y-71884630D01*
X85190093Y-71945007D01*
X85157393Y-72045580D01*
X85134621Y-72103668D01*
X85108350Y-72211039D01*
X85107330Y-72215207D01*
X85089995Y-72338170D01*
X85083977Y-72428764D01*
X84794193Y-72428764D01*
X84800224Y-72211039D01*
X84695909Y-72232986D01*
X84649445Y-72242552D01*
X84508169Y-72268261D01*
X84368228Y-72287216D01*
X84216711Y-72300340D01*
X84040704Y-72308555D01*
X83827296Y-72312785D01*
X83563574Y-72313954D01*
X83380121Y-72313776D01*
X83198213Y-72312647D01*
X83061650Y-72309627D01*
X82960447Y-72303770D01*
X82884618Y-72294131D01*
X82824179Y-72279764D01*
X82769143Y-72259724D01*
X82709526Y-72233064D01*
X82634503Y-72194976D01*
X82528615Y-72131198D01*
X82453325Y-72073856D01*
X82371097Y-71995413D01*
X82319143Y-72162837D01*
X82312301Y-72186610D01*
X82300572Y-72239978D01*
X82291008Y-72307124D01*
X82283395Y-72394234D01*
X82277521Y-72507492D01*
X82273171Y-72653085D01*
X82270133Y-72837197D01*
X82268193Y-73066014D01*
X82267138Y-73345721D01*
X82266756Y-73682504D01*
X82266322Y-75034745D01*
X81995482Y-75034745D01*
X81992785Y-74934810D01*
X81989268Y-74751717D01*
X81986072Y-74530524D01*
X81983305Y-74278019D01*
X81981076Y-74000991D01*
X81979491Y-73706227D01*
X81973768Y-72298631D01*
X82075848Y-72013948D01*
X82098332Y-71952634D01*
X82150544Y-71819083D01*
X82173005Y-71766597D01*
X82599879Y-71766597D01*
X82614579Y-71822739D01*
X82672109Y-71881419D01*
X82779604Y-71954987D01*
X82783182Y-71957243D01*
X82822839Y-71980747D01*
X82863084Y-71998476D01*
X82912871Y-72011190D01*
X82981154Y-72019647D01*
X83076885Y-72024607D01*
X83209017Y-72026829D01*
X83386505Y-72027072D01*
X83618300Y-72026095D01*
X83723120Y-72025432D01*
X83925718Y-72023400D01*
X84104830Y-72020626D01*
X84250511Y-72017314D01*
X84352818Y-72013671D01*
X84401805Y-72009901D01*
X84451608Y-71999911D01*
X84612835Y-71964675D01*
X84719717Y-71935129D01*
X84778942Y-71909153D01*
X84797198Y-71884630D01*
X84796853Y-71879281D01*
X84770119Y-71823158D01*
X84718801Y-71769208D01*
X84668413Y-71745081D01*
X84665530Y-71744805D01*
X84644684Y-71714209D01*
X84640050Y-71651128D01*
X84650728Y-71581475D01*
X84675823Y-71531163D01*
X84685310Y-71519638D01*
X84680397Y-71489583D01*
X84620468Y-71458123D01*
X84582468Y-71449945D01*
X84482110Y-71441401D01*
X84337588Y-71436337D01*
X84160062Y-71434519D01*
X83960695Y-71435717D01*
X83750651Y-71439698D01*
X83541091Y-71446230D01*
X83343178Y-71455082D01*
X83168074Y-71466022D01*
X83026943Y-71478816D01*
X82930946Y-71493235D01*
X82817036Y-71521643D01*
X82732459Y-71557573D01*
X82675173Y-71609547D01*
X82626375Y-71689695D01*
X82620876Y-71700641D01*
X82599879Y-71766597D01*
X82173005Y-71766597D01*
X82198720Y-71706507D01*
X82234710Y-71634372D01*
X82280058Y-71539674D01*
X82313835Y-71433945D01*
X82350678Y-71345859D01*
X82423401Y-71298005D01*
X82438590Y-71292075D01*
X82504252Y-71239680D01*
X82514480Y-71216956D01*
X82816291Y-71216956D01*
X82826107Y-71231791D01*
X82870409Y-71226791D01*
X82962578Y-71203951D01*
X82993992Y-71198604D01*
X83090064Y-71189250D01*
X83232660Y-71179626D01*
X83411408Y-71170315D01*
X83615936Y-71161897D01*
X83835871Y-71154955D01*
X84598456Y-71134511D01*
X84540423Y-70975742D01*
X84523043Y-70929949D01*
X84466830Y-70794490D01*
X84410467Y-70672123D01*
X84338543Y-70527273D01*
X84107842Y-70517952D01*
X83990195Y-70516779D01*
X83873316Y-70527816D01*
X83748902Y-70556065D01*
X83591832Y-70605804D01*
X83501429Y-70638142D01*
X83248178Y-70751034D01*
X83053258Y-70878064D01*
X82913660Y-71021504D01*
X82826376Y-71183624D01*
X82816291Y-71216956D01*
X82514480Y-71216956D01*
X82548334Y-71141744D01*
X82628091Y-70952996D01*
X82769180Y-70762172D01*
X82965152Y-70596333D01*
X83217599Y-70454166D01*
X83528113Y-70334361D01*
X83585026Y-70316616D01*
X83857607Y-70248833D01*
X84089568Y-70223630D01*
X84285919Y-70240823D01*
X84451672Y-70300225D01*
X84462418Y-70305942D01*
X84516298Y-70337697D01*
X84559110Y-70374042D01*
X84597728Y-70425823D01*
X84639024Y-70503883D01*
X84689872Y-70619070D01*
X84757146Y-70782227D01*
X84775168Y-70826745D01*
X84833490Y-70975501D01*
X84880655Y-71102966D01*
X84891265Y-71134511D01*
X84912215Y-71196796D01*
G37*
G36*
X96867946Y-70843299D02*
G01*
X96875333Y-70993702D01*
X96871180Y-71196721D01*
X96868282Y-71261602D01*
X96848968Y-71496685D01*
X96814522Y-71694245D01*
X96760534Y-71874404D01*
X96682596Y-72057284D01*
X96606432Y-72216427D01*
X97358206Y-72225897D01*
X98109980Y-72235368D01*
X98207816Y-72329160D01*
X98263524Y-72394880D01*
X98335664Y-72503435D01*
X98399619Y-72621834D01*
X98421937Y-72670201D01*
X98459709Y-72766081D01*
X98481385Y-72857441D01*
X98491250Y-72966847D01*
X98493159Y-73089415D01*
X98493586Y-73116865D01*
X98493323Y-73182062D01*
X98489439Y-73306738D01*
X98478654Y-73390664D01*
X98458100Y-73449854D01*
X98424910Y-73500321D01*
X98382348Y-73542348D01*
X98287366Y-73609475D01*
X98173769Y-73672387D01*
X98064036Y-73719080D01*
X97980649Y-73737549D01*
X97976692Y-73737675D01*
X97908186Y-73751934D01*
X97822493Y-73782547D01*
X97754570Y-73811614D01*
X97514102Y-73911863D01*
X97300764Y-73996606D01*
X97122097Y-74063011D01*
X96985639Y-74108245D01*
X96967764Y-74112622D01*
X96898931Y-74129477D01*
X96879701Y-74132301D01*
X96783312Y-74155028D01*
X96749093Y-74186226D01*
X96776205Y-74229708D01*
X96863810Y-74289290D01*
X97000315Y-74393069D01*
X97144544Y-74560546D01*
X97263123Y-74765878D01*
X97294052Y-74852420D01*
X97321857Y-75038068D01*
X97320150Y-75110322D01*
X97316870Y-75249152D01*
X97282132Y-75469315D01*
X97220684Y-75682200D01*
X97135566Y-75871451D01*
X97029820Y-76020712D01*
X97001079Y-76047739D01*
X96877208Y-76112812D01*
X96723975Y-76136114D01*
X96554601Y-76118564D01*
X96382307Y-76061077D01*
X96220313Y-75964571D01*
X96153505Y-75908597D01*
X96041556Y-75802827D01*
X95916253Y-75675230D01*
X95792462Y-75541512D01*
X95685049Y-75417381D01*
X95608882Y-75318544D01*
X95555186Y-75240349D01*
X95553546Y-75351059D01*
X95553837Y-75365841D01*
X95558856Y-75441025D01*
X95569072Y-75558054D01*
X95583235Y-75705282D01*
X95600095Y-75871062D01*
X95618402Y-76043749D01*
X95636906Y-76211695D01*
X95654359Y-76363255D01*
X95669510Y-76486781D01*
X95681109Y-76570628D01*
X95687906Y-76603148D01*
X95696615Y-76604688D01*
X95757636Y-76604010D01*
X95868314Y-76598102D01*
X96019396Y-76587743D01*
X96201629Y-76573714D01*
X96405761Y-76556795D01*
X96622538Y-76537766D01*
X96842709Y-76517408D01*
X97057021Y-76496500D01*
X97256221Y-76475823D01*
X97431057Y-76456157D01*
X97440208Y-76455106D01*
X97581484Y-76443768D01*
X97766178Y-76435421D01*
X97980963Y-76430044D01*
X98212511Y-76427616D01*
X98447496Y-76428114D01*
X98672590Y-76431517D01*
X98874466Y-76437804D01*
X99039796Y-76446953D01*
X99155254Y-76458943D01*
X99254808Y-76475324D01*
X99403914Y-76502189D01*
X99529565Y-76527270D01*
X99643784Y-76544939D01*
X99765871Y-76543805D01*
X99917055Y-76521409D01*
X99958208Y-76514090D01*
X100116571Y-76498367D01*
X100222761Y-76513520D01*
X100279808Y-76560511D01*
X100287455Y-76616314D01*
X100290742Y-76640305D01*
X100288752Y-76654184D01*
X100257255Y-76719277D01*
X100180376Y-76759472D01*
X100098711Y-76793705D01*
X100015144Y-76856225D01*
X100007555Y-76861903D01*
X99924952Y-76967422D01*
X99839489Y-77122416D01*
X99819802Y-77161893D01*
X99749403Y-77299452D01*
X99667360Y-77456036D01*
X99587642Y-77604879D01*
X99586145Y-77607641D01*
X99561350Y-77657874D01*
X99502796Y-77776499D01*
X99410790Y-77987565D01*
X99317519Y-78222254D01*
X99230375Y-78461984D01*
X99156749Y-78688170D01*
X99137122Y-78749372D01*
X99100920Y-78857970D01*
X99054195Y-78995722D01*
X99002270Y-79146825D01*
X98954070Y-79290973D01*
X98913327Y-79422224D01*
X98885489Y-79522740D01*
X98874808Y-79578124D01*
X98872035Y-79606992D01*
X98855122Y-79695526D01*
X98828310Y-79799544D01*
X98742701Y-80107342D01*
X98659196Y-80451477D01*
X98591228Y-80791657D01*
X98573848Y-80882008D01*
X98513573Y-81143348D01*
X98443189Y-81392653D01*
X98431126Y-81433356D01*
X98407808Y-81530210D01*
X98398692Y-81598257D01*
X98397117Y-81620575D01*
X98381420Y-81704123D01*
X98354268Y-81803861D01*
X98327776Y-81888588D01*
X98287730Y-82017215D01*
X98239836Y-82171401D01*
X98189554Y-82333587D01*
X98148976Y-82460617D01*
X98097567Y-82601922D01*
X98052454Y-82692735D01*
X98008880Y-82739713D01*
X97962093Y-82749514D01*
X97907338Y-82728796D01*
X97879109Y-82720543D01*
X97796510Y-82716461D01*
X97693188Y-82725452D01*
X97678432Y-82727600D01*
X97495122Y-82748549D01*
X97252150Y-82767974D01*
X96952778Y-82785744D01*
X96600271Y-82801726D01*
X96197890Y-82815789D01*
X95748898Y-82827802D01*
X95256560Y-82837633D01*
X94724137Y-82845150D01*
X94642252Y-82846119D01*
X94333947Y-82850326D01*
X94046435Y-82855113D01*
X93785783Y-82860324D01*
X93558057Y-82865801D01*
X93369325Y-82871388D01*
X93225653Y-82876927D01*
X93133108Y-82882262D01*
X93097756Y-82887236D01*
X93096236Y-82888223D01*
X93051180Y-82895424D01*
X92954209Y-82901667D01*
X92815365Y-82906583D01*
X92644691Y-82909804D01*
X92452226Y-82910959D01*
X92252569Y-82909092D01*
X91971608Y-82899936D01*
X91713425Y-82883898D01*
X91486104Y-82861817D01*
X91297731Y-82834530D01*
X91156393Y-82802875D01*
X91070174Y-82767692D01*
X91010977Y-82738227D01*
X90936666Y-82721171D01*
X90905952Y-82718278D01*
X90874149Y-82702616D01*
X90848159Y-82666880D01*
X90826223Y-82603901D01*
X90806577Y-82506511D01*
X90787461Y-82367543D01*
X90767112Y-82179827D01*
X90743771Y-81936195D01*
X90732214Y-81824540D01*
X90710636Y-81653391D01*
X90686916Y-81498244D01*
X90664430Y-81382646D01*
X90645436Y-81291210D01*
X90625527Y-81162124D01*
X90617464Y-81060523D01*
X90614361Y-81006865D01*
X90597102Y-80884183D01*
X90569925Y-80760025D01*
X90552733Y-80689590D01*
X90531361Y-80577093D01*
X90522853Y-80493939D01*
X90520340Y-80455988D01*
X90503843Y-80353168D01*
X90477109Y-80240888D01*
X90453642Y-80155716D01*
X90415614Y-80013059D01*
X90379803Y-79874347D01*
X90340962Y-79726254D01*
X90271600Y-79482251D01*
X90195620Y-79235233D01*
X90116290Y-78994364D01*
X90036879Y-78768808D01*
X89960655Y-78567731D01*
X89890887Y-78400298D01*
X89830841Y-78275672D01*
X89783788Y-78203019D01*
X89750620Y-78161752D01*
X89731693Y-78125414D01*
X89731609Y-78124440D01*
X89714223Y-78083738D01*
X89670311Y-77998872D01*
X89605281Y-77879367D01*
X89566169Y-77809308D01*
X89879412Y-77809308D01*
X89957762Y-77948241D01*
X89983141Y-77993184D01*
X90035367Y-78085338D01*
X90072503Y-78150436D01*
X90112442Y-78228734D01*
X90175032Y-78370914D01*
X90247293Y-78550105D01*
X90324506Y-78753204D01*
X90401949Y-78967110D01*
X90474900Y-79178719D01*
X90538638Y-79374929D01*
X90588443Y-79542638D01*
X90619593Y-79668743D01*
X90633041Y-79732800D01*
X90660794Y-79857423D01*
X90690630Y-79985056D01*
X90697041Y-80011734D01*
X90754963Y-80256648D01*
X90799833Y-80456294D01*
X90834457Y-80625169D01*
X90861642Y-80777773D01*
X90884193Y-80928602D01*
X90904918Y-81092155D01*
X90907416Y-81112712D01*
X90926151Y-81245985D01*
X90946465Y-81362874D01*
X90964379Y-81440100D01*
X90968255Y-81454287D01*
X90984506Y-81542816D01*
X91000130Y-81666733D01*
X91012211Y-81803861D01*
X91024116Y-81951115D01*
X91043975Y-82133002D01*
X91067000Y-82292132D01*
X91091453Y-82418406D01*
X91115592Y-82501727D01*
X91137677Y-82531998D01*
X91160014Y-82534047D01*
X91236439Y-82543566D01*
X91350541Y-82559032D01*
X91487235Y-82578442D01*
X91556798Y-82586833D01*
X91698004Y-82598530D01*
X91869883Y-82608393D01*
X92062006Y-82616266D01*
X92263945Y-82621993D01*
X92465273Y-82625419D01*
X92655561Y-82626387D01*
X92824381Y-82624740D01*
X92961306Y-82620323D01*
X93055907Y-82612979D01*
X93097756Y-82602553D01*
X93102927Y-82600932D01*
X93158294Y-82595807D01*
X93268883Y-82590307D01*
X93428688Y-82584593D01*
X93631704Y-82578825D01*
X93871925Y-82573162D01*
X94143347Y-82567763D01*
X94439963Y-82562790D01*
X94755768Y-82558403D01*
X95044162Y-82554226D01*
X95450546Y-82546409D01*
X95842916Y-82536671D01*
X96215799Y-82525260D01*
X96563725Y-82512424D01*
X96881220Y-82498411D01*
X97162813Y-82483469D01*
X97403032Y-82467847D01*
X97596405Y-82451793D01*
X97737460Y-82435555D01*
X97820725Y-82419381D01*
X97838341Y-82412129D01*
X97878764Y-82373868D01*
X97916255Y-82297946D01*
X97957647Y-82172022D01*
X98004463Y-82011382D01*
X98063182Y-81802946D01*
X98103105Y-81650293D01*
X98124936Y-81550810D01*
X98133106Y-81510720D01*
X98154881Y-81413953D01*
X98185250Y-81284654D01*
X98220318Y-81139602D01*
X98240529Y-81056531D01*
X98282864Y-80879300D01*
X98322918Y-80707953D01*
X98354167Y-80570237D01*
X98358135Y-80552297D01*
X98427634Y-80245392D01*
X98487773Y-79994919D01*
X98539897Y-79795268D01*
X98551763Y-79751244D01*
X98585939Y-79616293D01*
X98614132Y-79494770D01*
X98633776Y-79413101D01*
X98681575Y-79243476D01*
X98745615Y-79038201D01*
X98821405Y-78811465D01*
X98904454Y-78577460D01*
X98913826Y-78551734D01*
X98974743Y-78381196D01*
X99040361Y-78193180D01*
X99098012Y-78023911D01*
X99121674Y-77954887D01*
X99164705Y-77837776D01*
X99200467Y-77750860D01*
X99222988Y-77709179D01*
X99233489Y-77697197D01*
X99252739Y-77657874D01*
X99226989Y-77655478D01*
X99155976Y-77667442D01*
X99055427Y-77690292D01*
X98941106Y-77720151D01*
X98828780Y-77753141D01*
X98734213Y-77785386D01*
X98660256Y-77806830D01*
X98575317Y-77818307D01*
X98541035Y-77823223D01*
X98453329Y-77851800D01*
X98354275Y-77897389D01*
X98288267Y-77929583D01*
X98051661Y-78010421D01*
X97792654Y-78055392D01*
X97536876Y-78059417D01*
X97490171Y-78056235D01*
X97362901Y-78048593D01*
X97191498Y-78039116D01*
X96988264Y-78028458D01*
X96765504Y-78017272D01*
X96535519Y-78006212D01*
X96360872Y-77998156D01*
X96158165Y-77989601D01*
X96005823Y-77984742D01*
X95896294Y-77983716D01*
X95822024Y-77986657D01*
X95775462Y-77993704D01*
X95749056Y-78004992D01*
X95735255Y-78020657D01*
X95689502Y-78056399D01*
X95615502Y-78070561D01*
X95542952Y-78059862D01*
X95500044Y-78023911D01*
X95498697Y-78021218D01*
X95475255Y-78005876D01*
X95423626Y-77993719D01*
X95340310Y-77984756D01*
X95221809Y-77978994D01*
X95064623Y-77976441D01*
X94865254Y-77977102D01*
X94620201Y-77980987D01*
X94325966Y-77988102D01*
X93979050Y-77998454D01*
X93575954Y-78012051D01*
X93113178Y-78028900D01*
X93043583Y-78031497D01*
X92669079Y-78044936D01*
X92347075Y-78054845D01*
X92068429Y-78060647D01*
X91824000Y-78061767D01*
X91604644Y-78057629D01*
X91401218Y-78047658D01*
X91204582Y-78031277D01*
X91005592Y-78007911D01*
X90795106Y-77976985D01*
X90563982Y-77937923D01*
X90303077Y-77890149D01*
X90003249Y-77833088D01*
X89879412Y-77809308D01*
X89566169Y-77809308D01*
X89524546Y-77734750D01*
X89433514Y-77574548D01*
X89337596Y-77408288D01*
X89242203Y-77245495D01*
X89152744Y-77095697D01*
X89074631Y-76968421D01*
X89021732Y-76882191D01*
X89360658Y-76882191D01*
X89370594Y-76907234D01*
X89406439Y-76971884D01*
X89460261Y-77061156D01*
X89505273Y-77135037D01*
X89588689Y-77277028D01*
X89661923Y-77407099D01*
X89702776Y-77476331D01*
X89759092Y-77548024D01*
X89799555Y-77566060D01*
X89877578Y-77554667D01*
X89994079Y-77555759D01*
X90124907Y-77568163D01*
X90246284Y-77590575D01*
X90294466Y-77601686D01*
X90440946Y-77630467D01*
X90627480Y-77662493D01*
X90838268Y-77695256D01*
X91057508Y-77726247D01*
X91269400Y-77752960D01*
X91351751Y-77760226D01*
X91521651Y-77768266D01*
X91737854Y-77773005D01*
X91990237Y-77774637D01*
X92268675Y-77773355D01*
X92563043Y-77769352D01*
X92863217Y-77762821D01*
X93159073Y-77753956D01*
X93440486Y-77742949D01*
X93697332Y-77729994D01*
X93919486Y-77715284D01*
X94096824Y-77699012D01*
X94302428Y-77675966D01*
X94311281Y-77272665D01*
X94311784Y-77249038D01*
X94314205Y-77100623D01*
X94314928Y-76979757D01*
X94602926Y-76979757D01*
X94602926Y-77283555D01*
X94602926Y-77691781D01*
X95029950Y-77691781D01*
X95456974Y-77691781D01*
X95456974Y-77684756D01*
X95739818Y-77684756D01*
X95981032Y-77691781D01*
X96397088Y-77703898D01*
X96426032Y-77704766D01*
X96635934Y-77712518D01*
X96834212Y-77722192D01*
X97007959Y-77733000D01*
X97144269Y-77744151D01*
X97230235Y-77754857D01*
X97280893Y-77762957D01*
X97457324Y-77778493D01*
X97645569Y-77779517D01*
X97830707Y-77767380D01*
X97997819Y-77743429D01*
X98131986Y-77709015D01*
X98218288Y-77665488D01*
X98235503Y-77654200D01*
X98278986Y-77634775D01*
X98351806Y-77609196D01*
X98461907Y-77574906D01*
X98617230Y-77529347D01*
X98825716Y-77469964D01*
X98858113Y-77460663D01*
X98979912Y-77424233D01*
X99100946Y-77386409D01*
X99149955Y-77372529D01*
X99244901Y-77355637D01*
X99309151Y-77357477D01*
X99351046Y-77359948D01*
X99417853Y-77320560D01*
X99431491Y-77302702D01*
X99472836Y-77236673D01*
X99523701Y-77146129D01*
X99575873Y-77046941D01*
X99621140Y-76954981D01*
X99651290Y-76886119D01*
X99658111Y-76856225D01*
X99628358Y-76843424D01*
X99542743Y-76819485D01*
X99422151Y-76792717D01*
X99283080Y-76766679D01*
X99142030Y-76744929D01*
X99088218Y-76738763D01*
X98925724Y-76726981D01*
X98721116Y-76718569D01*
X98489072Y-76713561D01*
X98244271Y-76711993D01*
X98001391Y-76713901D01*
X97775109Y-76719319D01*
X97580105Y-76728282D01*
X97431057Y-76740826D01*
X97106334Y-76777408D01*
X96741402Y-76814184D01*
X96401548Y-76843849D01*
X96105417Y-76864663D01*
X95757472Y-76885181D01*
X95748645Y-77284969D01*
X95739818Y-77684756D01*
X95456974Y-77684756D01*
X95456974Y-77311212D01*
X95456973Y-77307979D01*
X95454788Y-77132586D01*
X95447915Y-77013599D01*
X95435686Y-76944391D01*
X95417434Y-76918335D01*
X95417073Y-76918227D01*
X95370333Y-76912238D01*
X95274450Y-76905054D01*
X95143213Y-76897570D01*
X94990411Y-76890678D01*
X94602926Y-76875329D01*
X94602926Y-76979757D01*
X94314928Y-76979757D01*
X94313953Y-76898338D01*
X94311281Y-76868262D01*
X94307219Y-76867601D01*
X94258525Y-76859019D01*
X94167476Y-76842719D01*
X94049377Y-76821437D01*
X93924502Y-76804341D01*
X93752318Y-76789324D01*
X93561718Y-76779046D01*
X93375761Y-76775094D01*
X92955196Y-76774471D01*
X93065597Y-76919058D01*
X93147801Y-77040864D01*
X93221064Y-77187059D01*
X93261010Y-77318971D01*
X93261763Y-77421543D01*
X93255661Y-77442319D01*
X93219913Y-77489700D01*
X93146497Y-77501993D01*
X93125633Y-77501428D01*
X93058996Y-77480115D01*
X93020358Y-77415007D01*
X93013249Y-77395670D01*
X92952607Y-77263573D01*
X92864734Y-77122678D01*
X92739515Y-76956470D01*
X92594333Y-76774707D01*
X92104047Y-76774864D01*
X91848645Y-76776726D01*
X91633417Y-76782888D01*
X91473265Y-76793776D01*
X91364026Y-76809819D01*
X91301536Y-76831440D01*
X91281631Y-76859068D01*
X91295302Y-76909919D01*
X91332716Y-76981188D01*
X91359887Y-77027311D01*
X91365424Y-77076148D01*
X91331987Y-77138232D01*
X91317992Y-77158171D01*
X91253982Y-77212547D01*
X91188315Y-77206431D01*
X91119217Y-77139028D01*
X91044915Y-77009542D01*
X90970758Y-76855675D01*
X90169345Y-76865436D01*
X89984282Y-76867877D01*
X89784127Y-76870979D01*
X89613172Y-76874139D01*
X89479933Y-76877178D01*
X89392923Y-76879921D01*
X89360658Y-76882191D01*
X89021732Y-76882191D01*
X88995042Y-76838683D01*
X88921301Y-76713339D01*
X88865501Y-76612901D01*
X88835760Y-76551534D01*
X88833175Y-76544426D01*
X88818823Y-76443026D01*
X88844069Y-76363459D01*
X88896101Y-76313028D01*
X88962109Y-76299034D01*
X89029283Y-76328781D01*
X89084812Y-76409569D01*
X89090010Y-76421371D01*
X89138932Y-76501548D01*
X89191828Y-76551911D01*
X89213067Y-76557555D01*
X89292995Y-76566055D01*
X89418421Y-76572978D01*
X89578472Y-76578283D01*
X89762276Y-76581932D01*
X89958958Y-76583884D01*
X90157647Y-76584100D01*
X90347469Y-76582541D01*
X90517550Y-76579167D01*
X90657019Y-76573938D01*
X90755002Y-76566815D01*
X90800626Y-76557759D01*
X90804557Y-76554676D01*
X90813182Y-76524219D01*
X90799582Y-76463658D01*
X90761116Y-76364488D01*
X90695142Y-76218206D01*
X90625772Y-76064781D01*
X90520368Y-75818170D01*
X90411583Y-75550668D01*
X90308621Y-75285050D01*
X90220683Y-75044090D01*
X90217088Y-75033745D01*
X90186724Y-74930609D01*
X90181886Y-74859379D01*
X90200700Y-74796871D01*
X90206056Y-74785625D01*
X90251686Y-74731687D01*
X90323137Y-74724264D01*
X90360191Y-74732692D01*
X90393635Y-74757015D01*
X90425402Y-74807956D01*
X90462315Y-74896779D01*
X90511197Y-75034745D01*
X90538567Y-75112541D01*
X90588045Y-75245000D01*
X90632007Y-75353195D01*
X90663358Y-75419202D01*
X90697073Y-75489268D01*
X90711724Y-75545728D01*
X90718015Y-75570613D01*
X90746118Y-75647473D01*
X90792870Y-75763893D01*
X90853999Y-75909322D01*
X90925236Y-76073210D01*
X91139290Y-76558125D01*
X91265815Y-76539080D01*
X91276259Y-76537631D01*
X91365083Y-76528771D01*
X91497928Y-76518814D01*
X91658630Y-76508875D01*
X91831024Y-76500069D01*
X92269707Y-76480104D01*
X92161844Y-76413776D01*
X92027647Y-76325317D01*
X91894717Y-76217953D01*
X91815904Y-76124660D01*
X91794165Y-76048377D01*
X91798511Y-76023187D01*
X91829292Y-75968856D01*
X91889096Y-75954472D01*
X91982088Y-75980988D01*
X92112435Y-76049359D01*
X92284301Y-76160536D01*
X92400537Y-76241084D01*
X92517211Y-76323916D01*
X92608004Y-76390531D01*
X92659635Y-76431347D01*
X92667493Y-76438033D01*
X92699692Y-76457802D01*
X92745826Y-76471849D01*
X92815757Y-76481121D01*
X92919351Y-76486569D01*
X93066471Y-76489142D01*
X93266982Y-76489789D01*
X93393468Y-76490549D01*
X93579731Y-76494340D01*
X93745993Y-76500769D01*
X93877833Y-76509227D01*
X93960834Y-76519106D01*
X94001734Y-76526926D01*
X94119502Y-76548785D01*
X94215442Y-76565762D01*
X94318244Y-76583101D01*
X94318244Y-76576084D01*
X94602926Y-76576084D01*
X94749682Y-76596199D01*
X94753154Y-76596666D01*
X94861487Y-76606582D01*
X95002266Y-76613631D01*
X95145955Y-76616314D01*
X95395473Y-76616314D01*
X95375878Y-76402802D01*
X95365381Y-76300081D01*
X95346134Y-76139574D01*
X95326430Y-75999502D01*
X95322956Y-75975207D01*
X95310466Y-75858275D01*
X95297795Y-75700910D01*
X95286247Y-75520702D01*
X95277129Y-75335243D01*
X95269271Y-75160361D01*
X95260400Y-75021404D01*
X95249278Y-74922828D01*
X95234000Y-74852758D01*
X95212661Y-74799316D01*
X95208184Y-74791878D01*
X95551868Y-74791878D01*
X95725656Y-75022777D01*
X95756810Y-75063249D01*
X95865024Y-75194307D01*
X95989171Y-75333905D01*
X96119845Y-75472520D01*
X96247640Y-75600630D01*
X96363150Y-75708711D01*
X96456969Y-75787241D01*
X96519692Y-75826696D01*
X96521457Y-75827364D01*
X96665257Y-75858617D01*
X96787960Y-75839939D01*
X96878777Y-75772943D01*
X96930151Y-75690907D01*
X96963221Y-75606878D01*
X96963532Y-75605484D01*
X96984671Y-75515481D01*
X97009805Y-75414322D01*
X97021038Y-75354736D01*
X97033463Y-75236340D01*
X97038366Y-75110322D01*
X97037052Y-75038024D01*
X97024206Y-74939475D01*
X96989987Y-74851713D01*
X96925123Y-74744807D01*
X96910954Y-74723710D01*
X96844682Y-74638268D01*
X96765955Y-74562995D01*
X96659968Y-74485266D01*
X96511914Y-74392455D01*
X96465284Y-74364898D01*
X96314041Y-74282909D01*
X96195134Y-74230667D01*
X96117661Y-74212329D01*
X96033454Y-74201038D01*
X95936048Y-74167263D01*
X95907400Y-74153432D01*
X95853791Y-74140011D01*
X95792856Y-74151718D01*
X95700408Y-74190986D01*
X95586055Y-74243961D01*
X95551917Y-74259776D01*
X95551893Y-74525827D01*
X95551868Y-74791878D01*
X95208184Y-74791878D01*
X95183356Y-74750628D01*
X95165980Y-74724226D01*
X95125290Y-74655700D01*
X95109028Y-74616959D01*
X95108436Y-74612704D01*
X95088301Y-74565199D01*
X95048428Y-74493785D01*
X94987828Y-74394136D01*
X94795377Y-74797086D01*
X94638254Y-75126067D01*
X94602926Y-75200036D01*
X94602926Y-75888060D01*
X94602926Y-76576084D01*
X94318244Y-76576084D01*
X94318244Y-76047136D01*
X94318244Y-75511171D01*
X94025734Y-75660442D01*
X93733224Y-75809714D01*
X93353567Y-75808118D01*
X93193808Y-75806163D01*
X93069261Y-75800149D01*
X92979027Y-75788059D01*
X92908123Y-75767823D01*
X92841567Y-75737371D01*
X92757915Y-75688944D01*
X92678497Y-75622707D01*
X92631660Y-75544623D01*
X92616369Y-75445656D01*
X92619710Y-75417365D01*
X92894832Y-75417365D01*
X92894895Y-75420139D01*
X92925081Y-75469753D01*
X93013449Y-75507553D01*
X93028173Y-75511181D01*
X93127081Y-75525922D01*
X93259473Y-75536052D01*
X93400934Y-75539557D01*
X93437288Y-75539328D01*
X93569203Y-75534529D01*
X93668539Y-75519507D01*
X93760311Y-75488777D01*
X93869531Y-75436860D01*
X93973637Y-75379330D01*
X94097627Y-75301267D01*
X94193753Y-75230584D01*
X94318244Y-75126067D01*
X94318244Y-74548186D01*
X94318233Y-74476722D01*
X94317727Y-74290520D01*
X94317521Y-74277237D01*
X94602926Y-74277237D01*
X94603030Y-74311565D01*
X94604964Y-74422151D01*
X94608840Y-74499517D01*
X94613997Y-74528643D01*
X94616560Y-74526493D01*
X94638197Y-74487104D01*
X94673255Y-74411855D01*
X94713989Y-74318763D01*
X94751964Y-74227509D01*
X95242312Y-74227509D01*
X95246098Y-74265048D01*
X95255612Y-74269997D01*
X95267185Y-74243961D01*
X95264902Y-74227215D01*
X95246098Y-74222873D01*
X95242312Y-74227509D01*
X94751964Y-74227509D01*
X94752655Y-74225848D01*
X94781509Y-74151128D01*
X94792805Y-74112622D01*
X94792706Y-74111663D01*
X94763441Y-74087535D01*
X94697820Y-74058912D01*
X94602926Y-74025832D01*
X94602926Y-74277237D01*
X94317521Y-74277237D01*
X94315620Y-74154877D01*
X94310771Y-74060158D01*
X94302035Y-73996727D01*
X94288270Y-73954950D01*
X94268332Y-73925190D01*
X94241079Y-73897813D01*
X94163913Y-73825320D01*
X93852982Y-73923207D01*
X93788658Y-73943814D01*
X93654826Y-73991457D01*
X93558846Y-74036710D01*
X93483588Y-74088625D01*
X93411923Y-74156251D01*
X93356166Y-74216768D01*
X93288903Y-74297492D01*
X93249677Y-74354670D01*
X93246595Y-74360995D01*
X93217616Y-74431234D01*
X93176301Y-74542638D01*
X93126852Y-74682614D01*
X93073476Y-74838572D01*
X93020376Y-74997919D01*
X92971757Y-75148063D01*
X92931824Y-75276414D01*
X92904780Y-75370378D01*
X92894832Y-75417365D01*
X92619710Y-75417365D01*
X92631590Y-75316773D01*
X92676286Y-75148940D01*
X92749424Y-74933122D01*
X92755248Y-74916855D01*
X92809281Y-74764492D01*
X92856478Y-74628986D01*
X92891937Y-74524546D01*
X92910758Y-74465380D01*
X92936131Y-74399396D01*
X92982826Y-74299165D01*
X93040349Y-74187517D01*
X93045372Y-74178217D01*
X93097209Y-74080382D01*
X93133936Y-74007747D01*
X93147883Y-73975438D01*
X93145774Y-73972560D01*
X93105200Y-73957477D01*
X93029265Y-73940555D01*
X92968207Y-73924966D01*
X92853352Y-73884177D01*
X92736675Y-73832537D01*
X92656757Y-73794229D01*
X92554996Y-73749186D01*
X92483624Y-73721996D01*
X92435580Y-73702896D01*
X92322861Y-73641105D01*
X92188238Y-73552606D01*
X92047273Y-73447927D01*
X91915527Y-73337599D01*
X91838797Y-73271022D01*
X91777544Y-73228620D01*
X91733214Y-73218204D01*
X91690873Y-73232809D01*
X91671919Y-73242934D01*
X91644020Y-73254217D01*
X91611176Y-73256442D01*
X91562458Y-73247174D01*
X91486937Y-73223979D01*
X91373682Y-73184419D01*
X91211765Y-73126062D01*
X91134691Y-73096963D01*
X90987982Y-73035387D01*
X90858987Y-72973873D01*
X90768925Y-72922188D01*
X90567934Y-72797937D01*
X90393139Y-72720086D01*
X90252792Y-72694023D01*
X90125154Y-72678484D01*
X90043931Y-72630609D01*
X90016376Y-72551682D01*
X90016390Y-72549364D01*
X90042601Y-72468659D01*
X90113621Y-72421934D01*
X90221746Y-72408186D01*
X90359271Y-72426414D01*
X90518492Y-72475614D01*
X90691704Y-72554784D01*
X90871204Y-72662922D01*
X90875977Y-72666155D01*
X90972521Y-72728124D01*
X91050431Y-72772161D01*
X91093235Y-72788917D01*
X91095603Y-72788993D01*
X91151017Y-72802286D01*
X91229404Y-72831501D01*
X91257408Y-72843074D01*
X91347871Y-72877454D01*
X91444328Y-72911185D01*
X91525113Y-72936878D01*
X91568559Y-72947145D01*
X91569156Y-72946927D01*
X91574122Y-72913460D01*
X91575006Y-72834106D01*
X91571589Y-72724781D01*
X91573786Y-72687718D01*
X91850996Y-72687718D01*
X91851345Y-72725926D01*
X91860599Y-72828784D01*
X91889414Y-72905862D01*
X91947064Y-72985944D01*
X92019648Y-73065021D01*
X92206237Y-73222674D01*
X92444392Y-73378480D01*
X92726547Y-73527186D01*
X92847586Y-73583443D01*
X92971141Y-73634730D01*
X93073872Y-73666215D01*
X93175541Y-73683645D01*
X93295912Y-73692768D01*
X93417835Y-73696605D01*
X93521294Y-73690381D01*
X93607657Y-73669008D01*
X93701432Y-73628608D01*
X93766088Y-73599097D01*
X93855594Y-73564358D01*
X93912736Y-73550011D01*
X93939285Y-73544939D01*
X93951552Y-73515754D01*
X93936035Y-73445268D01*
X93931161Y-73427362D01*
X93926320Y-73364551D01*
X94206230Y-73364551D01*
X94237920Y-73439156D01*
X94265296Y-73486998D01*
X94367902Y-73617286D01*
X94498055Y-73707085D01*
X94672749Y-73769296D01*
X94716012Y-73780474D01*
X94810632Y-73802543D01*
X94866831Y-73807495D01*
X94901528Y-73795045D01*
X94931643Y-73764904D01*
X94970646Y-73728958D01*
X95044963Y-73708060D01*
X95113819Y-73746332D01*
X95169529Y-73841304D01*
X95169671Y-73841676D01*
X95218264Y-73909600D01*
X95295638Y-73925790D01*
X95407101Y-73891365D01*
X95409486Y-73890286D01*
X95480918Y-73871205D01*
X95535115Y-73895238D01*
X95548526Y-73905835D01*
X95576963Y-73913363D01*
X95583499Y-73866178D01*
X95589349Y-73808336D01*
X95610573Y-73765412D01*
X96057970Y-73765412D01*
X96060938Y-73773878D01*
X96100193Y-73813285D01*
X96170488Y-73861260D01*
X96248621Y-73897059D01*
X96368255Y-73921711D01*
X96513358Y-73920952D01*
X96688786Y-73893692D01*
X96899394Y-73838842D01*
X97150039Y-73755314D01*
X97445576Y-73642018D01*
X97790861Y-73497865D01*
X97797252Y-73495162D01*
X97885007Y-73465419D01*
X97954363Y-73453176D01*
X97957922Y-73453086D01*
X98028022Y-73435854D01*
X98111246Y-73397821D01*
X98152498Y-73372831D01*
X98184473Y-73341541D01*
X98201129Y-73294414D01*
X98207447Y-73215641D01*
X98208407Y-73089415D01*
X98208392Y-73077995D01*
X98204917Y-72944392D01*
X98191540Y-72848034D01*
X98162759Y-72764733D01*
X98113073Y-72670299D01*
X98017836Y-72504235D01*
X97243507Y-72504235D01*
X97128051Y-72504154D01*
X96905098Y-72504164D01*
X96733217Y-72506340D01*
X96603929Y-72513013D01*
X96508755Y-72526515D01*
X96439215Y-72549180D01*
X96386831Y-72583339D01*
X96377432Y-72593658D01*
X96343122Y-72631325D01*
X96299610Y-72695470D01*
X96247815Y-72778106D01*
X96246492Y-72780195D01*
X96193457Y-72874027D01*
X96177657Y-72931866D01*
X96175341Y-72940343D01*
X96186457Y-72999680D01*
X96194985Y-73024927D01*
X96215305Y-73180926D01*
X96207251Y-73254121D01*
X96195426Y-73361595D01*
X96137048Y-73548070D01*
X96099521Y-73640783D01*
X96069486Y-73722790D01*
X96057970Y-73765412D01*
X95610573Y-73765412D01*
X95636138Y-73713707D01*
X95723641Y-73662159D01*
X95763139Y-73643345D01*
X95826446Y-73575141D01*
X95878102Y-73476411D01*
X95913502Y-73363842D01*
X95928037Y-73254121D01*
X95917102Y-73163935D01*
X95876089Y-73109969D01*
X95834729Y-73095661D01*
X95742781Y-73075919D01*
X95630946Y-73059837D01*
X95609925Y-73057525D01*
X95512184Y-73049280D01*
X95454164Y-73055568D01*
X95416017Y-73082322D01*
X95377895Y-73135475D01*
X95355905Y-73166779D01*
X95278084Y-73239910D01*
X95203448Y-73250743D01*
X95133332Y-73198930D01*
X95097842Y-73135972D01*
X95092591Y-73079630D01*
X95092959Y-73078607D01*
X95076314Y-73052043D01*
X95012043Y-73040100D01*
X94913318Y-73041360D01*
X94793310Y-73054406D01*
X94665190Y-73077823D01*
X94542128Y-73110194D01*
X94437295Y-73150102D01*
X94342474Y-73197032D01*
X94251547Y-73253580D01*
X94208452Y-73306056D01*
X94206230Y-73364551D01*
X93926320Y-73364551D01*
X93920853Y-73293623D01*
X93965933Y-73175059D01*
X94070173Y-73060859D01*
X94102292Y-73032846D01*
X94159059Y-72974760D01*
X94176238Y-72931866D01*
X94162394Y-72888122D01*
X94126726Y-72838451D01*
X94059423Y-72775783D01*
X94020844Y-72737772D01*
X93953927Y-72656141D01*
X93919671Y-72610218D01*
X94478752Y-72610218D01*
X94479315Y-72714022D01*
X94484714Y-72777650D01*
X94495295Y-72809235D01*
X94511404Y-72816911D01*
X94521678Y-72815794D01*
X94590506Y-72804744D01*
X94682005Y-72787102D01*
X94690200Y-72785502D01*
X94790028Y-72772778D01*
X94842256Y-72769082D01*
X95725055Y-72769082D01*
X95731870Y-72784066D01*
X95794857Y-72788433D01*
X95817911Y-72787736D01*
X95897054Y-72762821D01*
X95965023Y-72691287D01*
X96034542Y-72593658D01*
X95911822Y-72658433D01*
X95883547Y-72673538D01*
X95798773Y-72720832D01*
X95741656Y-72755578D01*
X95725055Y-72769082D01*
X94842256Y-72769082D01*
X94923509Y-72763332D01*
X95064122Y-72759109D01*
X95179831Y-72757459D01*
X95268160Y-72750085D01*
X95330901Y-72730511D01*
X95388027Y-72692130D01*
X95459514Y-72628337D01*
X95570678Y-72541152D01*
X95709451Y-72455687D01*
X95854984Y-72383317D01*
X95988831Y-72333188D01*
X96092550Y-72314446D01*
X96148337Y-72307137D01*
X96234862Y-72258543D01*
X96315924Y-72159162D01*
X96397466Y-72002919D01*
X96399453Y-71998486D01*
X96493213Y-71768267D01*
X96553512Y-71563665D01*
X96585784Y-71360896D01*
X96595462Y-71136177D01*
X96595703Y-70827771D01*
X96445454Y-70827562D01*
X96361917Y-70830125D01*
X96187550Y-70844754D01*
X95985630Y-70869924D01*
X95777249Y-70902865D01*
X95583499Y-70940806D01*
X95478953Y-70962683D01*
X95387227Y-70979575D01*
X95336598Y-70986011D01*
X95321358Y-70988733D01*
X95253770Y-71010847D01*
X95151213Y-71050380D01*
X95029168Y-71101515D01*
X94900805Y-71163118D01*
X94780513Y-71240503D01*
X94686861Y-71332250D01*
X94616157Y-71446481D01*
X94564713Y-71591320D01*
X94528840Y-71774891D01*
X94504847Y-72005317D01*
X94489045Y-72290723D01*
X94482680Y-72458105D01*
X94478752Y-72610218D01*
X93919671Y-72610218D01*
X93871335Y-72545420D01*
X93782893Y-72418308D01*
X93762038Y-72387363D01*
X93673312Y-72259765D01*
X93603549Y-72171246D01*
X93540674Y-72109590D01*
X93472617Y-72062579D01*
X93387305Y-72017999D01*
X93364413Y-72006990D01*
X93291792Y-71974629D01*
X93224353Y-71952266D01*
X93148409Y-71937917D01*
X93050269Y-71929596D01*
X92916244Y-71925320D01*
X92732646Y-71923104D01*
X92265590Y-71919054D01*
X92133502Y-72045580D01*
X92106399Y-72072664D01*
X91968762Y-72257514D01*
X91881501Y-72467366D01*
X91850996Y-72687718D01*
X91573786Y-72687718D01*
X91585191Y-72495336D01*
X91658943Y-72250463D01*
X91794280Y-72018905D01*
X91990951Y-71801218D01*
X92058405Y-71745751D01*
X92160275Y-71687938D01*
X92282123Y-71649832D01*
X92434497Y-71629430D01*
X92627947Y-71624728D01*
X92873022Y-71633723D01*
X92909404Y-71635863D01*
X93170157Y-71661829D01*
X93382068Y-71707656D01*
X93556764Y-71779451D01*
X93705871Y-71883317D01*
X93841014Y-72025358D01*
X93973821Y-72211678D01*
X93990523Y-72237424D01*
X94057580Y-72336904D01*
X94112096Y-72411949D01*
X94143579Y-72447952D01*
X94161628Y-72446062D01*
X94184418Y-72394537D01*
X94202682Y-72292116D01*
X94215264Y-72146038D01*
X94221005Y-71963545D01*
X94232306Y-71798500D01*
X94279851Y-71564244D01*
X94359090Y-71347183D01*
X94464218Y-71162129D01*
X94589425Y-71023895D01*
X94692196Y-70954947D01*
X94857182Y-70874837D01*
X95058833Y-70798624D01*
X95286543Y-70728473D01*
X95529708Y-70666550D01*
X95777722Y-70615020D01*
X96019979Y-70576048D01*
X96245876Y-70551799D01*
X96444805Y-70544439D01*
X96606163Y-70556132D01*
X96719344Y-70589044D01*
X96751567Y-70607814D01*
X96808561Y-70660352D01*
X96846522Y-70735515D01*
X96864860Y-70827771D01*
X96867946Y-70843299D01*
G37*
%TD*%
M02*
