%TF.GenerationSoftware,KiCad,Pcbnew,8.0.0*%
%TF.CreationDate,2024-05-08T00:57:59+10:00*%
%TF.ProjectId,PlantPulse_Node,506c616e-7450-4756-9c73-655f4e6f6465,rev?*%
%TF.SameCoordinates,Original*%
%TF.FileFunction,Copper,L1,Top*%
%TF.FilePolarity,Positive*%
%FSLAX46Y46*%
G04 Gerber Fmt 4.6, Leading zero omitted, Abs format (unit mm)*
G04 Created by KiCad (PCBNEW 8.0.0) date 2024-05-08 00:57:59*
%MOMM*%
%LPD*%
G01*
G04 APERTURE LIST*
%ADD10C,0.100000*%
%TA.AperFunction,NonConductor*%
%ADD11C,0.100000*%
%TD*%
%TA.AperFunction,ComponentPad*%
%ADD12C,1.500000*%
%TD*%
%TA.AperFunction,ComponentPad*%
%ADD13R,1.700000X1.700000*%
%TD*%
%TA.AperFunction,ComponentPad*%
%ADD14O,1.700000X1.700000*%
%TD*%
%TA.AperFunction,ComponentPad*%
%ADD15C,1.600000*%
%TD*%
%TA.AperFunction,ComponentPad*%
%ADD16O,1.600000X1.600000*%
%TD*%
%TA.AperFunction,ComponentPad*%
%ADD17C,1.800000*%
%TD*%
%TA.AperFunction,ViaPad*%
%ADD18C,0.600000*%
%TD*%
%TA.AperFunction,Conductor*%
%ADD19C,0.200000*%
%TD*%
%TA.AperFunction,Conductor*%
%ADD20C,0.400000*%
%TD*%
G04 APERTURE END LIST*
D10*
D11*
X80015789Y-64442466D02*
X79482455Y-64642466D01*
X79482455Y-64642466D02*
X80015789Y-64842466D01*
X80282456Y-64209133D02*
X80715789Y-64209133D01*
X80715789Y-64209133D02*
X80482456Y-64475800D01*
X80482456Y-64475800D02*
X80582456Y-64475800D01*
X80582456Y-64475800D02*
X80649122Y-64509133D01*
X80649122Y-64509133D02*
X80682456Y-64542466D01*
X80682456Y-64542466D02*
X80715789Y-64609133D01*
X80715789Y-64609133D02*
X80715789Y-64775800D01*
X80715789Y-64775800D02*
X80682456Y-64842466D01*
X80682456Y-64842466D02*
X80649122Y-64875800D01*
X80649122Y-64875800D02*
X80582456Y-64909133D01*
X80582456Y-64909133D02*
X80382456Y-64909133D01*
X80382456Y-64909133D02*
X80315789Y-64875800D01*
X80315789Y-64875800D02*
X80282456Y-64842466D01*
D12*
%TO.P,TP6,1,1*%
%TO.N,+3V3*%
X38000000Y-87500000D03*
%TD*%
D13*
%TO.P,J4,1,Pin_1*%
%TO.N,/Soil_A_Out3*%
X45330000Y-92500000D03*
D14*
%TO.P,J4,2,Pin_2*%
%TO.N,+3V3*%
X45330000Y-95040000D03*
%TO.P,J4,3,Pin_3*%
%TO.N,GND*%
X45330000Y-97580000D03*
%TD*%
D15*
%TO.P,R1,1*%
%TO.N,VBAT*%
X76000000Y-84620000D03*
D16*
%TO.P,R1,2*%
%TO.N,/Vbatt_Sense*%
X76000000Y-77000000D03*
%TD*%
D13*
%TO.P,J1,1,Pin_1*%
%TO.N,VBAT*%
X61950000Y-64560000D03*
D14*
%TO.P,J1,2,Pin_2*%
%TO.N,GND*%
X64490000Y-64560000D03*
%TD*%
D13*
%TO.P,J2,1,Pin_1*%
%TO.N,/Soil_A_Out1*%
X55490000Y-92500000D03*
D14*
%TO.P,J2,2,Pin_2*%
%TO.N,+3V3*%
X55490000Y-95040000D03*
%TO.P,J2,3,Pin_3*%
%TO.N,GND*%
X55490000Y-97580000D03*
%TD*%
D12*
%TO.P,TP1,1,1*%
%TO.N,VBAT*%
X69460000Y-95675000D03*
%TD*%
D17*
%TO.P,U1,1,GP1*%
%TO.N,/Soil_A_Out1*%
X40730000Y-63730000D03*
%TO.P,U1,2,GP2*%
%TO.N,/Soil_A_Out2*%
X40730000Y-66270000D03*
%TO.P,U1,3,GP3*%
%TO.N,/Soil_A_Out3*%
X40730000Y-68810000D03*
%TO.P,U1,4,GP4*%
%TO.N,/Soil_A_Out4*%
X40730000Y-71350000D03*
%TO.P,U1,5,GP5*%
%TO.N,/Vbatt_Sense*%
X40730000Y-73890000D03*
%TO.P,U1,6,GP6*%
%TO.N,unconnected-(U1-GP6-Pad6)*%
X40730000Y-76430000D03*
%TO.P,U1,7,GP43*%
%TO.N,unconnected-(U1-GP43-Pad7)*%
X40730000Y-78970000D03*
%TO.P,U1,8,5V*%
%TO.N,unconnected-(U1-5V-Pad8)*%
X55970000Y-63730000D03*
%TO.P,U1,9,GND*%
%TO.N,GND*%
X55970000Y-66270000D03*
%TO.P,U1,10,3V3*%
%TO.N,+3V3*%
X55970000Y-68810000D03*
%TO.P,U1,11,GP9*%
%TO.N,/SCL*%
X55970000Y-71350000D03*
%TO.P,U1,12,GP8*%
%TO.N,/SDA*%
X55970000Y-73890000D03*
%TO.P,U1,13,GP7*%
%TO.N,/DONE*%
X55970000Y-76430000D03*
%TO.P,U1,14,GP44*%
%TO.N,unconnected-(U1-GP44-Pad14)*%
X55970000Y-78970000D03*
%TD*%
D13*
%TO.P,J3,1,Pin_1*%
%TO.N,/Soil_A_Out2*%
X50410000Y-92500000D03*
D14*
%TO.P,J3,2,Pin_2*%
%TO.N,+3V3*%
X50410000Y-95040000D03*
%TO.P,J3,3,Pin_3*%
%TO.N,GND*%
X50410000Y-97580000D03*
%TD*%
D12*
%TO.P,TP2,1,1*%
%TO.N,/Vbatt_Sense*%
X35750000Y-74000000D03*
%TD*%
%TO.P,TP4,1,1*%
%TO.N,/DONE*%
X67682000Y-87928000D03*
%TD*%
%TO.P,TP5,1,1*%
%TO.N,GND*%
X74540000Y-95675000D03*
%TD*%
D13*
%TO.P,J5,1,Pin_1*%
%TO.N,/Soil_A_Out4*%
X40250000Y-92500000D03*
D14*
%TO.P,J5,2,Pin_2*%
%TO.N,+3V3*%
X40250000Y-95040000D03*
%TO.P,J5,3,Pin_3*%
%TO.N,GND*%
X40250000Y-97580000D03*
%TD*%
D17*
%TO.P,U2,6,IN+*%
%TO.N,unconnected-(U2-IN+-Pad6)*%
X71650000Y-74000000D03*
%TO.P,U2,5,DLY*%
%TO.N,unconnected-(U2-DLY-Pad5)*%
X71650000Y-76540000D03*
%TO.P,U2,4,IN-*%
%TO.N,unconnected-(U2-IN--Pad4)*%
X71650000Y-79080000D03*
%TO.P,U2,3,DNE*%
%TO.N,/DONE*%
X71650000Y-81620000D03*
%TO.P,U2,2,OUT+*%
%TO.N,VBAT*%
X71650000Y-84160000D03*
%TO.P,U2,1,OUT-*%
%TO.N,GND*%
X71650000Y-86700000D03*
%TD*%
D13*
%TO.P,J6,1,Pin_1*%
%TO.N,GND*%
X60950000Y-97580000D03*
D14*
%TO.P,J6,2,Pin_2*%
%TO.N,+3V3*%
X60950000Y-95040000D03*
%TO.P,J6,3,Pin_3*%
%TO.N,/SDA*%
X60950000Y-92500000D03*
%TO.P,J6,4,Pin_4*%
%TO.N,/SCL*%
X60950000Y-89960000D03*
%TD*%
D12*
%TO.P,TP7,1,1*%
%TO.N,/Soil_A_Out4*%
X38726000Y-84626000D03*
%TD*%
D15*
%TO.P,R2,1*%
%TO.N,/Vbatt_Sense*%
X76000000Y-73810000D03*
D16*
%TO.P,R2,2*%
%TO.N,GND*%
X76000000Y-66190000D03*
%TD*%
D18*
%TO.N,GND*%
X35250000Y-69600000D03*
X56050000Y-84400000D03*
X52250000Y-74000000D03*
X65450000Y-86600000D03*
X47850000Y-66400000D03*
X42850000Y-71600000D03*
X68850000Y-69200000D03*
X48650000Y-88400000D03*
X46250000Y-90000000D03*
X52450000Y-66400000D03*
X35250000Y-81000000D03*
X42850000Y-88800000D03*
%TO.N,/SDA*%
X52950000Y-74720000D03*
%TD*%
D19*
%TO.N,VBAT*%
X76000000Y-87230000D02*
X69460000Y-93770000D01*
X75540000Y-84160000D02*
X76000000Y-84620000D01*
D20*
X73524000Y-82286000D02*
X71650000Y-84160000D01*
X61950000Y-70600000D02*
X62895000Y-71545000D01*
D19*
X69460000Y-93770000D02*
X69460000Y-95675000D01*
D20*
X72254000Y-71545000D02*
X73524000Y-72815000D01*
D19*
X71650000Y-84160000D02*
X75540000Y-84160000D01*
X76000000Y-84620000D02*
X76000000Y-87230000D01*
D20*
X62895000Y-71545000D02*
X72254000Y-71545000D01*
X73524000Y-72815000D02*
X73524000Y-82286000D01*
X61950000Y-64560000D02*
X61950000Y-70600000D01*
%TO.N,+3V3*%
X58665000Y-95040000D02*
X60950000Y-95040000D01*
X58030000Y-94405000D02*
X58030000Y-95040000D01*
D19*
X40235000Y-95025000D02*
X40250000Y-95040000D01*
D20*
X58030000Y-90595000D02*
X58030000Y-94405000D01*
X53145000Y-68810000D02*
X51045000Y-70910000D01*
X58030000Y-95040000D02*
X58665000Y-95040000D01*
X51045000Y-83610000D02*
X58030000Y-90595000D01*
X58030000Y-94405000D02*
X57395000Y-95040000D01*
X40250000Y-95040000D02*
X54200000Y-95040000D01*
X58030000Y-94405000D02*
X58665000Y-95040000D01*
X57395000Y-95040000D02*
X58030000Y-95040000D01*
X51045000Y-70910000D02*
X51045000Y-83610000D01*
X54200000Y-95040000D02*
X57395000Y-95040000D01*
X55970000Y-68810000D02*
X53145000Y-68810000D01*
D19*
%TO.N,/Soil_A_Out1*%
X55490000Y-92500000D02*
X48505000Y-85515000D01*
X48505000Y-69640000D02*
X42595000Y-63730000D01*
X42595000Y-63730000D02*
X40730000Y-63730000D01*
X48505000Y-85515000D02*
X48505000Y-69640000D01*
%TO.N,/Soil_A_Out2*%
X46600000Y-88690000D02*
X46600000Y-70890000D01*
X50410000Y-92500000D02*
X46600000Y-88690000D01*
X46600000Y-70890000D02*
X41980000Y-66270000D01*
X41980000Y-66270000D02*
X40730000Y-66270000D01*
%TO.N,/Soil_A_Out3*%
X44695000Y-71525000D02*
X41980000Y-68810000D01*
X44695000Y-91865000D02*
X44695000Y-71525000D01*
X41980000Y-68810000D02*
X40730000Y-68810000D01*
X45330000Y-92500000D02*
X44695000Y-91865000D01*
%TO.N,/Soil_A_Out4*%
X42790000Y-73410000D02*
X40730000Y-71350000D01*
X41012000Y-86912000D02*
X41266000Y-86912000D01*
X40250000Y-92500000D02*
X40250000Y-87928000D01*
X41012000Y-87166000D02*
X41139000Y-87039000D01*
X41266000Y-86912000D02*
X42790000Y-85388000D01*
X40885000Y-86785000D02*
X41012000Y-86912000D01*
X40885000Y-86785000D02*
X41139000Y-87039000D01*
X38726000Y-84626000D02*
X40885000Y-86785000D01*
X41139000Y-87039000D02*
X41266000Y-86912000D01*
X42790000Y-85388000D02*
X42790000Y-73410000D01*
X41012000Y-86912000D02*
X41012000Y-87166000D01*
X40250000Y-87928000D02*
X41012000Y-87166000D01*
%TO.N,/SDA*%
X60824000Y-92500000D02*
X60950000Y-92500000D01*
X52950000Y-82975000D02*
X59300000Y-89325000D01*
X52950000Y-74720000D02*
X52950000Y-82975000D01*
X59300000Y-89325000D02*
X59300000Y-90976000D01*
X59300000Y-90976000D02*
X60824000Y-92500000D01*
%TO.N,/SCL*%
X54050000Y-80900000D02*
X54050000Y-73270000D01*
X60950000Y-87800000D02*
X54050000Y-80900000D01*
X60950000Y-89960000D02*
X60950000Y-87800000D01*
X54050000Y-73270000D02*
X55970000Y-71350000D01*
%TO.N,/Vbatt_Sense*%
X66500000Y-61600000D02*
X74050000Y-69150000D01*
X40730000Y-73890000D02*
X39420000Y-73890000D01*
X35750000Y-74000000D02*
X38430000Y-74000000D01*
X38853000Y-73577000D02*
X39107000Y-73577000D01*
X39420000Y-73890000D02*
X39234000Y-73704000D01*
X74050000Y-69150000D02*
X74050000Y-69200000D01*
X38980000Y-73450000D02*
X38980000Y-62270000D01*
X76000000Y-71150000D02*
X76000000Y-73810000D01*
X38980000Y-62270000D02*
X39650000Y-61600000D01*
X39107000Y-73577000D02*
X39234000Y-73704000D01*
X39650000Y-61600000D02*
X66500000Y-61600000D01*
X74050000Y-69200000D02*
X76000000Y-71150000D01*
X38430000Y-74000000D02*
X38726000Y-73704000D01*
X38726000Y-73704000D02*
X38853000Y-73577000D01*
X39234000Y-73704000D02*
X38980000Y-73450000D01*
X38726000Y-73704000D02*
X38980000Y-73450000D01*
X76000000Y-77000000D02*
X76000000Y-73810000D01*
%TO.N,/DONE*%
X67682000Y-81620000D02*
X67476000Y-81620000D01*
X67682000Y-81876000D02*
X67720000Y-81876000D01*
X67476000Y-81620000D02*
X66120000Y-81620000D01*
X60930000Y-76430000D02*
X55970000Y-76430000D01*
X67976000Y-81620000D02*
X67682000Y-81620000D01*
X64000000Y-79500000D02*
X60930000Y-76430000D01*
X71650000Y-81620000D02*
X67976000Y-81620000D01*
X67682000Y-81876000D02*
X67682000Y-81620000D01*
X67720000Y-81876000D02*
X67976000Y-81620000D01*
X67476000Y-81670000D02*
X67682000Y-81876000D01*
X67682000Y-87928000D02*
X67682000Y-81876000D01*
X67476000Y-81620000D02*
X67476000Y-81670000D01*
X66120000Y-81620000D02*
X64000000Y-79500000D01*
%TD*%
%TA.AperFunction,Conductor*%
%TO.N,GND*%
G36*
X41955441Y-69653670D02*
G01*
X42004627Y-69683862D01*
X44058181Y-71737416D01*
X44091666Y-71798739D01*
X44094500Y-71825097D01*
X44094500Y-91288523D01*
X44074815Y-91355562D01*
X44069767Y-91362833D01*
X44036206Y-91407665D01*
X44036202Y-91407671D01*
X43985908Y-91542517D01*
X43984556Y-91555097D01*
X43979501Y-91602123D01*
X43979500Y-91602135D01*
X43979500Y-93397870D01*
X43979501Y-93397876D01*
X43985908Y-93457483D01*
X44036202Y-93592328D01*
X44036206Y-93592335D01*
X44122452Y-93707544D01*
X44122455Y-93707547D01*
X44237664Y-93793793D01*
X44237671Y-93793797D01*
X44369081Y-93842810D01*
X44425015Y-93884681D01*
X44449432Y-93950145D01*
X44434580Y-94018418D01*
X44413430Y-94046673D01*
X44291503Y-94168600D01*
X44208864Y-94286623D01*
X44154287Y-94330248D01*
X44107289Y-94339500D01*
X41472711Y-94339500D01*
X41405672Y-94319815D01*
X41371136Y-94286623D01*
X41288496Y-94168600D01*
X41234739Y-94114843D01*
X41166567Y-94046671D01*
X41133084Y-93985351D01*
X41138068Y-93915659D01*
X41179939Y-93859725D01*
X41210915Y-93842810D01*
X41342331Y-93793796D01*
X41457546Y-93707546D01*
X41543796Y-93592331D01*
X41594091Y-93457483D01*
X41600500Y-93397873D01*
X41600499Y-91602128D01*
X41594091Y-91542517D01*
X41563830Y-91461384D01*
X41543797Y-91407671D01*
X41543793Y-91407664D01*
X41457547Y-91292455D01*
X41457544Y-91292452D01*
X41342335Y-91206206D01*
X41342328Y-91206202D01*
X41207482Y-91155908D01*
X41207483Y-91155908D01*
X41147883Y-91149501D01*
X41147881Y-91149500D01*
X41147873Y-91149500D01*
X41147865Y-91149500D01*
X40974500Y-91149500D01*
X40907461Y-91129815D01*
X40861706Y-91077011D01*
X40850500Y-91025500D01*
X40850500Y-88228097D01*
X40870185Y-88161058D01*
X40886819Y-88140416D01*
X41174885Y-87852351D01*
X41492520Y-87534716D01*
X41492520Y-87534715D01*
X41502729Y-87524507D01*
X41502731Y-87524503D01*
X41619522Y-87407714D01*
X41624496Y-87402739D01*
X41624508Y-87402730D01*
X41624507Y-87402729D01*
X41658630Y-87368606D01*
X41746520Y-87280716D01*
X41746520Y-87280714D01*
X41756724Y-87270511D01*
X41756728Y-87270506D01*
X43148506Y-85878728D01*
X43148511Y-85878724D01*
X43158714Y-85868520D01*
X43158716Y-85868520D01*
X43270520Y-85756716D01*
X43349577Y-85619784D01*
X43390500Y-85467057D01*
X43390500Y-73499059D01*
X43390501Y-73499046D01*
X43390501Y-73330945D01*
X43390501Y-73330943D01*
X43349577Y-73178215D01*
X43306440Y-73103500D01*
X43270520Y-73041284D01*
X43158716Y-72929480D01*
X43158715Y-72929479D01*
X43154385Y-72925149D01*
X43154374Y-72925139D01*
X42104204Y-71874969D01*
X42070719Y-71813646D01*
X42071680Y-71756847D01*
X42116131Y-71581317D01*
X42116133Y-71581308D01*
X42116134Y-71581305D01*
X42127350Y-71445945D01*
X42135300Y-71350006D01*
X42135300Y-71349993D01*
X42116135Y-71118702D01*
X42116133Y-71118691D01*
X42059157Y-70893699D01*
X41965924Y-70681151D01*
X41838983Y-70486852D01*
X41838980Y-70486849D01*
X41838979Y-70486847D01*
X41681784Y-70316087D01*
X41504180Y-70177853D01*
X41463368Y-70121143D01*
X41459693Y-70051370D01*
X41494324Y-69990687D01*
X41504181Y-69982146D01*
X41681784Y-69843913D01*
X41825717Y-69687559D01*
X41885603Y-69651570D01*
X41955441Y-69653670D01*
G37*
%TD.AperFunction*%
%TA.AperFunction,Conductor*%
G36*
X41955441Y-67113670D02*
G01*
X42004627Y-67143862D01*
X45963181Y-71102416D01*
X45996666Y-71163739D01*
X45999500Y-71190097D01*
X45999500Y-88603330D01*
X45999499Y-88603348D01*
X45999499Y-88769054D01*
X45999498Y-88769054D01*
X46040424Y-88921789D01*
X46040425Y-88921790D01*
X46060340Y-88956283D01*
X46060341Y-88956284D01*
X46119477Y-89058712D01*
X46119481Y-89058717D01*
X46238349Y-89177585D01*
X46238355Y-89177590D01*
X49023181Y-91962416D01*
X49056666Y-92023739D01*
X49059500Y-92050097D01*
X49059500Y-93397870D01*
X49059501Y-93397876D01*
X49065908Y-93457483D01*
X49116202Y-93592328D01*
X49116206Y-93592335D01*
X49202452Y-93707544D01*
X49202455Y-93707547D01*
X49317664Y-93793793D01*
X49317671Y-93793797D01*
X49449081Y-93842810D01*
X49505015Y-93884681D01*
X49529432Y-93950145D01*
X49514580Y-94018418D01*
X49493430Y-94046673D01*
X49371503Y-94168600D01*
X49288864Y-94286623D01*
X49234287Y-94330248D01*
X49187289Y-94339500D01*
X46552711Y-94339500D01*
X46485672Y-94319815D01*
X46451136Y-94286623D01*
X46368496Y-94168600D01*
X46314739Y-94114843D01*
X46246567Y-94046671D01*
X46213084Y-93985351D01*
X46218068Y-93915659D01*
X46259939Y-93859725D01*
X46290915Y-93842810D01*
X46422331Y-93793796D01*
X46537546Y-93707546D01*
X46623796Y-93592331D01*
X46674091Y-93457483D01*
X46680500Y-93397873D01*
X46680499Y-91602128D01*
X46674091Y-91542517D01*
X46643830Y-91461384D01*
X46623797Y-91407671D01*
X46623793Y-91407664D01*
X46537547Y-91292455D01*
X46537544Y-91292452D01*
X46422335Y-91206206D01*
X46422328Y-91206202D01*
X46287482Y-91155908D01*
X46287483Y-91155908D01*
X46227883Y-91149501D01*
X46227881Y-91149500D01*
X46227873Y-91149500D01*
X46227865Y-91149500D01*
X45419500Y-91149500D01*
X45352461Y-91129815D01*
X45306706Y-91077011D01*
X45295500Y-91025500D01*
X45295500Y-71614059D01*
X45295501Y-71614046D01*
X45295501Y-71445945D01*
X45295501Y-71445943D01*
X45254577Y-71293215D01*
X45217535Y-71229057D01*
X45175520Y-71156284D01*
X45063716Y-71044480D01*
X45063715Y-71044479D01*
X45059385Y-71040149D01*
X45059374Y-71040139D01*
X42467590Y-68448355D01*
X42467588Y-68448352D01*
X42348717Y-68329481D01*
X42348716Y-68329480D01*
X42238568Y-68265886D01*
X42238566Y-68265885D01*
X42211785Y-68250423D01*
X42211784Y-68250422D01*
X42211783Y-68250422D01*
X42147919Y-68233310D01*
X42059057Y-68209499D01*
X42059055Y-68209499D01*
X42051206Y-68207396D01*
X42051703Y-68205540D01*
X41997428Y-68181528D01*
X41970029Y-68144761D01*
X41968366Y-68145662D01*
X41965927Y-68141155D01*
X41838983Y-67946852D01*
X41838980Y-67946849D01*
X41838979Y-67946847D01*
X41681784Y-67776087D01*
X41504180Y-67637853D01*
X41463368Y-67581143D01*
X41459693Y-67511370D01*
X41494324Y-67450687D01*
X41504181Y-67442146D01*
X41504586Y-67441831D01*
X41681784Y-67303913D01*
X41825717Y-67147559D01*
X41885603Y-67111570D01*
X41955441Y-67113670D01*
G37*
%TD.AperFunction*%
%TA.AperFunction,Conductor*%
G36*
X42361942Y-64350185D02*
G01*
X42382584Y-64366819D01*
X47868181Y-69852416D01*
X47901666Y-69913739D01*
X47904500Y-69940097D01*
X47904500Y-85428330D01*
X47904499Y-85428348D01*
X47904499Y-85594054D01*
X47904498Y-85594054D01*
X47945423Y-85746787D01*
X47951156Y-85756716D01*
X47951158Y-85756718D01*
X48024477Y-85883712D01*
X48024481Y-85883717D01*
X48143349Y-86002585D01*
X48143355Y-86002590D01*
X54103181Y-91962417D01*
X54136666Y-92023740D01*
X54139500Y-92050098D01*
X54139500Y-93397870D01*
X54139501Y-93397876D01*
X54145908Y-93457483D01*
X54196202Y-93592328D01*
X54196206Y-93592335D01*
X54282452Y-93707544D01*
X54282455Y-93707547D01*
X54397664Y-93793793D01*
X54397671Y-93793797D01*
X54529081Y-93842810D01*
X54585015Y-93884681D01*
X54609432Y-93950145D01*
X54594580Y-94018418D01*
X54573430Y-94046673D01*
X54451503Y-94168600D01*
X54368864Y-94286623D01*
X54314287Y-94330248D01*
X54267289Y-94339500D01*
X51632711Y-94339500D01*
X51565672Y-94319815D01*
X51531136Y-94286623D01*
X51448496Y-94168600D01*
X51394739Y-94114843D01*
X51326567Y-94046671D01*
X51293084Y-93985351D01*
X51298068Y-93915659D01*
X51339939Y-93859725D01*
X51370915Y-93842810D01*
X51502331Y-93793796D01*
X51617546Y-93707546D01*
X51703796Y-93592331D01*
X51754091Y-93457483D01*
X51760500Y-93397873D01*
X51760499Y-91602128D01*
X51754091Y-91542517D01*
X51723830Y-91461384D01*
X51703797Y-91407671D01*
X51703793Y-91407664D01*
X51617547Y-91292455D01*
X51617544Y-91292452D01*
X51502335Y-91206206D01*
X51502328Y-91206202D01*
X51367482Y-91155908D01*
X51367483Y-91155908D01*
X51307883Y-91149501D01*
X51307881Y-91149500D01*
X51307873Y-91149500D01*
X51307865Y-91149500D01*
X49960098Y-91149500D01*
X49893059Y-91129815D01*
X49872417Y-91113181D01*
X47236819Y-88477583D01*
X47203334Y-88416260D01*
X47200500Y-88389902D01*
X47200500Y-70979060D01*
X47200501Y-70979047D01*
X47200501Y-70810944D01*
X47199761Y-70808181D01*
X47159577Y-70658216D01*
X47096811Y-70549501D01*
X47080524Y-70521290D01*
X47080518Y-70521282D01*
X42467590Y-65908355D01*
X42467588Y-65908352D01*
X42348717Y-65789481D01*
X42348716Y-65789480D01*
X42261904Y-65739360D01*
X42261904Y-65739359D01*
X42261900Y-65739358D01*
X42211785Y-65710423D01*
X42059057Y-65669499D01*
X42059055Y-65669499D01*
X42051206Y-65667396D01*
X42051703Y-65665540D01*
X41997428Y-65641528D01*
X41970029Y-65604761D01*
X41968366Y-65605662D01*
X41965927Y-65601155D01*
X41838983Y-65406852D01*
X41838980Y-65406849D01*
X41838979Y-65406847D01*
X41681784Y-65236087D01*
X41504180Y-65097853D01*
X41463368Y-65041143D01*
X41459693Y-64971370D01*
X41494324Y-64910687D01*
X41504181Y-64902146D01*
X41532263Y-64880289D01*
X41681784Y-64763913D01*
X41838979Y-64593153D01*
X41965924Y-64398849D01*
X41965926Y-64398843D01*
X41967747Y-64395481D01*
X42016967Y-64345891D01*
X42076801Y-64330500D01*
X42294903Y-64330500D01*
X42361942Y-64350185D01*
G37*
%TD.AperFunction*%
%TA.AperFunction,Conductor*%
G36*
X55436009Y-62220185D02*
G01*
X55481764Y-62272989D01*
X55491708Y-62342147D01*
X55462683Y-62405703D01*
X55409234Y-62441781D01*
X55405501Y-62443062D01*
X55405495Y-62443064D01*
X55201371Y-62553531D01*
X55201365Y-62553535D01*
X55018222Y-62696081D01*
X55018219Y-62696084D01*
X54861016Y-62866852D01*
X54734075Y-63061151D01*
X54640842Y-63273699D01*
X54583866Y-63498691D01*
X54583864Y-63498702D01*
X54564700Y-63729993D01*
X54564700Y-63730006D01*
X54583864Y-63961297D01*
X54583866Y-63961308D01*
X54640842Y-64186300D01*
X54734075Y-64398848D01*
X54861016Y-64593147D01*
X54861019Y-64593151D01*
X54861021Y-64593153D01*
X55018216Y-64763913D01*
X55150672Y-64867007D01*
X55196225Y-64902462D01*
X55237038Y-64959173D01*
X55240713Y-65028946D01*
X55206082Y-65089629D01*
X55196225Y-65098170D01*
X55171201Y-65117646D01*
X55171200Y-65117647D01*
X55923554Y-65870000D01*
X55917339Y-65870000D01*
X55815606Y-65897259D01*
X55724394Y-65949920D01*
X55649920Y-66024394D01*
X55597259Y-66115606D01*
X55570000Y-66217339D01*
X55570000Y-66223554D01*
X54818811Y-65472365D01*
X54734516Y-65601390D01*
X54641317Y-65813864D01*
X54584361Y-66038781D01*
X54565202Y-66269994D01*
X54565202Y-66270005D01*
X54584361Y-66501218D01*
X54641317Y-66726135D01*
X54734515Y-66938606D01*
X54818812Y-67067633D01*
X55570000Y-66316445D01*
X55570000Y-66322661D01*
X55597259Y-66424394D01*
X55649920Y-66515606D01*
X55724394Y-66590080D01*
X55815606Y-66642741D01*
X55917339Y-66670000D01*
X55923553Y-66670000D01*
X55171201Y-67422351D01*
X55196226Y-67441829D01*
X55237038Y-67498539D01*
X55240713Y-67568312D01*
X55206081Y-67628995D01*
X55196226Y-67637535D01*
X55018218Y-67776085D01*
X54861016Y-67946852D01*
X54791458Y-68053321D01*
X54738312Y-68098678D01*
X54687649Y-68109500D01*
X53076003Y-68109500D01*
X52967590Y-68131065D01*
X52967589Y-68131065D01*
X52951379Y-68134289D01*
X52940669Y-68136420D01*
X52929255Y-68141149D01*
X52929250Y-68141151D01*
X52813192Y-68189223D01*
X52782844Y-68209501D01*
X52698459Y-68265885D01*
X52698453Y-68265889D01*
X50500888Y-70463453D01*
X50500885Y-70463456D01*
X50443393Y-70549501D01*
X50424230Y-70578180D01*
X50424223Y-70578192D01*
X50371420Y-70705671D01*
X50371418Y-70705677D01*
X50344500Y-70841004D01*
X50344500Y-70841007D01*
X50344500Y-83541006D01*
X50344500Y-83678994D01*
X50344500Y-83678996D01*
X50344499Y-83678996D01*
X50371418Y-83814322D01*
X50371421Y-83814332D01*
X50424222Y-83941807D01*
X50500887Y-84056545D01*
X50500888Y-84056546D01*
X57293181Y-90848838D01*
X57326666Y-90910161D01*
X57329500Y-90936519D01*
X57329500Y-94063481D01*
X57309815Y-94130520D01*
X57293181Y-94151162D01*
X57141162Y-94303181D01*
X57079839Y-94336666D01*
X57053481Y-94339500D01*
X56712711Y-94339500D01*
X56645672Y-94319815D01*
X56611136Y-94286623D01*
X56528496Y-94168600D01*
X56474739Y-94114843D01*
X56406567Y-94046671D01*
X56373084Y-93985351D01*
X56378068Y-93915659D01*
X56419939Y-93859725D01*
X56450915Y-93842810D01*
X56582331Y-93793796D01*
X56697546Y-93707546D01*
X56783796Y-93592331D01*
X56834091Y-93457483D01*
X56840500Y-93397873D01*
X56840499Y-91602128D01*
X56834091Y-91542517D01*
X56803830Y-91461384D01*
X56783797Y-91407671D01*
X56783793Y-91407664D01*
X56697547Y-91292455D01*
X56697544Y-91292452D01*
X56582335Y-91206206D01*
X56582328Y-91206202D01*
X56447482Y-91155908D01*
X56447483Y-91155908D01*
X56387883Y-91149501D01*
X56387881Y-91149500D01*
X56387873Y-91149500D01*
X56387865Y-91149500D01*
X55040098Y-91149500D01*
X54973059Y-91129815D01*
X54952417Y-91113181D01*
X49141819Y-85302583D01*
X49108334Y-85241260D01*
X49105500Y-85214902D01*
X49105500Y-69560945D01*
X49105500Y-69560943D01*
X49083503Y-69478849D01*
X49064577Y-69408215D01*
X49033341Y-69354114D01*
X48985520Y-69271284D01*
X48873716Y-69159480D01*
X48873715Y-69159479D01*
X48869385Y-69155149D01*
X48869374Y-69155139D01*
X43082590Y-63368355D01*
X43082588Y-63368352D01*
X42963717Y-63249481D01*
X42963716Y-63249480D01*
X42876904Y-63199360D01*
X42876904Y-63199359D01*
X42876900Y-63199358D01*
X42826785Y-63170423D01*
X42674057Y-63129499D01*
X42515943Y-63129499D01*
X42508347Y-63129499D01*
X42508331Y-63129500D01*
X42076801Y-63129500D01*
X42009762Y-63109815D01*
X41967747Y-63064519D01*
X41965924Y-63061151D01*
X41838983Y-62866852D01*
X41838980Y-62866849D01*
X41838979Y-62866847D01*
X41681784Y-62696087D01*
X41681779Y-62696083D01*
X41681777Y-62696081D01*
X41498634Y-62553535D01*
X41498628Y-62553531D01*
X41294504Y-62443064D01*
X41294498Y-62443062D01*
X41290766Y-62441781D01*
X41233751Y-62401395D01*
X41207621Y-62336595D01*
X41220673Y-62267955D01*
X41268762Y-62217268D01*
X41331030Y-62200500D01*
X55368970Y-62200500D01*
X55436009Y-62220185D01*
G37*
%TD.AperFunction*%
%TA.AperFunction,Conductor*%
G36*
X54754688Y-69530185D02*
G01*
X54791458Y-69566679D01*
X54861016Y-69673147D01*
X54861019Y-69673151D01*
X54861021Y-69673153D01*
X55018216Y-69843913D01*
X55018219Y-69843915D01*
X55018222Y-69843918D01*
X55195818Y-69982147D01*
X55236631Y-70038857D01*
X55240306Y-70108630D01*
X55205674Y-70169313D01*
X55195818Y-70177853D01*
X55018222Y-70316081D01*
X55018219Y-70316084D01*
X54861016Y-70486852D01*
X54734075Y-70681151D01*
X54640842Y-70893699D01*
X54583866Y-71118691D01*
X54583864Y-71118702D01*
X54564700Y-71349993D01*
X54564700Y-71350006D01*
X54583864Y-71581297D01*
X54583866Y-71581309D01*
X54628319Y-71756848D01*
X54625694Y-71826668D01*
X54595794Y-71874969D01*
X53681286Y-72789478D01*
X53569481Y-72901282D01*
X53569479Y-72901285D01*
X53519361Y-72988094D01*
X53519359Y-72988096D01*
X53490425Y-73038209D01*
X53490424Y-73038210D01*
X53489600Y-73041286D01*
X53449499Y-73190943D01*
X53449499Y-73190945D01*
X53449499Y-73359046D01*
X53449500Y-73359059D01*
X53449500Y-73871928D01*
X53429815Y-73938967D01*
X53377011Y-73984722D01*
X53307853Y-73994666D01*
X53284546Y-73988970D01*
X53129257Y-73934632D01*
X53129249Y-73934630D01*
X52950004Y-73914435D01*
X52949996Y-73914435D01*
X52770750Y-73934630D01*
X52770745Y-73934631D01*
X52600476Y-73994211D01*
X52447737Y-74090184D01*
X52320184Y-74217737D01*
X52224211Y-74370476D01*
X52164631Y-74540745D01*
X52164630Y-74540750D01*
X52144435Y-74719996D01*
X52144435Y-74720003D01*
X52164630Y-74899249D01*
X52164631Y-74899254D01*
X52224211Y-75069523D01*
X52320185Y-75222263D01*
X52322445Y-75225097D01*
X52323334Y-75227275D01*
X52323889Y-75228158D01*
X52323734Y-75228255D01*
X52348855Y-75289783D01*
X52349500Y-75302412D01*
X52349500Y-82888330D01*
X52349499Y-82888348D01*
X52349499Y-83054054D01*
X52349498Y-83054054D01*
X52390423Y-83206785D01*
X52419358Y-83256900D01*
X52419359Y-83256904D01*
X52419360Y-83256904D01*
X52469479Y-83343714D01*
X52469481Y-83343717D01*
X52588349Y-83462585D01*
X52588355Y-83462590D01*
X58663181Y-89537416D01*
X58696666Y-89598739D01*
X58699500Y-89625097D01*
X58699500Y-89974480D01*
X58679815Y-90041519D01*
X58627011Y-90087274D01*
X58557853Y-90097218D01*
X58494297Y-90068193D01*
X58487819Y-90062161D01*
X51781819Y-83356161D01*
X51748334Y-83294838D01*
X51745500Y-83268480D01*
X51745500Y-71251518D01*
X51765185Y-71184479D01*
X51781819Y-71163837D01*
X53398837Y-69546819D01*
X53460160Y-69513334D01*
X53486518Y-69510500D01*
X54687649Y-69510500D01*
X54754688Y-69530185D01*
G37*
%TD.AperFunction*%
%TA.AperFunction,Conductor*%
G36*
X53755703Y-81455384D02*
G01*
X53762181Y-81461416D01*
X60313181Y-88012416D01*
X60346666Y-88073739D01*
X60349500Y-88100097D01*
X60349500Y-88670908D01*
X60329815Y-88737947D01*
X60277914Y-88783286D01*
X60272173Y-88785963D01*
X60272169Y-88785965D01*
X60078597Y-88921505D01*
X59991162Y-89008941D01*
X59929839Y-89042426D01*
X59860147Y-89037442D01*
X59804214Y-88995570D01*
X59796102Y-88983273D01*
X59780520Y-88956284D01*
X59668716Y-88844480D01*
X59668715Y-88844479D01*
X59664385Y-88840149D01*
X59664374Y-88840139D01*
X53586819Y-82762584D01*
X53553334Y-82701261D01*
X53550500Y-82674903D01*
X53550500Y-81549097D01*
X53570185Y-81482058D01*
X53622989Y-81436303D01*
X53692147Y-81426359D01*
X53755703Y-81455384D01*
G37*
%TD.AperFunction*%
%TA.AperFunction,Conductor*%
G36*
X102754043Y-60500765D02*
G01*
X103002895Y-60517075D01*
X103018953Y-60519190D01*
X103226105Y-60560395D01*
X103259535Y-60567045D01*
X103275202Y-60571243D01*
X103444947Y-60628863D01*
X103507481Y-60650091D01*
X103522458Y-60656294D01*
X103731799Y-60759529D01*
X103742460Y-60764787D01*
X103756508Y-60772897D01*
X103960464Y-60909177D01*
X103973328Y-60919048D01*
X104157749Y-61080781D01*
X104169218Y-61092250D01*
X104330951Y-61276671D01*
X104340825Y-61289539D01*
X104477102Y-61493492D01*
X104485212Y-61507539D01*
X104593702Y-61727534D01*
X104599909Y-61742520D01*
X104678756Y-61974797D01*
X104682954Y-61990464D01*
X104730807Y-62231035D01*
X104732925Y-62247116D01*
X104748347Y-62482416D01*
X104749235Y-62495956D01*
X104749500Y-62504066D01*
X104749500Y-102495933D01*
X104749235Y-102504043D01*
X104732925Y-102752883D01*
X104730807Y-102768964D01*
X104682954Y-103009535D01*
X104678756Y-103025202D01*
X104599909Y-103257479D01*
X104593702Y-103272465D01*
X104485212Y-103492460D01*
X104477102Y-103506507D01*
X104340825Y-103710460D01*
X104330951Y-103723328D01*
X104169218Y-103907749D01*
X104157749Y-103919218D01*
X103973328Y-104080951D01*
X103960460Y-104090825D01*
X103756507Y-104227102D01*
X103742460Y-104235212D01*
X103522465Y-104343702D01*
X103507479Y-104349909D01*
X103275202Y-104428756D01*
X103259535Y-104432954D01*
X103018964Y-104480807D01*
X103002883Y-104482925D01*
X102754043Y-104499235D01*
X102745933Y-104499500D01*
X32754067Y-104499500D01*
X32745957Y-104499235D01*
X32497116Y-104482925D01*
X32481035Y-104480807D01*
X32240464Y-104432954D01*
X32224797Y-104428756D01*
X31992520Y-104349909D01*
X31977534Y-104343702D01*
X31757539Y-104235212D01*
X31743492Y-104227102D01*
X31539539Y-104090825D01*
X31526671Y-104080951D01*
X31342250Y-103919218D01*
X31330781Y-103907749D01*
X31169048Y-103723328D01*
X31159174Y-103710460D01*
X31127613Y-103663226D01*
X31022897Y-103506507D01*
X31014787Y-103492460D01*
X30966363Y-103394266D01*
X30906294Y-103272458D01*
X30900090Y-103257479D01*
X30821243Y-103025202D01*
X30817045Y-103009535D01*
X30809186Y-102970026D01*
X30769190Y-102768953D01*
X30767075Y-102752895D01*
X30750765Y-102504043D01*
X30750500Y-102495933D01*
X30750500Y-102121288D01*
X31399500Y-102121288D01*
X31431161Y-102361785D01*
X31493947Y-102596104D01*
X31519275Y-102657250D01*
X31586776Y-102820212D01*
X31708064Y-103030289D01*
X31708066Y-103030292D01*
X31708067Y-103030293D01*
X31855733Y-103222736D01*
X31855739Y-103222743D01*
X32027256Y-103394260D01*
X32027262Y-103394265D01*
X32219711Y-103541936D01*
X32429788Y-103663224D01*
X32653900Y-103756054D01*
X32888211Y-103818838D01*
X33068586Y-103842584D01*
X33128711Y-103850500D01*
X33128712Y-103850500D01*
X33371289Y-103850500D01*
X33419388Y-103844167D01*
X33611789Y-103818838D01*
X33846100Y-103756054D01*
X34070212Y-103663224D01*
X34280289Y-103541936D01*
X34472738Y-103394265D01*
X34644265Y-103222738D01*
X34791936Y-103030289D01*
X34913224Y-102820212D01*
X35006054Y-102596100D01*
X35068838Y-102361789D01*
X35100500Y-102121288D01*
X100399500Y-102121288D01*
X100431161Y-102361785D01*
X100493947Y-102596104D01*
X100519275Y-102657250D01*
X100586776Y-102820212D01*
X100708064Y-103030289D01*
X100708066Y-103030292D01*
X100708067Y-103030293D01*
X100855733Y-103222736D01*
X100855739Y-103222743D01*
X101027256Y-103394260D01*
X101027262Y-103394265D01*
X101219711Y-103541936D01*
X101429788Y-103663224D01*
X101653900Y-103756054D01*
X101888211Y-103818838D01*
X102068586Y-103842584D01*
X102128711Y-103850500D01*
X102128712Y-103850500D01*
X102371289Y-103850500D01*
X102419388Y-103844167D01*
X102611789Y-103818838D01*
X102846100Y-103756054D01*
X103070212Y-103663224D01*
X103280289Y-103541936D01*
X103472738Y-103394265D01*
X103644265Y-103222738D01*
X103791936Y-103030289D01*
X103913224Y-102820212D01*
X104006054Y-102596100D01*
X104068838Y-102361789D01*
X104100500Y-102121288D01*
X104100500Y-101878712D01*
X104068838Y-101638211D01*
X104006054Y-101403900D01*
X103913224Y-101179788D01*
X103791936Y-100969711D01*
X103644265Y-100777262D01*
X103644260Y-100777256D01*
X103472743Y-100605739D01*
X103472736Y-100605733D01*
X103280293Y-100458067D01*
X103280292Y-100458066D01*
X103280289Y-100458064D01*
X103070212Y-100336776D01*
X103070205Y-100336773D01*
X102846104Y-100243947D01*
X102611785Y-100181161D01*
X102371289Y-100149500D01*
X102371288Y-100149500D01*
X102128712Y-100149500D01*
X102128711Y-100149500D01*
X101888214Y-100181161D01*
X101653895Y-100243947D01*
X101429794Y-100336773D01*
X101429785Y-100336777D01*
X101219706Y-100458067D01*
X101027263Y-100605733D01*
X101027256Y-100605739D01*
X100855739Y-100777256D01*
X100855733Y-100777263D01*
X100708067Y-100969706D01*
X100586777Y-101179785D01*
X100586773Y-101179794D01*
X100493947Y-101403895D01*
X100431161Y-101638214D01*
X100399500Y-101878711D01*
X100399500Y-102121288D01*
X35100500Y-102121288D01*
X35100500Y-101878712D01*
X35068838Y-101638211D01*
X35006054Y-101403900D01*
X34913224Y-101179788D01*
X34791936Y-100969711D01*
X34644265Y-100777262D01*
X34644260Y-100777256D01*
X34472743Y-100605739D01*
X34472736Y-100605733D01*
X34280293Y-100458067D01*
X34280292Y-100458066D01*
X34280289Y-100458064D01*
X34070212Y-100336776D01*
X34070205Y-100336773D01*
X33846104Y-100243947D01*
X33611785Y-100181161D01*
X33371289Y-100149500D01*
X33371288Y-100149500D01*
X33128712Y-100149500D01*
X33128711Y-100149500D01*
X32888214Y-100181161D01*
X32653895Y-100243947D01*
X32429794Y-100336773D01*
X32429785Y-100336777D01*
X32219706Y-100458067D01*
X32027263Y-100605733D01*
X32027256Y-100605739D01*
X31855739Y-100777256D01*
X31855733Y-100777263D01*
X31708067Y-100969706D01*
X31586777Y-101179785D01*
X31586773Y-101179794D01*
X31493947Y-101403895D01*
X31431161Y-101638214D01*
X31399500Y-101878711D01*
X31399500Y-102121288D01*
X30750500Y-102121288D01*
X30750500Y-87500002D01*
X36744723Y-87500002D01*
X36763793Y-87717975D01*
X36763793Y-87717979D01*
X36820422Y-87929322D01*
X36820424Y-87929326D01*
X36820425Y-87929330D01*
X36847073Y-87986476D01*
X36912897Y-88127638D01*
X36925737Y-88145975D01*
X37038402Y-88306877D01*
X37193123Y-88461598D01*
X37372361Y-88587102D01*
X37570670Y-88679575D01*
X37782023Y-88736207D01*
X37964926Y-88752208D01*
X37999998Y-88755277D01*
X38000000Y-88755277D01*
X38000002Y-88755277D01*
X38028254Y-88752805D01*
X38217977Y-88736207D01*
X38429330Y-88679575D01*
X38627639Y-88587102D01*
X38806877Y-88461598D01*
X38961598Y-88306877D01*
X39087102Y-88127639D01*
X39179575Y-87929330D01*
X39236207Y-87717977D01*
X39255277Y-87500000D01*
X39255161Y-87498677D01*
X39249265Y-87431282D01*
X39236207Y-87282023D01*
X39179575Y-87070670D01*
X39087102Y-86872362D01*
X39087100Y-86872359D01*
X39087099Y-86872357D01*
X38961599Y-86693124D01*
X38915814Y-86647339D01*
X38806877Y-86538402D01*
X38627639Y-86412898D01*
X38627640Y-86412898D01*
X38627638Y-86412897D01*
X38485132Y-86346446D01*
X38429330Y-86320425D01*
X38429326Y-86320424D01*
X38429322Y-86320422D01*
X38217977Y-86263793D01*
X38000002Y-86244723D01*
X37999998Y-86244723D01*
X37854682Y-86257436D01*
X37782023Y-86263793D01*
X37782020Y-86263793D01*
X37570677Y-86320422D01*
X37570668Y-86320426D01*
X37372361Y-86412898D01*
X37372357Y-86412900D01*
X37193121Y-86538402D01*
X37038402Y-86693121D01*
X36912900Y-86872357D01*
X36912898Y-86872361D01*
X36820426Y-87070668D01*
X36820422Y-87070677D01*
X36763793Y-87282020D01*
X36763793Y-87282024D01*
X36744723Y-87499997D01*
X36744723Y-87500002D01*
X30750500Y-87500002D01*
X30750500Y-74000002D01*
X34494723Y-74000002D01*
X34513793Y-74217975D01*
X34513793Y-74217979D01*
X34570422Y-74429322D01*
X34570424Y-74429326D01*
X34570425Y-74429330D01*
X34598950Y-74490501D01*
X34662897Y-74627638D01*
X34662898Y-74627639D01*
X34788402Y-74806877D01*
X34943123Y-74961598D01*
X35122361Y-75087102D01*
X35320670Y-75179575D01*
X35532023Y-75236207D01*
X35714926Y-75252208D01*
X35749998Y-75255277D01*
X35750000Y-75255277D01*
X35750002Y-75255277D01*
X35778254Y-75252805D01*
X35967977Y-75236207D01*
X36179330Y-75179575D01*
X36377639Y-75087102D01*
X36556877Y-74961598D01*
X36711598Y-74806877D01*
X36819081Y-74653374D01*
X36873657Y-74609751D01*
X36920655Y-74600500D01*
X38343331Y-74600500D01*
X38343347Y-74600501D01*
X38350943Y-74600501D01*
X38509054Y-74600501D01*
X38509057Y-74600501D01*
X38661785Y-74559577D01*
X38711904Y-74530639D01*
X38798716Y-74480520D01*
X38893721Y-74385514D01*
X38955042Y-74352030D01*
X39024733Y-74357014D01*
X39043650Y-74367486D01*
X39044245Y-74366457D01*
X39188209Y-74449573D01*
X39188216Y-74449577D01*
X39340943Y-74490501D01*
X39383200Y-74490501D01*
X39450239Y-74510186D01*
X39492256Y-74555487D01*
X39494073Y-74558845D01*
X39621016Y-74753147D01*
X39621019Y-74753151D01*
X39621021Y-74753153D01*
X39778216Y-74923913D01*
X39778219Y-74923915D01*
X39778222Y-74923918D01*
X39955818Y-75062147D01*
X39996631Y-75118857D01*
X40000306Y-75188630D01*
X39965674Y-75249313D01*
X39955818Y-75257853D01*
X39778222Y-75396081D01*
X39778219Y-75396084D01*
X39778216Y-75396086D01*
X39778216Y-75396087D01*
X39719267Y-75460122D01*
X39621016Y-75566852D01*
X39494075Y-75761151D01*
X39400842Y-75973699D01*
X39343866Y-76198691D01*
X39343864Y-76198702D01*
X39324700Y-76429993D01*
X39324700Y-76430006D01*
X39343864Y-76661297D01*
X39343866Y-76661308D01*
X39400842Y-76886300D01*
X39494075Y-77098848D01*
X39621016Y-77293147D01*
X39621019Y-77293151D01*
X39621021Y-77293153D01*
X39778216Y-77463913D01*
X39778219Y-77463915D01*
X39778222Y-77463918D01*
X39955818Y-77602147D01*
X39996631Y-77658857D01*
X40000306Y-77728630D01*
X39965674Y-77789313D01*
X39955818Y-77797853D01*
X39778222Y-77936081D01*
X39778219Y-77936084D01*
X39778216Y-77936086D01*
X39778216Y-77936087D01*
X39719339Y-78000045D01*
X39621016Y-78106852D01*
X39494075Y-78301151D01*
X39400842Y-78513699D01*
X39343866Y-78738691D01*
X39343864Y-78738702D01*
X39324700Y-78969993D01*
X39324700Y-78970006D01*
X39343864Y-79201297D01*
X39343866Y-79201308D01*
X39400842Y-79426300D01*
X39494075Y-79638848D01*
X39621016Y-79833147D01*
X39621019Y-79833151D01*
X39621021Y-79833153D01*
X39778216Y-80003913D01*
X39778219Y-80003915D01*
X39778222Y-80003918D01*
X39961365Y-80146464D01*
X39961371Y-80146468D01*
X39961374Y-80146470D01*
X40165497Y-80256936D01*
X40279487Y-80296068D01*
X40385015Y-80332297D01*
X40385017Y-80332297D01*
X40385019Y-80332298D01*
X40613951Y-80370500D01*
X40613952Y-80370500D01*
X40846048Y-80370500D01*
X40846049Y-80370500D01*
X41074981Y-80332298D01*
X41294503Y-80256936D01*
X41498626Y-80146470D01*
X41540456Y-80113913D01*
X41593053Y-80072975D01*
X41681784Y-80003913D01*
X41838979Y-79833153D01*
X41894058Y-79748849D01*
X41961691Y-79645328D01*
X42014837Y-79599971D01*
X42084069Y-79590547D01*
X42147405Y-79620049D01*
X42184736Y-79679109D01*
X42189500Y-79713149D01*
X42189500Y-85087903D01*
X42169815Y-85154942D01*
X42153181Y-85175584D01*
X41226681Y-86102084D01*
X41165358Y-86135569D01*
X41095666Y-86130585D01*
X41051319Y-86102084D01*
X39977117Y-85027882D01*
X39943632Y-84966559D01*
X39945023Y-84908107D01*
X39962207Y-84843977D01*
X39981277Y-84626000D01*
X39980428Y-84616300D01*
X39977569Y-84583618D01*
X39962207Y-84408023D01*
X39905575Y-84196670D01*
X39813102Y-83998362D01*
X39813100Y-83998359D01*
X39813099Y-83998357D01*
X39687599Y-83819124D01*
X39649333Y-83780858D01*
X39532877Y-83664402D01*
X39353639Y-83538898D01*
X39353640Y-83538898D01*
X39353638Y-83538897D01*
X39247557Y-83489431D01*
X39155330Y-83446425D01*
X39155326Y-83446424D01*
X39155322Y-83446422D01*
X38943977Y-83389793D01*
X38726002Y-83370723D01*
X38725998Y-83370723D01*
X38580682Y-83383436D01*
X38508023Y-83389793D01*
X38508020Y-83389793D01*
X38296677Y-83446422D01*
X38296668Y-83446426D01*
X38098361Y-83538898D01*
X38098357Y-83538900D01*
X37919121Y-83664402D01*
X37764402Y-83819121D01*
X37638900Y-83998357D01*
X37638898Y-83998361D01*
X37546426Y-84196668D01*
X37546422Y-84196677D01*
X37489793Y-84408020D01*
X37489793Y-84408024D01*
X37471572Y-84616300D01*
X37470723Y-84626000D01*
X37488469Y-84828848D01*
X37489793Y-84843975D01*
X37489793Y-84843979D01*
X37546422Y-85055322D01*
X37546424Y-85055326D01*
X37546425Y-85055330D01*
X37561614Y-85087903D01*
X37638897Y-85253638D01*
X37638898Y-85253639D01*
X37764402Y-85432877D01*
X37919123Y-85587598D01*
X38098361Y-85713102D01*
X38296670Y-85805575D01*
X38508023Y-85862207D01*
X38678450Y-85877117D01*
X38725998Y-85881277D01*
X38726000Y-85881277D01*
X38726002Y-85881277D01*
X38755182Y-85878724D01*
X38943977Y-85862207D01*
X39008108Y-85845023D01*
X39077957Y-85846686D01*
X39127882Y-85877117D01*
X40202083Y-86951318D01*
X40235568Y-87012641D01*
X40230584Y-87082333D01*
X40202083Y-87126680D01*
X39881286Y-87447478D01*
X39769481Y-87559282D01*
X39769475Y-87559290D01*
X39723168Y-87639498D01*
X39723168Y-87639499D01*
X39690423Y-87696214D01*
X39690423Y-87696215D01*
X39649499Y-87848943D01*
X39649499Y-87848945D01*
X39649499Y-88017046D01*
X39649500Y-88017059D01*
X39649500Y-91025500D01*
X39629815Y-91092539D01*
X39577011Y-91138294D01*
X39525501Y-91149500D01*
X39352130Y-91149500D01*
X39352123Y-91149501D01*
X39292516Y-91155908D01*
X39157671Y-91206202D01*
X39157664Y-91206206D01*
X39042455Y-91292452D01*
X39042452Y-91292455D01*
X38956206Y-91407664D01*
X38956202Y-91407671D01*
X38905908Y-91542517D01*
X38904556Y-91555097D01*
X38899501Y-91602123D01*
X38899500Y-91602135D01*
X38899500Y-93397870D01*
X38899501Y-93397876D01*
X38905908Y-93457483D01*
X38956202Y-93592328D01*
X38956206Y-93592335D01*
X39042452Y-93707544D01*
X39042455Y-93707547D01*
X39157664Y-93793793D01*
X39157671Y-93793797D01*
X39289081Y-93842810D01*
X39345015Y-93884681D01*
X39369432Y-93950145D01*
X39354580Y-94018418D01*
X39333430Y-94046673D01*
X39211503Y-94168600D01*
X39075965Y-94362169D01*
X39075964Y-94362171D01*
X38976098Y-94576335D01*
X38976094Y-94576344D01*
X38914938Y-94804586D01*
X38914936Y-94804596D01*
X38894341Y-95039999D01*
X38894341Y-95040000D01*
X38914936Y-95275403D01*
X38914938Y-95275413D01*
X38976094Y-95503655D01*
X38976096Y-95503659D01*
X38976097Y-95503663D01*
X39055992Y-95674997D01*
X39075965Y-95717830D01*
X39075967Y-95717834D01*
X39184281Y-95872521D01*
X39211501Y-95911396D01*
X39211506Y-95911402D01*
X39378597Y-96078493D01*
X39378603Y-96078498D01*
X39564594Y-96208730D01*
X39608219Y-96263307D01*
X39615413Y-96332805D01*
X39583890Y-96395160D01*
X39564595Y-96411880D01*
X39378922Y-96541890D01*
X39378920Y-96541891D01*
X39211891Y-96708920D01*
X39211886Y-96708926D01*
X39076400Y-96902420D01*
X39076399Y-96902422D01*
X38976570Y-97116507D01*
X38976567Y-97116513D01*
X38919364Y-97329999D01*
X38919364Y-97330000D01*
X39816988Y-97330000D01*
X39784075Y-97387007D01*
X39750000Y-97514174D01*
X39750000Y-97645826D01*
X39784075Y-97772993D01*
X39816988Y-97830000D01*
X38919364Y-97830000D01*
X38976567Y-98043486D01*
X38976570Y-98043492D01*
X39076399Y-98257578D01*
X39211894Y-98451082D01*
X39378917Y-98618105D01*
X39572421Y-98753600D01*
X39786507Y-98853429D01*
X39786516Y-98853433D01*
X40000000Y-98910634D01*
X40000000Y-98013012D01*
X40057007Y-98045925D01*
X40184174Y-98080000D01*
X40315826Y-98080000D01*
X40442993Y-98045925D01*
X40500000Y-98013012D01*
X40500000Y-98910633D01*
X40713483Y-98853433D01*
X40713492Y-98853429D01*
X40927578Y-98753600D01*
X41121082Y-98618105D01*
X41288105Y-98451082D01*
X41423600Y-98257578D01*
X41523429Y-98043492D01*
X41523432Y-98043486D01*
X41580636Y-97830000D01*
X40683012Y-97830000D01*
X40715925Y-97772993D01*
X40750000Y-97645826D01*
X40750000Y-97514174D01*
X40715925Y-97387007D01*
X40683012Y-97330000D01*
X41580636Y-97330000D01*
X41580635Y-97329999D01*
X41523432Y-97116513D01*
X41523429Y-97116507D01*
X41423600Y-96902422D01*
X41423599Y-96902420D01*
X41288113Y-96708926D01*
X41288108Y-96708920D01*
X41121078Y-96541890D01*
X40935405Y-96411879D01*
X40891780Y-96357302D01*
X40884588Y-96287804D01*
X40916110Y-96225449D01*
X40935406Y-96208730D01*
X40954008Y-96195705D01*
X41121401Y-96078495D01*
X41288495Y-95911401D01*
X41371136Y-95793376D01*
X41425713Y-95749752D01*
X41472711Y-95740500D01*
X44107289Y-95740500D01*
X44174328Y-95760185D01*
X44208864Y-95793377D01*
X44291505Y-95911402D01*
X44458597Y-96078493D01*
X44458603Y-96078498D01*
X44644594Y-96208730D01*
X44688219Y-96263307D01*
X44695413Y-96332805D01*
X44663890Y-96395160D01*
X44644595Y-96411880D01*
X44458922Y-96541890D01*
X44458920Y-96541891D01*
X44291891Y-96708920D01*
X44291886Y-96708926D01*
X44156400Y-96902420D01*
X44156399Y-96902422D01*
X44056570Y-97116507D01*
X44056567Y-97116513D01*
X43999364Y-97329999D01*
X43999364Y-97330000D01*
X44896988Y-97330000D01*
X44864075Y-97387007D01*
X44830000Y-97514174D01*
X44830000Y-97645826D01*
X44864075Y-97772993D01*
X44896988Y-97830000D01*
X43999364Y-97830000D01*
X44056567Y-98043486D01*
X44056570Y-98043492D01*
X44156399Y-98257578D01*
X44291894Y-98451082D01*
X44458917Y-98618105D01*
X44652421Y-98753600D01*
X44866507Y-98853429D01*
X44866516Y-98853433D01*
X45080000Y-98910634D01*
X45080000Y-98013012D01*
X45137007Y-98045925D01*
X45264174Y-98080000D01*
X45395826Y-98080000D01*
X45522993Y-98045925D01*
X45580000Y-98013012D01*
X45580000Y-98910633D01*
X45793483Y-98853433D01*
X45793492Y-98853429D01*
X46007578Y-98753600D01*
X46201082Y-98618105D01*
X46368105Y-98451082D01*
X46503600Y-98257578D01*
X46603429Y-98043492D01*
X46603432Y-98043486D01*
X46660636Y-97830000D01*
X45763012Y-97830000D01*
X45795925Y-97772993D01*
X45830000Y-97645826D01*
X45830000Y-97514174D01*
X45795925Y-97387007D01*
X45763012Y-97330000D01*
X46660636Y-97330000D01*
X46660635Y-97329999D01*
X46603432Y-97116513D01*
X46603429Y-97116507D01*
X46503600Y-96902422D01*
X46503599Y-96902420D01*
X46368113Y-96708926D01*
X46368108Y-96708920D01*
X46201078Y-96541890D01*
X46015405Y-96411879D01*
X45971780Y-96357302D01*
X45964588Y-96287804D01*
X45996110Y-96225449D01*
X46015406Y-96208730D01*
X46034008Y-96195705D01*
X46201401Y-96078495D01*
X46368495Y-95911401D01*
X46451136Y-95793376D01*
X46505713Y-95749752D01*
X46552711Y-95740500D01*
X49187289Y-95740500D01*
X49254328Y-95760185D01*
X49288864Y-95793377D01*
X49371505Y-95911402D01*
X49538597Y-96078493D01*
X49538603Y-96078498D01*
X49724594Y-96208730D01*
X49768219Y-96263307D01*
X49775413Y-96332805D01*
X49743890Y-96395160D01*
X49724595Y-96411880D01*
X49538922Y-96541890D01*
X49538920Y-96541891D01*
X49371891Y-96708920D01*
X49371886Y-96708926D01*
X49236400Y-96902420D01*
X49236399Y-96902422D01*
X49136570Y-97116507D01*
X49136567Y-97116513D01*
X49079364Y-97329999D01*
X49079364Y-97330000D01*
X49976988Y-97330000D01*
X49944075Y-97387007D01*
X49910000Y-97514174D01*
X49910000Y-97645826D01*
X49944075Y-97772993D01*
X49976988Y-97830000D01*
X49079364Y-97830000D01*
X49136567Y-98043486D01*
X49136570Y-98043492D01*
X49236399Y-98257578D01*
X49371894Y-98451082D01*
X49538917Y-98618105D01*
X49732421Y-98753600D01*
X49946507Y-98853429D01*
X49946516Y-98853433D01*
X50160000Y-98910634D01*
X50160000Y-98013012D01*
X50217007Y-98045925D01*
X50344174Y-98080000D01*
X50475826Y-98080000D01*
X50602993Y-98045925D01*
X50660000Y-98013012D01*
X50660000Y-98910633D01*
X50873483Y-98853433D01*
X50873492Y-98853429D01*
X51087578Y-98753600D01*
X51281082Y-98618105D01*
X51448105Y-98451082D01*
X51583600Y-98257578D01*
X51683429Y-98043492D01*
X51683432Y-98043486D01*
X51740636Y-97830000D01*
X50843012Y-97830000D01*
X50875925Y-97772993D01*
X50910000Y-97645826D01*
X50910000Y-97514174D01*
X50875925Y-97387007D01*
X50843012Y-97330000D01*
X51740636Y-97330000D01*
X51740635Y-97329999D01*
X51683432Y-97116513D01*
X51683429Y-97116507D01*
X51583600Y-96902422D01*
X51583599Y-96902420D01*
X51448113Y-96708926D01*
X51448108Y-96708920D01*
X51281078Y-96541890D01*
X51095405Y-96411879D01*
X51051780Y-96357302D01*
X51044588Y-96287804D01*
X51076110Y-96225449D01*
X51095406Y-96208730D01*
X51114008Y-96195705D01*
X51281401Y-96078495D01*
X51448495Y-95911401D01*
X51531136Y-95793376D01*
X51585713Y-95749752D01*
X51632711Y-95740500D01*
X54131007Y-95740500D01*
X54267289Y-95740500D01*
X54334328Y-95760185D01*
X54368864Y-95793377D01*
X54451505Y-95911402D01*
X54618597Y-96078493D01*
X54618603Y-96078498D01*
X54804594Y-96208730D01*
X54848219Y-96263307D01*
X54855413Y-96332805D01*
X54823890Y-96395160D01*
X54804595Y-96411880D01*
X54618922Y-96541890D01*
X54618920Y-96541891D01*
X54451891Y-96708920D01*
X54451886Y-96708926D01*
X54316400Y-96902420D01*
X54316399Y-96902422D01*
X54216570Y-97116507D01*
X54216567Y-97116513D01*
X54159364Y-97329999D01*
X54159364Y-97330000D01*
X55056988Y-97330000D01*
X55024075Y-97387007D01*
X54990000Y-97514174D01*
X54990000Y-97645826D01*
X55024075Y-97772993D01*
X55056988Y-97830000D01*
X54159364Y-97830000D01*
X54216567Y-98043486D01*
X54216570Y-98043492D01*
X54316399Y-98257578D01*
X54451894Y-98451082D01*
X54618917Y-98618105D01*
X54812421Y-98753600D01*
X55026507Y-98853429D01*
X55026516Y-98853433D01*
X55240000Y-98910634D01*
X55240000Y-98013012D01*
X55297007Y-98045925D01*
X55424174Y-98080000D01*
X55555826Y-98080000D01*
X55682993Y-98045925D01*
X55740000Y-98013012D01*
X55740000Y-98910633D01*
X55953483Y-98853433D01*
X55953492Y-98853429D01*
X56167578Y-98753600D01*
X56361082Y-98618105D01*
X56528105Y-98451082D01*
X56663600Y-98257578D01*
X56763429Y-98043492D01*
X56763432Y-98043486D01*
X56820636Y-97830000D01*
X55923012Y-97830000D01*
X55955925Y-97772993D01*
X55990000Y-97645826D01*
X55990000Y-97514174D01*
X55955925Y-97387007D01*
X55923012Y-97330000D01*
X56820636Y-97330000D01*
X56820635Y-97329999D01*
X56763432Y-97116513D01*
X56763429Y-97116507D01*
X56663600Y-96902422D01*
X56663599Y-96902420D01*
X56528113Y-96708926D01*
X56528108Y-96708920D01*
X56361078Y-96541890D01*
X56175405Y-96411879D01*
X56131780Y-96357302D01*
X56124588Y-96287804D01*
X56156110Y-96225449D01*
X56175406Y-96208730D01*
X56194008Y-96195705D01*
X56361401Y-96078495D01*
X56528495Y-95911401D01*
X56611136Y-95793376D01*
X56665713Y-95749752D01*
X56712711Y-95740500D01*
X57326006Y-95740500D01*
X57326007Y-95740500D01*
X57961007Y-95740500D01*
X58596006Y-95740500D01*
X58596007Y-95740500D01*
X59727289Y-95740500D01*
X59794328Y-95760185D01*
X59828864Y-95793377D01*
X59911503Y-95911399D01*
X59911504Y-95911400D01*
X59911505Y-95911401D01*
X60033819Y-96033715D01*
X60067303Y-96095036D01*
X60062319Y-96164728D01*
X60020448Y-96220662D01*
X59989471Y-96237577D01*
X59857912Y-96286646D01*
X59857906Y-96286649D01*
X59742812Y-96372809D01*
X59742809Y-96372812D01*
X59656649Y-96487906D01*
X59656645Y-96487913D01*
X59606403Y-96622620D01*
X59606401Y-96622627D01*
X59600000Y-96682155D01*
X59600000Y-97330000D01*
X60516988Y-97330000D01*
X60484075Y-97387007D01*
X60450000Y-97514174D01*
X60450000Y-97645826D01*
X60484075Y-97772993D01*
X60516988Y-97830000D01*
X59600000Y-97830000D01*
X59600000Y-98477844D01*
X59606401Y-98537372D01*
X59606403Y-98537379D01*
X59656645Y-98672086D01*
X59656649Y-98672093D01*
X59742809Y-98787187D01*
X59742812Y-98787190D01*
X59857906Y-98873350D01*
X59857913Y-98873354D01*
X59992620Y-98923596D01*
X59992627Y-98923598D01*
X60052155Y-98929999D01*
X60052172Y-98930000D01*
X60700000Y-98930000D01*
X60700000Y-98013012D01*
X60757007Y-98045925D01*
X60884174Y-98080000D01*
X61015826Y-98080000D01*
X61142993Y-98045925D01*
X61200000Y-98013012D01*
X61200000Y-98930000D01*
X61847828Y-98930000D01*
X61847844Y-98929999D01*
X61907372Y-98923598D01*
X61907379Y-98923596D01*
X62042086Y-98873354D01*
X62042093Y-98873350D01*
X62157187Y-98787190D01*
X62157190Y-98787187D01*
X62243350Y-98672093D01*
X62243354Y-98672086D01*
X62293596Y-98537379D01*
X62293598Y-98537372D01*
X62299999Y-98477844D01*
X62300000Y-98477827D01*
X62300000Y-97830000D01*
X61383012Y-97830000D01*
X61415925Y-97772993D01*
X61450000Y-97645826D01*
X61450000Y-97514174D01*
X61415925Y-97387007D01*
X61383012Y-97330000D01*
X62300000Y-97330000D01*
X62300000Y-96682172D01*
X62299999Y-96682155D01*
X62293598Y-96622627D01*
X62293596Y-96622620D01*
X62243354Y-96487913D01*
X62243350Y-96487906D01*
X62157190Y-96372812D01*
X62157187Y-96372809D01*
X62042093Y-96286649D01*
X62042088Y-96286646D01*
X61910528Y-96237577D01*
X61854595Y-96195705D01*
X61830178Y-96130241D01*
X61845030Y-96061968D01*
X61866175Y-96033720D01*
X61988495Y-95911401D01*
X62124035Y-95717830D01*
X62223903Y-95503663D01*
X62285063Y-95275408D01*
X62305659Y-95040000D01*
X62285063Y-94804592D01*
X62223903Y-94576337D01*
X62124035Y-94362171D01*
X62106177Y-94336666D01*
X61988494Y-94168597D01*
X61821402Y-94001506D01*
X61821396Y-94001501D01*
X61635842Y-93871575D01*
X61592217Y-93816998D01*
X61585023Y-93747500D01*
X61616546Y-93685145D01*
X61635842Y-93668425D01*
X61658026Y-93652891D01*
X61821401Y-93538495D01*
X61988495Y-93371401D01*
X62124035Y-93177830D01*
X62223903Y-92963663D01*
X62285063Y-92735408D01*
X62305659Y-92500000D01*
X62285063Y-92264592D01*
X62223903Y-92036337D01*
X62124035Y-91822171D01*
X61988495Y-91628599D01*
X61988494Y-91628597D01*
X61821402Y-91461506D01*
X61821396Y-91461501D01*
X61635842Y-91331575D01*
X61592217Y-91276998D01*
X61585023Y-91207500D01*
X61616546Y-91145145D01*
X61635842Y-91128425D01*
X61687092Y-91092539D01*
X61821401Y-90998495D01*
X61988495Y-90831401D01*
X62124035Y-90637830D01*
X62223903Y-90423663D01*
X62285063Y-90195408D01*
X62305659Y-89960000D01*
X62285063Y-89724592D01*
X62223903Y-89496337D01*
X62124035Y-89282171D01*
X62050804Y-89177585D01*
X61988494Y-89088597D01*
X61821402Y-88921506D01*
X61821395Y-88921501D01*
X61627831Y-88785965D01*
X61627826Y-88785962D01*
X61622091Y-88783288D01*
X61569653Y-88737113D01*
X61550500Y-88670908D01*
X61550500Y-87889060D01*
X61550501Y-87889047D01*
X61550501Y-87720944D01*
X61549706Y-87717977D01*
X61509577Y-87568216D01*
X61469424Y-87498668D01*
X61430524Y-87431290D01*
X61430518Y-87431282D01*
X54686819Y-80687583D01*
X54653334Y-80626260D01*
X54650500Y-80599902D01*
X54650500Y-79922250D01*
X54670185Y-79855211D01*
X54722989Y-79809456D01*
X54792147Y-79799512D01*
X54855703Y-79828537D01*
X54865718Y-79838255D01*
X55018216Y-80003913D01*
X55018219Y-80003915D01*
X55018222Y-80003918D01*
X55201365Y-80146464D01*
X55201371Y-80146468D01*
X55201374Y-80146470D01*
X55405497Y-80256936D01*
X55519487Y-80296068D01*
X55625015Y-80332297D01*
X55625017Y-80332297D01*
X55625019Y-80332298D01*
X55853951Y-80370500D01*
X55853952Y-80370500D01*
X56086048Y-80370500D01*
X56086049Y-80370500D01*
X56314981Y-80332298D01*
X56534503Y-80256936D01*
X56738626Y-80146470D01*
X56780456Y-80113913D01*
X56833053Y-80072975D01*
X56921784Y-80003913D01*
X57078979Y-79833153D01*
X57205924Y-79638849D01*
X57299157Y-79426300D01*
X57356134Y-79201305D01*
X57361350Y-79138355D01*
X57375300Y-78970006D01*
X57375300Y-78969993D01*
X57356135Y-78738702D01*
X57356133Y-78738691D01*
X57299157Y-78513699D01*
X57205924Y-78301151D01*
X57078983Y-78106852D01*
X57078980Y-78106849D01*
X57078979Y-78106847D01*
X56921784Y-77936087D01*
X56744180Y-77797853D01*
X56703368Y-77741143D01*
X56699693Y-77671370D01*
X56734324Y-77610687D01*
X56744181Y-77602146D01*
X56921784Y-77463913D01*
X57078979Y-77293153D01*
X57205924Y-77098849D01*
X57205926Y-77098843D01*
X57207747Y-77095481D01*
X57256967Y-77045891D01*
X57316801Y-77030500D01*
X60629903Y-77030500D01*
X60696942Y-77050185D01*
X60717583Y-77066818D01*
X62274463Y-78623699D01*
X63638349Y-79987585D01*
X63638354Y-79987589D01*
X65751284Y-82100520D01*
X65751286Y-82100521D01*
X65751290Y-82100524D01*
X65888209Y-82179573D01*
X65888216Y-82179577D01*
X66040943Y-82220501D01*
X66040945Y-82220501D01*
X66206654Y-82220501D01*
X66206670Y-82220500D01*
X66957500Y-82220500D01*
X67024539Y-82240185D01*
X67070294Y-82292989D01*
X67081500Y-82344500D01*
X67081500Y-86757345D01*
X67061815Y-86824384D01*
X67028623Y-86858920D01*
X66875121Y-86966402D01*
X66720402Y-87121121D01*
X66594900Y-87300357D01*
X66594898Y-87300361D01*
X66502426Y-87498668D01*
X66502422Y-87498677D01*
X66445793Y-87710020D01*
X66445793Y-87710024D01*
X66426723Y-87927997D01*
X66426723Y-87928002D01*
X66426839Y-87929330D01*
X66445306Y-88140416D01*
X66445793Y-88145975D01*
X66445793Y-88145979D01*
X66502422Y-88357322D01*
X66502424Y-88357326D01*
X66502425Y-88357330D01*
X66517614Y-88389902D01*
X66594897Y-88555638D01*
X66594898Y-88555639D01*
X66720402Y-88734877D01*
X66875123Y-88889598D01*
X67054361Y-89015102D01*
X67252670Y-89107575D01*
X67464023Y-89164207D01*
X67646926Y-89180208D01*
X67681998Y-89183277D01*
X67682000Y-89183277D01*
X67682002Y-89183277D01*
X67710254Y-89180805D01*
X67899977Y-89164207D01*
X68111330Y-89107575D01*
X68309639Y-89015102D01*
X68488877Y-88889598D01*
X68643598Y-88734877D01*
X68769102Y-88555639D01*
X68861575Y-88357330D01*
X68918207Y-88145977D01*
X68937161Y-87929330D01*
X68937277Y-87928002D01*
X68937277Y-87927997D01*
X68933569Y-87885618D01*
X68918207Y-87710023D01*
X68861575Y-87498670D01*
X68769102Y-87300362D01*
X68769100Y-87300359D01*
X68769099Y-87300357D01*
X68643599Y-87121124D01*
X68576028Y-87053553D01*
X68488877Y-86966402D01*
X68467335Y-86951318D01*
X68335376Y-86858918D01*
X68291751Y-86804341D01*
X68282500Y-86757344D01*
X68282500Y-82344500D01*
X68302185Y-82277461D01*
X68354989Y-82231706D01*
X68406500Y-82220500D01*
X70303199Y-82220500D01*
X70370238Y-82240185D01*
X70412253Y-82285481D01*
X70414075Y-82288848D01*
X70541016Y-82483147D01*
X70541019Y-82483151D01*
X70541021Y-82483153D01*
X70698216Y-82653913D01*
X70698219Y-82653915D01*
X70698222Y-82653918D01*
X70875818Y-82792147D01*
X70916631Y-82848857D01*
X70920306Y-82918630D01*
X70885674Y-82979313D01*
X70875818Y-82987853D01*
X70698222Y-83126081D01*
X70698219Y-83126084D01*
X70541016Y-83296852D01*
X70414075Y-83491151D01*
X70320842Y-83703699D01*
X70263866Y-83928691D01*
X70263864Y-83928702D01*
X70244700Y-84159993D01*
X70244700Y-84160006D01*
X70263864Y-84391297D01*
X70263866Y-84391308D01*
X70320842Y-84616300D01*
X70414075Y-84828848D01*
X70541016Y-85023147D01*
X70541019Y-85023151D01*
X70541021Y-85023153D01*
X70698216Y-85193913D01*
X70799486Y-85272734D01*
X70876225Y-85332462D01*
X70917038Y-85389173D01*
X70920713Y-85458946D01*
X70886082Y-85519629D01*
X70876225Y-85528170D01*
X70851201Y-85547646D01*
X70851200Y-85547647D01*
X71603554Y-86300000D01*
X71597339Y-86300000D01*
X71495606Y-86327259D01*
X71404394Y-86379920D01*
X71329920Y-86454394D01*
X71277259Y-86545606D01*
X71250000Y-86647339D01*
X71250000Y-86653554D01*
X70498811Y-85902365D01*
X70414516Y-86031390D01*
X70321317Y-86243864D01*
X70264361Y-86468781D01*
X70245202Y-86699994D01*
X70245202Y-86700005D01*
X70264361Y-86931218D01*
X70321317Y-87156135D01*
X70414515Y-87368606D01*
X70498812Y-87497633D01*
X71250000Y-86746445D01*
X71250000Y-86752661D01*
X71277259Y-86854394D01*
X71329920Y-86945606D01*
X71404394Y-87020080D01*
X71495606Y-87072741D01*
X71597339Y-87100000D01*
X71603553Y-87100000D01*
X70851201Y-87852351D01*
X70881649Y-87876050D01*
X71085697Y-87986476D01*
X71085706Y-87986479D01*
X71305139Y-88061811D01*
X71533993Y-88100000D01*
X71766007Y-88100000D01*
X71994860Y-88061811D01*
X72214293Y-87986479D01*
X72214301Y-87986476D01*
X72418355Y-87876047D01*
X72448797Y-87852351D01*
X72448798Y-87852350D01*
X71696448Y-87100000D01*
X71702661Y-87100000D01*
X71804394Y-87072741D01*
X71895606Y-87020080D01*
X71970080Y-86945606D01*
X72022741Y-86854394D01*
X72050000Y-86752661D01*
X72050000Y-86746447D01*
X72801186Y-87497633D01*
X72885482Y-87368611D01*
X72978682Y-87156135D01*
X73035638Y-86931218D01*
X73054798Y-86700005D01*
X73054798Y-86699994D01*
X73035638Y-86468781D01*
X72978682Y-86243864D01*
X72885484Y-86031393D01*
X72801186Y-85902365D01*
X72050000Y-86653551D01*
X72050000Y-86647339D01*
X72022741Y-86545606D01*
X71970080Y-86454394D01*
X71895606Y-86379920D01*
X71804394Y-86327259D01*
X71702661Y-86300000D01*
X71696447Y-86300000D01*
X72448797Y-85547647D01*
X72448797Y-85547646D01*
X72423773Y-85528169D01*
X72382961Y-85471459D01*
X72379286Y-85401686D01*
X72413918Y-85341003D01*
X72423760Y-85332473D01*
X72601784Y-85193913D01*
X72758979Y-85023153D01*
X72885924Y-84828849D01*
X72885926Y-84828843D01*
X72887747Y-84825481D01*
X72936967Y-84775891D01*
X72996801Y-84760500D01*
X74596121Y-84760500D01*
X74663160Y-84780185D01*
X74708915Y-84832989D01*
X74715896Y-84852407D01*
X74773258Y-85066488D01*
X74773261Y-85066497D01*
X74869431Y-85272732D01*
X74869432Y-85272734D01*
X74999954Y-85459141D01*
X75160858Y-85620045D01*
X75160861Y-85620047D01*
X75346624Y-85750118D01*
X75390248Y-85804693D01*
X75399500Y-85851692D01*
X75399500Y-86929902D01*
X75379815Y-86996941D01*
X75363181Y-87017583D01*
X68979481Y-93401282D01*
X68979479Y-93401285D01*
X68929361Y-93488094D01*
X68929359Y-93488096D01*
X68900425Y-93538209D01*
X68900424Y-93538210D01*
X68900348Y-93538495D01*
X68859499Y-93690943D01*
X68859499Y-93690945D01*
X68859499Y-93859046D01*
X68859500Y-93859059D01*
X68859500Y-94504345D01*
X68839815Y-94571384D01*
X68806623Y-94605920D01*
X68653121Y-94713402D01*
X68498402Y-94868121D01*
X68372900Y-95047357D01*
X68372898Y-95047361D01*
X68280426Y-95245668D01*
X68280422Y-95245677D01*
X68223793Y-95457020D01*
X68223793Y-95457024D01*
X68204723Y-95674997D01*
X68204723Y-95675002D01*
X68223793Y-95892975D01*
X68223793Y-95892979D01*
X68280422Y-96104322D01*
X68280424Y-96104326D01*
X68280425Y-96104330D01*
X68308589Y-96164728D01*
X68372897Y-96302638D01*
X68372898Y-96302639D01*
X68498402Y-96481877D01*
X68653123Y-96636598D01*
X68832361Y-96762102D01*
X69030670Y-96854575D01*
X69242023Y-96911207D01*
X69424926Y-96927208D01*
X69459998Y-96930277D01*
X69460000Y-96930277D01*
X69460002Y-96930277D01*
X69488254Y-96927805D01*
X69677977Y-96911207D01*
X69889330Y-96854575D01*
X70087639Y-96762102D01*
X70150446Y-96718124D01*
X73850427Y-96718124D01*
X73912612Y-96761666D01*
X74110840Y-96854101D01*
X74110849Y-96854105D01*
X74322105Y-96910710D01*
X74322115Y-96910712D01*
X74539999Y-96929775D01*
X74540001Y-96929775D01*
X74757884Y-96910712D01*
X74757894Y-96910710D01*
X74969150Y-96854105D01*
X74969164Y-96854100D01*
X75167383Y-96761669D01*
X75167385Y-96761668D01*
X75229571Y-96718124D01*
X74540001Y-96028553D01*
X74540000Y-96028553D01*
X73850427Y-96718124D01*
X70150446Y-96718124D01*
X70266877Y-96636598D01*
X70421598Y-96481877D01*
X70547102Y-96302639D01*
X70639575Y-96104330D01*
X70696207Y-95892977D01*
X70715277Y-95675000D01*
X73285225Y-95675000D01*
X73304287Y-95892884D01*
X73304289Y-95892894D01*
X73360894Y-96104150D01*
X73360898Y-96104159D01*
X73453333Y-96302387D01*
X73496874Y-96364571D01*
X74140368Y-95721078D01*
X74190000Y-95721078D01*
X74213852Y-95810095D01*
X74259930Y-95889905D01*
X74325095Y-95955070D01*
X74404905Y-96001148D01*
X74493922Y-96025000D01*
X74586078Y-96025000D01*
X74675095Y-96001148D01*
X74754905Y-95955070D01*
X74820070Y-95889905D01*
X74866148Y-95810095D01*
X74890000Y-95721078D01*
X74890000Y-95675000D01*
X74893553Y-95675000D01*
X75583124Y-96364570D01*
X75626668Y-96302385D01*
X75626669Y-96302383D01*
X75719100Y-96104164D01*
X75719105Y-96104150D01*
X75775710Y-95892894D01*
X75775712Y-95892884D01*
X75794775Y-95675000D01*
X75794775Y-95674999D01*
X75775712Y-95457115D01*
X75775710Y-95457105D01*
X75719105Y-95245849D01*
X75719101Y-95245840D01*
X75626667Y-95047614D01*
X75626666Y-95047612D01*
X75583124Y-94985428D01*
X75583124Y-94985427D01*
X74893553Y-95674999D01*
X74893553Y-95675000D01*
X74890000Y-95675000D01*
X74890000Y-95628922D01*
X74866148Y-95539905D01*
X74820070Y-95460095D01*
X74754905Y-95394930D01*
X74675095Y-95348852D01*
X74586078Y-95325000D01*
X74493922Y-95325000D01*
X74404905Y-95348852D01*
X74325095Y-95394930D01*
X74259930Y-95460095D01*
X74213852Y-95539905D01*
X74190000Y-95628922D01*
X74190000Y-95721078D01*
X74140368Y-95721078D01*
X74186446Y-95675000D01*
X73496874Y-94985428D01*
X73453333Y-95047613D01*
X73360898Y-95245840D01*
X73360894Y-95245849D01*
X73304289Y-95457105D01*
X73304287Y-95457115D01*
X73285225Y-95674999D01*
X73285225Y-95675000D01*
X70715277Y-95675000D01*
X70696207Y-95457023D01*
X70639575Y-95245670D01*
X70547102Y-95047362D01*
X70547100Y-95047359D01*
X70547099Y-95047357D01*
X70421599Y-94868124D01*
X70358061Y-94804586D01*
X70266877Y-94713402D01*
X70255607Y-94705510D01*
X70150445Y-94631874D01*
X73850428Y-94631874D01*
X74540000Y-95321446D01*
X74540001Y-95321446D01*
X75229571Y-94631874D01*
X75167387Y-94588333D01*
X74969159Y-94495898D01*
X74969150Y-94495894D01*
X74757894Y-94439289D01*
X74757884Y-94439287D01*
X74540001Y-94420225D01*
X74539999Y-94420225D01*
X74322115Y-94439287D01*
X74322105Y-94439289D01*
X74110849Y-94495894D01*
X74110840Y-94495898D01*
X73912613Y-94588333D01*
X73850428Y-94631874D01*
X70150445Y-94631874D01*
X70113376Y-94605918D01*
X70069751Y-94551341D01*
X70060500Y-94504344D01*
X70060500Y-94070097D01*
X70080185Y-94003058D01*
X70096819Y-93982416D01*
X73247840Y-90831395D01*
X74707947Y-89371288D01*
X95177500Y-89371288D01*
X95209161Y-89611785D01*
X95271947Y-89846104D01*
X95352891Y-90041519D01*
X95364776Y-90070212D01*
X95486064Y-90280289D01*
X95486066Y-90280292D01*
X95486067Y-90280293D01*
X95633733Y-90472736D01*
X95633739Y-90472743D01*
X95805256Y-90644260D01*
X95805262Y-90644265D01*
X95997711Y-90791936D01*
X96207788Y-90913224D01*
X96431900Y-91006054D01*
X96666211Y-91068838D01*
X96846241Y-91092539D01*
X96906711Y-91100500D01*
X96906712Y-91100500D01*
X97149289Y-91100500D01*
X97209759Y-91092539D01*
X97389789Y-91068838D01*
X97624100Y-91006054D01*
X97848212Y-90913224D01*
X98058289Y-90791936D01*
X98250738Y-90644265D01*
X98422265Y-90472738D01*
X98569936Y-90280289D01*
X98691224Y-90070212D01*
X98784054Y-89846100D01*
X98846838Y-89611789D01*
X98878500Y-89371288D01*
X98878500Y-89128712D01*
X98846838Y-88888211D01*
X98784054Y-88653900D01*
X98691224Y-88429788D01*
X98569936Y-88219711D01*
X98422265Y-88027262D01*
X98422260Y-88027256D01*
X98250743Y-87855739D01*
X98250736Y-87855733D01*
X98058293Y-87708067D01*
X98058292Y-87708066D01*
X98058289Y-87708064D01*
X97886661Y-87608974D01*
X97848214Y-87586777D01*
X97848205Y-87586773D01*
X97624104Y-87493947D01*
X97450688Y-87447480D01*
X97389789Y-87431162D01*
X97389788Y-87431161D01*
X97389785Y-87431161D01*
X97149289Y-87399500D01*
X97149288Y-87399500D01*
X96906712Y-87399500D01*
X96906711Y-87399500D01*
X96666214Y-87431161D01*
X96431895Y-87493947D01*
X96207794Y-87586773D01*
X96207785Y-87586777D01*
X95997706Y-87708067D01*
X95805263Y-87855733D01*
X95805256Y-87855739D01*
X95633739Y-88027256D01*
X95633733Y-88027263D01*
X95486067Y-88219706D01*
X95364777Y-88429785D01*
X95364773Y-88429794D01*
X95271947Y-88653895D01*
X95209161Y-88888214D01*
X95177500Y-89128711D01*
X95177500Y-89371288D01*
X74707947Y-89371288D01*
X76480520Y-87598716D01*
X76559577Y-87461784D01*
X76600501Y-87309057D01*
X76600501Y-87150942D01*
X76600501Y-87143347D01*
X76600500Y-87143329D01*
X76600500Y-85851692D01*
X76620185Y-85784653D01*
X76653374Y-85750119D01*
X76839139Y-85620047D01*
X77000047Y-85459139D01*
X77130568Y-85272734D01*
X77226739Y-85066496D01*
X77285635Y-84846692D01*
X77305468Y-84620000D01*
X77285635Y-84393308D01*
X77226739Y-84173504D01*
X77130568Y-83967266D01*
X77000047Y-83780861D01*
X77000045Y-83780858D01*
X76839141Y-83619954D01*
X76652734Y-83489432D01*
X76652732Y-83489431D01*
X76446497Y-83393261D01*
X76446488Y-83393258D01*
X76226697Y-83334366D01*
X76226693Y-83334365D01*
X76226692Y-83334365D01*
X76226691Y-83334364D01*
X76226686Y-83334364D01*
X76000002Y-83314532D01*
X75999998Y-83314532D01*
X75773313Y-83334364D01*
X75773302Y-83334366D01*
X75553511Y-83393258D01*
X75553502Y-83393262D01*
X75347268Y-83489430D01*
X75307606Y-83517201D01*
X75279223Y-83537075D01*
X75213019Y-83559402D01*
X75208102Y-83559500D01*
X73540519Y-83559500D01*
X73473480Y-83539815D01*
X73427725Y-83487011D01*
X73417781Y-83417853D01*
X73446806Y-83354297D01*
X73452838Y-83347819D01*
X74068112Y-82732545D01*
X74068114Y-82732543D01*
X74144775Y-82617811D01*
X74197580Y-82490329D01*
X74204739Y-82454335D01*
X74211964Y-82418016D01*
X74211964Y-82418013D01*
X74224500Y-82354993D01*
X74224500Y-72746007D01*
X74224500Y-72746004D01*
X74224499Y-72746002D01*
X74197582Y-72610679D01*
X74197581Y-72610678D01*
X74197580Y-72610672D01*
X74192952Y-72599500D01*
X74164449Y-72530687D01*
X74144778Y-72483195D01*
X74144776Y-72483192D01*
X74144775Y-72483189D01*
X74068114Y-72368457D01*
X74068112Y-72368454D01*
X72700545Y-71000887D01*
X72585807Y-70924222D01*
X72458332Y-70871421D01*
X72458322Y-70871418D01*
X72322996Y-70844500D01*
X72322994Y-70844500D01*
X72322993Y-70844500D01*
X63236519Y-70844500D01*
X63169480Y-70824815D01*
X63148838Y-70808181D01*
X62686819Y-70346162D01*
X62653334Y-70284839D01*
X62650500Y-70258481D01*
X62650500Y-66034499D01*
X62670185Y-65967460D01*
X62722989Y-65921705D01*
X62774500Y-65910499D01*
X62847871Y-65910499D01*
X62847872Y-65910499D01*
X62907483Y-65904091D01*
X63042331Y-65853796D01*
X63157546Y-65767546D01*
X63243796Y-65652331D01*
X63293002Y-65520401D01*
X63334872Y-65464468D01*
X63400337Y-65440050D01*
X63468610Y-65454901D01*
X63496865Y-65476053D01*
X63618917Y-65598105D01*
X63812421Y-65733600D01*
X64026507Y-65833429D01*
X64026516Y-65833433D01*
X64240000Y-65890634D01*
X64240000Y-64993012D01*
X64297007Y-65025925D01*
X64424174Y-65060000D01*
X64555826Y-65060000D01*
X64682993Y-65025925D01*
X64740000Y-64993012D01*
X64740000Y-65890633D01*
X64953483Y-65833433D01*
X64953492Y-65833429D01*
X65167578Y-65733600D01*
X65361082Y-65598105D01*
X65528105Y-65431082D01*
X65663600Y-65237578D01*
X65763429Y-65023492D01*
X65763432Y-65023486D01*
X65820636Y-64810000D01*
X64923012Y-64810000D01*
X64955925Y-64752993D01*
X64990000Y-64625826D01*
X64990000Y-64494174D01*
X64955925Y-64367007D01*
X64923012Y-64310000D01*
X65820636Y-64310000D01*
X65820635Y-64309999D01*
X65763432Y-64096513D01*
X65763429Y-64096507D01*
X65663600Y-63882422D01*
X65663599Y-63882420D01*
X65528113Y-63688926D01*
X65528108Y-63688920D01*
X65361082Y-63521894D01*
X65167578Y-63386399D01*
X64953492Y-63286570D01*
X64953486Y-63286567D01*
X64740000Y-63229364D01*
X64740000Y-64126988D01*
X64682993Y-64094075D01*
X64555826Y-64060000D01*
X64424174Y-64060000D01*
X64297007Y-64094075D01*
X64240000Y-64126988D01*
X64240000Y-63229364D01*
X64239999Y-63229364D01*
X64026513Y-63286567D01*
X64026507Y-63286570D01*
X63812422Y-63386399D01*
X63812420Y-63386400D01*
X63618926Y-63521886D01*
X63496865Y-63643947D01*
X63435542Y-63677431D01*
X63365850Y-63672447D01*
X63309917Y-63630575D01*
X63293002Y-63599598D01*
X63291697Y-63596100D01*
X63255368Y-63498695D01*
X63243797Y-63467671D01*
X63243793Y-63467664D01*
X63157547Y-63352455D01*
X63157544Y-63352452D01*
X63042335Y-63266206D01*
X63042328Y-63266202D01*
X62907482Y-63215908D01*
X62907483Y-63215908D01*
X62847883Y-63209501D01*
X62847881Y-63209500D01*
X62847873Y-63209500D01*
X62847864Y-63209500D01*
X61052129Y-63209500D01*
X61052123Y-63209501D01*
X60992516Y-63215908D01*
X60857671Y-63266202D01*
X60857664Y-63266206D01*
X60742455Y-63352452D01*
X60742452Y-63352455D01*
X60656206Y-63467664D01*
X60656202Y-63467671D01*
X60605908Y-63602517D01*
X60599501Y-63662116D01*
X60599500Y-63662135D01*
X60599500Y-65457870D01*
X60599501Y-65457876D01*
X60605908Y-65517483D01*
X60656202Y-65652328D01*
X60656206Y-65652335D01*
X60742452Y-65767544D01*
X60742455Y-65767547D01*
X60857664Y-65853793D01*
X60857671Y-65853797D01*
X60900900Y-65869920D01*
X60992517Y-65904091D01*
X61052127Y-65910500D01*
X61125500Y-65910499D01*
X61192538Y-65930183D01*
X61238294Y-65982986D01*
X61249500Y-66034499D01*
X61249500Y-70531006D01*
X61249500Y-70668994D01*
X61249500Y-70668996D01*
X61249499Y-70668996D01*
X61276418Y-70804322D01*
X61276421Y-70804332D01*
X61329222Y-70931807D01*
X61405887Y-71046545D01*
X62448454Y-72089112D01*
X62563192Y-72165777D01*
X62677570Y-72213153D01*
X62690672Y-72218580D01*
X62690676Y-72218580D01*
X62690677Y-72218581D01*
X62826003Y-72245500D01*
X62826006Y-72245500D01*
X62826007Y-72245500D01*
X71912481Y-72245500D01*
X71979520Y-72265185D01*
X72000162Y-72281819D01*
X72165802Y-72447459D01*
X72199287Y-72508782D01*
X72194303Y-72578474D01*
X72152431Y-72634407D01*
X72086967Y-72658824D01*
X72037858Y-72652421D01*
X71994984Y-72637702D01*
X71823282Y-72609050D01*
X71766049Y-72599500D01*
X71533951Y-72599500D01*
X71488164Y-72607140D01*
X71305015Y-72637702D01*
X71085504Y-72713061D01*
X71085495Y-72713064D01*
X70881371Y-72823531D01*
X70881365Y-72823535D01*
X70698222Y-72966081D01*
X70698219Y-72966084D01*
X70698216Y-72966086D01*
X70698216Y-72966087D01*
X70642283Y-73026847D01*
X70541016Y-73136852D01*
X70414075Y-73331151D01*
X70320842Y-73543699D01*
X70263866Y-73768691D01*
X70263864Y-73768702D01*
X70244700Y-73999993D01*
X70244700Y-74000006D01*
X70263864Y-74231297D01*
X70263866Y-74231308D01*
X70320842Y-74456300D01*
X70414075Y-74668848D01*
X70541016Y-74863147D01*
X70541019Y-74863151D01*
X70541021Y-74863153D01*
X70698216Y-75033913D01*
X70698219Y-75033915D01*
X70698222Y-75033918D01*
X70875818Y-75172147D01*
X70916631Y-75228857D01*
X70920306Y-75298630D01*
X70885674Y-75359313D01*
X70875818Y-75367853D01*
X70698222Y-75506081D01*
X70698219Y-75506084D01*
X70698216Y-75506086D01*
X70698216Y-75506087D01*
X70656053Y-75551888D01*
X70541016Y-75676852D01*
X70414075Y-75871151D01*
X70320842Y-76083699D01*
X70263866Y-76308691D01*
X70263864Y-76308702D01*
X70244700Y-76539993D01*
X70244700Y-76540006D01*
X70263864Y-76771297D01*
X70263866Y-76771308D01*
X70320842Y-76996300D01*
X70414075Y-77208848D01*
X70541016Y-77403147D01*
X70541019Y-77403151D01*
X70541021Y-77403153D01*
X70698216Y-77573913D01*
X70698219Y-77573915D01*
X70698222Y-77573918D01*
X70875818Y-77712147D01*
X70916631Y-77768857D01*
X70920306Y-77838630D01*
X70885674Y-77899313D01*
X70875818Y-77907853D01*
X70698222Y-78046081D01*
X70698219Y-78046084D01*
X70698216Y-78046086D01*
X70698216Y-78046087D01*
X70656053Y-78091888D01*
X70541016Y-78216852D01*
X70414075Y-78411151D01*
X70320842Y-78623699D01*
X70263866Y-78848691D01*
X70263864Y-78848702D01*
X70244700Y-79079993D01*
X70244700Y-79080006D01*
X70263864Y-79311297D01*
X70263866Y-79311308D01*
X70320842Y-79536300D01*
X70414075Y-79748848D01*
X70541016Y-79943147D01*
X70541019Y-79943151D01*
X70541021Y-79943153D01*
X70698216Y-80113913D01*
X70698219Y-80113915D01*
X70698222Y-80113918D01*
X70875818Y-80252147D01*
X70916631Y-80308857D01*
X70920306Y-80378630D01*
X70885674Y-80439313D01*
X70875818Y-80447853D01*
X70698222Y-80586081D01*
X70698219Y-80586084D01*
X70698216Y-80586086D01*
X70698216Y-80586087D01*
X70661234Y-80626260D01*
X70541016Y-80756852D01*
X70414075Y-80951151D01*
X70412253Y-80954519D01*
X70363033Y-81004109D01*
X70303199Y-81019500D01*
X68062670Y-81019500D01*
X68062654Y-81019499D01*
X68055058Y-81019499D01*
X67896943Y-81019499D01*
X67889347Y-81019499D01*
X67889331Y-81019500D01*
X66420098Y-81019500D01*
X66353059Y-80999815D01*
X66332417Y-80983181D01*
X64487590Y-79138355D01*
X64487588Y-79138352D01*
X62955706Y-77606470D01*
X61417589Y-76068354D01*
X61417588Y-76068352D01*
X61298717Y-75949481D01*
X61298716Y-75949480D01*
X61211904Y-75899360D01*
X61211904Y-75899359D01*
X61211900Y-75899358D01*
X61161785Y-75870423D01*
X61009057Y-75829499D01*
X60850943Y-75829499D01*
X60843347Y-75829499D01*
X60843331Y-75829500D01*
X57316801Y-75829500D01*
X57249762Y-75809815D01*
X57207747Y-75764519D01*
X57205924Y-75761151D01*
X57078983Y-75566852D01*
X57078980Y-75566849D01*
X57078979Y-75566847D01*
X56921784Y-75396087D01*
X56744180Y-75257853D01*
X56703368Y-75201143D01*
X56699693Y-75131370D01*
X56734324Y-75070687D01*
X56744181Y-75062146D01*
X56921784Y-74923913D01*
X57078979Y-74753153D01*
X57205924Y-74558849D01*
X57299157Y-74346300D01*
X57356134Y-74121305D01*
X57366185Y-74000006D01*
X57375300Y-73890006D01*
X57375300Y-73889993D01*
X57356135Y-73658702D01*
X57356133Y-73658691D01*
X57299157Y-73433699D01*
X57205924Y-73221151D01*
X57078983Y-73026852D01*
X57078980Y-73026849D01*
X57078979Y-73026847D01*
X56921784Y-72856087D01*
X56744180Y-72717853D01*
X56703368Y-72661143D01*
X56699693Y-72591370D01*
X56734324Y-72530687D01*
X56744181Y-72522146D01*
X56921784Y-72383913D01*
X57078979Y-72213153D01*
X57205924Y-72018849D01*
X57299157Y-71806300D01*
X57356134Y-71581305D01*
X57367350Y-71445945D01*
X57375300Y-71350006D01*
X57375300Y-71349993D01*
X57356135Y-71118702D01*
X57356133Y-71118691D01*
X57299157Y-70893699D01*
X57205924Y-70681151D01*
X57078983Y-70486852D01*
X57078980Y-70486849D01*
X57078979Y-70486847D01*
X56921784Y-70316087D01*
X56744180Y-70177853D01*
X56703368Y-70121143D01*
X56699693Y-70051370D01*
X56734324Y-69990687D01*
X56744181Y-69982146D01*
X56921784Y-69843913D01*
X57078979Y-69673153D01*
X57205924Y-69478849D01*
X57299157Y-69266300D01*
X57356134Y-69041305D01*
X57356135Y-69041297D01*
X57375300Y-68810006D01*
X57375300Y-68809993D01*
X57356135Y-68578702D01*
X57356133Y-68578691D01*
X57299157Y-68353699D01*
X57205923Y-68141149D01*
X57078983Y-67946852D01*
X57078980Y-67946849D01*
X57078979Y-67946847D01*
X56921784Y-67776087D01*
X56743773Y-67637536D01*
X56702961Y-67580826D01*
X56699286Y-67511053D01*
X56733917Y-67450370D01*
X56743772Y-67441831D01*
X56768797Y-67422352D01*
X56768798Y-67422350D01*
X56016448Y-66670000D01*
X56022661Y-66670000D01*
X56124394Y-66642741D01*
X56215606Y-66590080D01*
X56290080Y-66515606D01*
X56342741Y-66424394D01*
X56370000Y-66322661D01*
X56370000Y-66316447D01*
X57121186Y-67067633D01*
X57205482Y-66938611D01*
X57298682Y-66726135D01*
X57355638Y-66501218D01*
X57374798Y-66270005D01*
X57374798Y-66269994D01*
X57355638Y-66038781D01*
X57298682Y-65813864D01*
X57205484Y-65601393D01*
X57121186Y-65472365D01*
X56370000Y-66223551D01*
X56370000Y-66217339D01*
X56342741Y-66115606D01*
X56290080Y-66024394D01*
X56215606Y-65949920D01*
X56124394Y-65897259D01*
X56022661Y-65870000D01*
X56016447Y-65870000D01*
X56768797Y-65117647D01*
X56768797Y-65117646D01*
X56743773Y-65098169D01*
X56702961Y-65041459D01*
X56699286Y-64971686D01*
X56733918Y-64911003D01*
X56743760Y-64902473D01*
X56921784Y-64763913D01*
X57078979Y-64593153D01*
X57205924Y-64398849D01*
X57299157Y-64186300D01*
X57356134Y-63961305D01*
X57356135Y-63961297D01*
X57375300Y-63730006D01*
X57375300Y-63729993D01*
X57356135Y-63498702D01*
X57356133Y-63498691D01*
X57299157Y-63273699D01*
X57205924Y-63061151D01*
X57078983Y-62866852D01*
X57078980Y-62866849D01*
X57078979Y-62866847D01*
X56921784Y-62696087D01*
X56921779Y-62696083D01*
X56921777Y-62696081D01*
X56738634Y-62553535D01*
X56738628Y-62553531D01*
X56534504Y-62443064D01*
X56534498Y-62443062D01*
X56530766Y-62441781D01*
X56473751Y-62401395D01*
X56447621Y-62336595D01*
X56460673Y-62267955D01*
X56508762Y-62217268D01*
X56571030Y-62200500D01*
X66199903Y-62200500D01*
X66266942Y-62220185D01*
X66287584Y-62236819D01*
X73489632Y-69438867D01*
X73509336Y-69464545D01*
X73517595Y-69478849D01*
X73517597Y-69478852D01*
X73569477Y-69568712D01*
X73569481Y-69568717D01*
X73688349Y-69687585D01*
X73688355Y-69687590D01*
X75363181Y-71362416D01*
X75396666Y-71423739D01*
X75399500Y-71450097D01*
X75399500Y-72578306D01*
X75379815Y-72645345D01*
X75346623Y-72679881D01*
X75160859Y-72809953D01*
X74999954Y-72970858D01*
X74869432Y-73157265D01*
X74869431Y-73157267D01*
X74773261Y-73363502D01*
X74773258Y-73363511D01*
X74714366Y-73583302D01*
X74714364Y-73583313D01*
X74694532Y-73809998D01*
X74694532Y-73810001D01*
X74714364Y-74036686D01*
X74714366Y-74036697D01*
X74773258Y-74256488D01*
X74773261Y-74256497D01*
X74869431Y-74462732D01*
X74869432Y-74462734D01*
X74999954Y-74649141D01*
X75160858Y-74810045D01*
X75160861Y-74810047D01*
X75346624Y-74940118D01*
X75390248Y-74994693D01*
X75399500Y-75041692D01*
X75399500Y-75768306D01*
X75379815Y-75835345D01*
X75346623Y-75869881D01*
X75160859Y-75999953D01*
X74999954Y-76160858D01*
X74869432Y-76347265D01*
X74869431Y-76347267D01*
X74773261Y-76553502D01*
X74773258Y-76553511D01*
X74714366Y-76773302D01*
X74714364Y-76773313D01*
X74694532Y-76999998D01*
X74694532Y-77000001D01*
X74714364Y-77226686D01*
X74714366Y-77226697D01*
X74773258Y-77446488D01*
X74773261Y-77446497D01*
X74869431Y-77652732D01*
X74869432Y-77652734D01*
X74999954Y-77839141D01*
X75160858Y-78000045D01*
X75160861Y-78000047D01*
X75347266Y-78130568D01*
X75553504Y-78226739D01*
X75773308Y-78285635D01*
X75935230Y-78299801D01*
X75999998Y-78305468D01*
X76000000Y-78305468D01*
X76000002Y-78305468D01*
X76056673Y-78300509D01*
X76226692Y-78285635D01*
X76446496Y-78226739D01*
X76652734Y-78130568D01*
X76839139Y-78000047D01*
X77000047Y-77839139D01*
X77130568Y-77652734D01*
X77226739Y-77446496D01*
X77285635Y-77226692D01*
X77305468Y-77000000D01*
X77285635Y-76773308D01*
X77226739Y-76553504D01*
X77130568Y-76347266D01*
X77000047Y-76160861D01*
X77000045Y-76160858D01*
X76839140Y-75999953D01*
X76653377Y-75869881D01*
X76609752Y-75815304D01*
X76600500Y-75768306D01*
X76600500Y-75041692D01*
X76620185Y-74974653D01*
X76653374Y-74940119D01*
X76839139Y-74810047D01*
X77000047Y-74649139D01*
X77130568Y-74462734D01*
X77226739Y-74256496D01*
X77285635Y-74036692D01*
X77305468Y-73810000D01*
X77303020Y-73782024D01*
X77292231Y-73658702D01*
X77285635Y-73583308D01*
X77235625Y-73396666D01*
X77226741Y-73363511D01*
X77226738Y-73363502D01*
X77167097Y-73235603D01*
X77130568Y-73157266D01*
X77000047Y-72970861D01*
X77000045Y-72970858D01*
X76839140Y-72809953D01*
X76653377Y-72679881D01*
X76609752Y-72625304D01*
X76600500Y-72578306D01*
X76600500Y-71070945D01*
X76600500Y-71070943D01*
X76559577Y-70918216D01*
X76532560Y-70871420D01*
X76480524Y-70781290D01*
X76480521Y-70781286D01*
X76480520Y-70781284D01*
X76368716Y-70669480D01*
X76368715Y-70669479D01*
X76364385Y-70665149D01*
X76364374Y-70665139D01*
X74610365Y-68911130D01*
X74590660Y-68885450D01*
X74530520Y-68781284D01*
X74418716Y-68669480D01*
X74418715Y-68669479D01*
X74414385Y-68665149D01*
X74414374Y-68665139D01*
X71689234Y-65939999D01*
X74721127Y-65939999D01*
X74721128Y-65940000D01*
X75684314Y-65940000D01*
X75679920Y-65944394D01*
X75627259Y-66035606D01*
X75600000Y-66137339D01*
X75600000Y-66242661D01*
X75627259Y-66344394D01*
X75679920Y-66435606D01*
X75684314Y-66440000D01*
X74721128Y-66440000D01*
X74773730Y-66636317D01*
X74773734Y-66636326D01*
X74869865Y-66842482D01*
X75000342Y-67028820D01*
X75161179Y-67189657D01*
X75347517Y-67320134D01*
X75553673Y-67416265D01*
X75553682Y-67416269D01*
X75749999Y-67468872D01*
X75750000Y-67468871D01*
X75750000Y-66505686D01*
X75754394Y-66510080D01*
X75845606Y-66562741D01*
X75947339Y-66590000D01*
X76052661Y-66590000D01*
X76154394Y-66562741D01*
X76245606Y-66510080D01*
X76250000Y-66505686D01*
X76250000Y-67468872D01*
X76446317Y-67416269D01*
X76446326Y-67416265D01*
X76652482Y-67320134D01*
X76838820Y-67189657D01*
X76999657Y-67028820D01*
X77130134Y-66842482D01*
X77226265Y-66636326D01*
X77226269Y-66636317D01*
X77278872Y-66440000D01*
X76315686Y-66440000D01*
X76320080Y-66435606D01*
X76372741Y-66344394D01*
X76400000Y-66242661D01*
X76400000Y-66137339D01*
X76372741Y-66035606D01*
X76320080Y-65944394D01*
X76315686Y-65940000D01*
X77278872Y-65940000D01*
X77278872Y-65939999D01*
X77226269Y-65743682D01*
X77226265Y-65743673D01*
X77130134Y-65537517D01*
X76999657Y-65351179D01*
X76838820Y-65190342D01*
X76652482Y-65059865D01*
X76446328Y-64963734D01*
X76250000Y-64911127D01*
X76250000Y-65874314D01*
X76245606Y-65869920D01*
X76154394Y-65817259D01*
X76052661Y-65790000D01*
X75947339Y-65790000D01*
X75845606Y-65817259D01*
X75754394Y-65869920D01*
X75750000Y-65874314D01*
X75750000Y-64911127D01*
X75553671Y-64963734D01*
X75347517Y-65059865D01*
X75161179Y-65190342D01*
X75000342Y-65351179D01*
X74869865Y-65537517D01*
X74773734Y-65743673D01*
X74773730Y-65743682D01*
X74721127Y-65939999D01*
X71689234Y-65939999D01*
X69401612Y-63652377D01*
X78923184Y-63652377D01*
X78923184Y-65468360D01*
X81275016Y-65468360D01*
X81275016Y-63971288D01*
X95177500Y-63971288D01*
X95209161Y-64211785D01*
X95271947Y-64446104D01*
X95332857Y-64593153D01*
X95364776Y-64670212D01*
X95486064Y-64880289D01*
X95486066Y-64880292D01*
X95486067Y-64880293D01*
X95633733Y-65072736D01*
X95633739Y-65072743D01*
X95805256Y-65244260D01*
X95805262Y-65244265D01*
X95997711Y-65391936D01*
X96207788Y-65513224D01*
X96266437Y-65537517D01*
X96430953Y-65605662D01*
X96431900Y-65606054D01*
X96666211Y-65668838D01*
X96846586Y-65692584D01*
X96906711Y-65700500D01*
X96906712Y-65700500D01*
X97149289Y-65700500D01*
X97197388Y-65694167D01*
X97389789Y-65668838D01*
X97624100Y-65606054D01*
X97848212Y-65513224D01*
X98058289Y-65391936D01*
X98250738Y-65244265D01*
X98422265Y-65072738D01*
X98569936Y-64880289D01*
X98691224Y-64670212D01*
X98784054Y-64446100D01*
X98846838Y-64211789D01*
X98878500Y-63971288D01*
X98878500Y-63728712D01*
X98846838Y-63488211D01*
X98784054Y-63253900D01*
X98729124Y-63121288D01*
X100399500Y-63121288D01*
X100431161Y-63361785D01*
X100493947Y-63596104D01*
X100586773Y-63820205D01*
X100586776Y-63820212D01*
X100708064Y-64030289D01*
X100708066Y-64030292D01*
X100708067Y-64030293D01*
X100855733Y-64222736D01*
X100855739Y-64222743D01*
X101027256Y-64394260D01*
X101027263Y-64394266D01*
X101033236Y-64398849D01*
X101219711Y-64541936D01*
X101429788Y-64663224D01*
X101653900Y-64756054D01*
X101888211Y-64818838D01*
X102068586Y-64842584D01*
X102128711Y-64850500D01*
X102128712Y-64850500D01*
X102371289Y-64850500D01*
X102419388Y-64844167D01*
X102611789Y-64818838D01*
X102846100Y-64756054D01*
X103070212Y-64663224D01*
X103280289Y-64541936D01*
X103472738Y-64394265D01*
X103644265Y-64222738D01*
X103791936Y-64030289D01*
X103913224Y-63820212D01*
X104006054Y-63596100D01*
X104068838Y-63361789D01*
X104100500Y-63121288D01*
X104100500Y-62878712D01*
X104068838Y-62638211D01*
X104006054Y-62403900D01*
X103913224Y-62179788D01*
X103791936Y-61969711D01*
X103644265Y-61777262D01*
X103644260Y-61777256D01*
X103472743Y-61605739D01*
X103472736Y-61605733D01*
X103280293Y-61458067D01*
X103280292Y-61458066D01*
X103280289Y-61458064D01*
X103070212Y-61336776D01*
X102956172Y-61289539D01*
X102846104Y-61243947D01*
X102611785Y-61181161D01*
X102371289Y-61149500D01*
X102371288Y-61149500D01*
X102128712Y-61149500D01*
X102128711Y-61149500D01*
X101888214Y-61181161D01*
X101653895Y-61243947D01*
X101429794Y-61336773D01*
X101429785Y-61336777D01*
X101219706Y-61458067D01*
X101027263Y-61605733D01*
X101027256Y-61605739D01*
X100855739Y-61777256D01*
X100855733Y-61777263D01*
X100708067Y-61969706D01*
X100708064Y-61969710D01*
X100708064Y-61969711D01*
X100696082Y-61990464D01*
X100586777Y-62179785D01*
X100586773Y-62179794D01*
X100493947Y-62403895D01*
X100431161Y-62638214D01*
X100399500Y-62878711D01*
X100399500Y-63121288D01*
X98729124Y-63121288D01*
X98691224Y-63029788D01*
X98569936Y-62819711D01*
X98430669Y-62638214D01*
X98422266Y-62627263D01*
X98422260Y-62627256D01*
X98250743Y-62455739D01*
X98250736Y-62455733D01*
X98058293Y-62308067D01*
X98058292Y-62308066D01*
X98058289Y-62308064D01*
X97855433Y-62190945D01*
X97848214Y-62186777D01*
X97848205Y-62186773D01*
X97624104Y-62093947D01*
X97389785Y-62031161D01*
X97149289Y-61999500D01*
X97149288Y-61999500D01*
X96906712Y-61999500D01*
X96906711Y-61999500D01*
X96666214Y-62031161D01*
X96431895Y-62093947D01*
X96207794Y-62186773D01*
X96207785Y-62186777D01*
X95997706Y-62308067D01*
X95805263Y-62455733D01*
X95805256Y-62455739D01*
X95633739Y-62627256D01*
X95633733Y-62627263D01*
X95486067Y-62819706D01*
X95364777Y-63029785D01*
X95364773Y-63029794D01*
X95271947Y-63253895D01*
X95209161Y-63488214D01*
X95177500Y-63728711D01*
X95177500Y-63971288D01*
X81275016Y-63971288D01*
X81275016Y-63652377D01*
X78923184Y-63652377D01*
X69401612Y-63652377D01*
X66987590Y-61238355D01*
X66987588Y-61238352D01*
X66868717Y-61119481D01*
X66868716Y-61119480D01*
X66781904Y-61069360D01*
X66781904Y-61069359D01*
X66781900Y-61069358D01*
X66731785Y-61040423D01*
X66579057Y-60999499D01*
X66420943Y-60999499D01*
X66413347Y-60999499D01*
X66413331Y-60999500D01*
X39729057Y-60999500D01*
X39570943Y-60999500D01*
X39418215Y-61040423D01*
X39418214Y-61040423D01*
X39418212Y-61040424D01*
X39418209Y-61040425D01*
X39368096Y-61069359D01*
X39368095Y-61069360D01*
X39339031Y-61086140D01*
X39281285Y-61119479D01*
X39281282Y-61119481D01*
X38499481Y-61901282D01*
X38499480Y-61901284D01*
X38459974Y-61969711D01*
X38420423Y-62038215D01*
X38379499Y-62190943D01*
X38379499Y-62190945D01*
X38379499Y-62359046D01*
X38379500Y-62359059D01*
X38379500Y-73149903D01*
X38359815Y-73216942D01*
X38343181Y-73237584D01*
X38217584Y-73363181D01*
X38156261Y-73396666D01*
X38129903Y-73399500D01*
X36920655Y-73399500D01*
X36853616Y-73379815D01*
X36819080Y-73346623D01*
X36711599Y-73193124D01*
X36655322Y-73136847D01*
X36556877Y-73038402D01*
X36377639Y-72912898D01*
X36377640Y-72912898D01*
X36377638Y-72912897D01*
X36251724Y-72854183D01*
X36179330Y-72820425D01*
X36179326Y-72820424D01*
X36179322Y-72820422D01*
X35967977Y-72763793D01*
X35750002Y-72744723D01*
X35749998Y-72744723D01*
X35617339Y-72756329D01*
X35532023Y-72763793D01*
X35532020Y-72763793D01*
X35320677Y-72820422D01*
X35320668Y-72820426D01*
X35122361Y-72912898D01*
X35122357Y-72912900D01*
X34943121Y-73038402D01*
X34788402Y-73193121D01*
X34662900Y-73372357D01*
X34662898Y-73372361D01*
X34570426Y-73570668D01*
X34570422Y-73570677D01*
X34513793Y-73782020D01*
X34513793Y-73782024D01*
X34494723Y-73999997D01*
X34494723Y-74000002D01*
X30750500Y-74000002D01*
X30750500Y-63121288D01*
X31399500Y-63121288D01*
X31431161Y-63361785D01*
X31493947Y-63596104D01*
X31586773Y-63820205D01*
X31586776Y-63820212D01*
X31708064Y-64030289D01*
X31708066Y-64030292D01*
X31708067Y-64030293D01*
X31855733Y-64222736D01*
X31855739Y-64222743D01*
X32027256Y-64394260D01*
X32027263Y-64394266D01*
X32033236Y-64398849D01*
X32219711Y-64541936D01*
X32429788Y-64663224D01*
X32653900Y-64756054D01*
X32888211Y-64818838D01*
X33068586Y-64842584D01*
X33128711Y-64850500D01*
X33128712Y-64850500D01*
X33371289Y-64850500D01*
X33419388Y-64844167D01*
X33611789Y-64818838D01*
X33846100Y-64756054D01*
X34070212Y-64663224D01*
X34280289Y-64541936D01*
X34472738Y-64394265D01*
X34644265Y-64222738D01*
X34791936Y-64030289D01*
X34913224Y-63820212D01*
X35006054Y-63596100D01*
X35068838Y-63361789D01*
X35100500Y-63121288D01*
X35100500Y-62878712D01*
X35068838Y-62638211D01*
X35006054Y-62403900D01*
X34913224Y-62179788D01*
X34791936Y-61969711D01*
X34644265Y-61777262D01*
X34644260Y-61777256D01*
X34472743Y-61605739D01*
X34472736Y-61605733D01*
X34280293Y-61458067D01*
X34280292Y-61458066D01*
X34280289Y-61458064D01*
X34070212Y-61336776D01*
X33956172Y-61289539D01*
X33846104Y-61243947D01*
X33611785Y-61181161D01*
X33371289Y-61149500D01*
X33371288Y-61149500D01*
X33128712Y-61149500D01*
X33128711Y-61149500D01*
X32888214Y-61181161D01*
X32653895Y-61243947D01*
X32429794Y-61336773D01*
X32429785Y-61336777D01*
X32219706Y-61458067D01*
X32027263Y-61605733D01*
X32027256Y-61605739D01*
X31855739Y-61777256D01*
X31855733Y-61777263D01*
X31708067Y-61969706D01*
X31708064Y-61969710D01*
X31708064Y-61969711D01*
X31696082Y-61990464D01*
X31586777Y-62179785D01*
X31586773Y-62179794D01*
X31493947Y-62403895D01*
X31431161Y-62638214D01*
X31399500Y-62878711D01*
X31399500Y-63121288D01*
X30750500Y-63121288D01*
X30750500Y-62504066D01*
X30750765Y-62495956D01*
X30767075Y-62247102D01*
X30769190Y-62231048D01*
X30817045Y-61990462D01*
X30821243Y-61974797D01*
X30846198Y-61901282D01*
X30900093Y-61742512D01*
X30906291Y-61727547D01*
X31014790Y-61507533D01*
X31022893Y-61493498D01*
X31159182Y-61289527D01*
X31169039Y-61276681D01*
X31330786Y-61092244D01*
X31342244Y-61080786D01*
X31526681Y-60919039D01*
X31539527Y-60909182D01*
X31743498Y-60772893D01*
X31757533Y-60764790D01*
X31977547Y-60656291D01*
X31992512Y-60650093D01*
X32156762Y-60594337D01*
X32224797Y-60571243D01*
X32240464Y-60567045D01*
X32481048Y-60519190D01*
X32497102Y-60517075D01*
X32745957Y-60500765D01*
X32754067Y-60500500D01*
X32815892Y-60500500D01*
X102684108Y-60500500D01*
X102745933Y-60500500D01*
X102754043Y-60500765D01*
G37*
%TD.AperFunction*%
%TD*%
M02*
