%TF.GenerationSoftware,KiCad,Pcbnew,8.0.0*%
%TF.CreationDate,2024-05-08T00:57:59+10:00*%
%TF.ProjectId,PlantPulse_Node,506c616e-7450-4756-9c73-655f4e6f6465,rev?*%
%TF.SameCoordinates,Original*%
%TF.FileFunction,Soldermask,Top*%
%TF.FilePolarity,Negative*%
%FSLAX46Y46*%
G04 Gerber Fmt 4.6, Leading zero omitted, Abs format (unit mm)*
G04 Created by KiCad (PCBNEW 8.0.0) date 2024-05-08 00:57:59*
%MOMM*%
%LPD*%
G01*
G04 APERTURE LIST*
%ADD10C,3.200000*%
%ADD11C,1.500000*%
%ADD12R,1.700000X1.700000*%
%ADD13O,1.700000X1.700000*%
%ADD14C,1.600000*%
%ADD15O,1.600000X1.600000*%
%ADD16C,1.800000*%
G04 APERTURE END LIST*
D10*
%TO.C,REF\u002A\u002A*%
X102250000Y-63000000D03*
%TD*%
%TO.C,REF\u002A\u002A*%
X102250000Y-102000000D03*
%TD*%
%TO.C,REF\u002A\u002A*%
X33250000Y-63000000D03*
%TD*%
%TO.C,REF\u002A\u002A*%
X33250000Y-102000000D03*
%TD*%
D11*
%TO.C,TP6*%
X38000000Y-87500000D03*
%TD*%
D12*
%TO.C,J4*%
X45330000Y-92500000D03*
D13*
X45330000Y-95040000D03*
X45330000Y-97580000D03*
%TD*%
D14*
%TO.C,R1*%
X76000000Y-84620000D03*
D15*
X76000000Y-77000000D03*
%TD*%
D12*
%TO.C,J1*%
X61950000Y-64560000D03*
D13*
X64490000Y-64560000D03*
%TD*%
D12*
%TO.C,J2*%
X55490000Y-92500000D03*
D13*
X55490000Y-95040000D03*
X55490000Y-97580000D03*
%TD*%
D11*
%TO.C,TP1*%
X69460000Y-95675000D03*
%TD*%
D16*
%TO.C,U1*%
X40730000Y-63730000D03*
X40730000Y-66270000D03*
X40730000Y-68810000D03*
X40730000Y-71350000D03*
X40730000Y-73890000D03*
X40730000Y-76430000D03*
X40730000Y-78970000D03*
X55970000Y-63730000D03*
X55970000Y-66270000D03*
X55970000Y-68810000D03*
X55970000Y-71350000D03*
X55970000Y-73890000D03*
X55970000Y-76430000D03*
X55970000Y-78970000D03*
%TD*%
D12*
%TO.C,J3*%
X50410000Y-92500000D03*
D13*
X50410000Y-95040000D03*
X50410000Y-97580000D03*
%TD*%
D11*
%TO.C,TP2*%
X35750000Y-74000000D03*
%TD*%
%TO.C,TP4*%
X67682000Y-87928000D03*
%TD*%
%TO.C,TP5*%
X74540000Y-95675000D03*
%TD*%
D12*
%TO.C,J5*%
X40250000Y-92500000D03*
D13*
X40250000Y-95040000D03*
X40250000Y-97580000D03*
%TD*%
D16*
%TO.C,U2*%
X71650000Y-74000000D03*
X71650000Y-76540000D03*
X71650000Y-79080000D03*
X71650000Y-81620000D03*
X71650000Y-84160000D03*
X71650000Y-86700000D03*
D10*
X97028000Y-63850000D03*
X97028000Y-89250000D03*
%TD*%
D12*
%TO.C,J6*%
X60950000Y-97580000D03*
D13*
X60950000Y-95040000D03*
X60950000Y-92500000D03*
X60950000Y-89960000D03*
%TD*%
D11*
%TO.C,TP7*%
X38726000Y-84626000D03*
%TD*%
D14*
%TO.C,R2*%
X76000000Y-73810000D03*
D15*
X76000000Y-66190000D03*
%TD*%
M02*
